<?xml version="1.0" encoding="utf-8"?>
<svg xmlns="http://www.w3.org/2000/svg" viewBox="0.005 0.015 62.67 62.67" width="62.67mm" height="62.67mm" xmlns:bx="https://boxy-svg.com">
  <defs>
    <radialGradient id="e" cx="413.06128" cy="136.81819" r="82.125351" gradientTransform="matrix(0.3984, 0, 0, 0.3984, -131.34613, -27.52457)" gradientUnits="userSpaceOnUse" href="#b"/>
    <linearGradient id="b">
      <stop offset="0" style="stop-color: rgb(24, 24, 24);"/>
      <stop offset="1" style="stop-color: rgb(4, 4, 4);"/>
    </linearGradient>
    <linearGradient id="gradient-0-0" href="#gradient-0" gradientUnits="userSpaceOnUse" x1="33.1" y1="5.02" x2="33.1" y2="32.91"/>
    <linearGradient id="gradient-0" bx:pinned="true">
      <stop offset="0" style="stop-color: rgb(227, 227, 227);"/>
      <stop offset="1" style="stop-color: rgb(255, 255, 255);"/>
    </linearGradient>
    <linearGradient id="gradient-0-1" href="#gradient-0" gradientUnits="userSpaceOnUse" x1="33.1" y1="5.02" x2="33.1" y2="32.91"/>
  </defs>
  <g transform="matrix(1, 0, 0, 1, -1.7350000143051147, -0.03500000014901161)">
    <path stroke-linecap="round" stroke-linejoin="round" d="M 64.41 31.38 C 64.41 48.68 50.39 62.72 33.07 62.72 C 15.76 62.72 1.74 48.68 1.74 31.38 C 1.74 14.07 15.76 0.05 33.07 0.05 C 50.39 0.05 64.41 14.07 64.41 31.38 Z" paint-order="markers stroke fill" style="stroke-width: 0.05px; fill: rgb(236, 13, 13); transform-origin: 2.37px 31.39px;"/>
    <path fill="url(#e)" d="M 63.23 31.38 C 63.23 48.04 49.74 61.53 33.08 61.53 C 16.43 61.53 2.93 48.04 2.93 31.38 C 2.93 14.73 16.43 1.22 33.08 1.22 C 49.74 1.22 63.23 14.73 63.23 31.38 Z" paint-order="markers stroke fill" style=""/>
    <path fill="#f4f2f3" d="M 33.08 2.8 C 32.84 2.8 32.64 2.99 32.64 3.24 L 32.64 8.31 C 32.64 8.56 32.84 8.75 33.08 8.75 C 33.33 8.75 33.52 8.56 33.52 8.31 L 33.52 3.24 C 33.52 2.99 33.33 2.8 33.08 2.8 Z M 30.21 2.98 C 30.18 2.98 30.14 2.98 30.11 2.98 C 29.87 3.01 29.7 3.22 29.73 3.46 L 29.95 5.58 C 29.98 5.83 30.19 6 30.43 5.98 C 30.68 5.96 30.84 5.74 30.82 5.5 L 30.6 3.38 C 30.57 3.16 30.41 3 30.21 2.98 Z M 35.98 2.98 C 35.77 3 35.61 3.16 35.59 3.38 L 35.37 5.5 C 35.34 5.74 35.51 5.96 35.75 5.98 C 35.99 6.01 36.21 5.83 36.23 5.59 L 36.46 3.47 C 36.49 3.22 36.31 3.01 36.07 2.98 C 36.04 2.98 36 2.98 35.98 2.98 Z M 27.25 3.41 C 27.22 3.41 27.19 3.41 27.17 3.42 C 26.93 3.47 26.77 3.7 26.82 3.94 L 27.88 8.9 C 27.92 9.14 28.16 9.29 28.4 9.24 C 28.63 9.19 28.79 8.95 28.73 8.71 L 27.68 3.75 C 27.64 3.54 27.46 3.41 27.25 3.41 Z M 38.93 3.41 C 38.73 3.41 38.54 3.55 38.5 3.76 L 37.45 8.72 C 37.39 8.96 37.55 9.19 37.79 9.25 C 38.02 9.3 38.26 9.14 38.3 8.9 L 39.36 3.94 C 39.41 3.71 39.26 3.47 39.02 3.42 C 38.99 3.42 38.96 3.42 38.93 3.42 L 38.93 3.41 Z M 24.43 4.2 C 24.38 4.2 24.32 4.2 24.25 4.22 C 24.02 4.3 23.9 4.55 23.97 4.78 L 24.64 6.8 C 24.71 7.04 24.95 7.17 25.19 7.08 C 25.42 7.01 25.55 6.77 25.48 6.53 L 24.82 4.5 C 24.76 4.34 24.6 4.22 24.43 4.2 Z M 41.74 4.2 C 41.57 4.22 41.42 4.34 41.35 4.5 L 40.69 6.53 C 40.62 6.77 40.75 7.01 40.98 7.09 C 41.22 7.17 41.46 7.04 41.53 6.81 L 42.2 4.78 C 42.27 4.55 42.15 4.3 41.92 4.22 C 41.85 4.2 41.79 4.2 41.74 4.2 Z M 21.64 5.23 C 21.59 5.23 21.53 5.24 21.48 5.27 C 21.26 5.36 21.15 5.62 21.25 5.84 L 23.31 10.48 C 23.41 10.7 23.67 10.8 23.89 10.7 C 24.11 10.6 24.21 10.34 24.12 10.12 L 22.05 5.49 C 21.98 5.32 21.82 5.23 21.64 5.23 Z M 44.56 5.24 C 44.38 5.24 44.22 5.33 44.15 5.5 L 42.08 10.13 C 41.98 10.35 42.08 10.61 42.3 10.71 C 42.52 10.81 42.78 10.71 42.89 10.49 L 44.95 5.86 C 45.05 5.63 44.95 5.38 44.73 5.28 C 44.67 5.26 44.61 5.25 44.56 5.24 Z M 19.05 6.59 C 18.97 6.58 18.89 6.6 18.8 6.66 C 18.59 6.77 18.52 7.04 18.65 7.25 L 19.71 9.1 C 19.84 9.31 20.1 9.38 20.32 9.26 C 20.53 9.14 20.6 8.87 20.47 8.66 L 19.41 6.81 C 19.33 6.68 19.2 6.6 19.05 6.59 Z M 47.11 6.59 C 46.97 6.6 46.84 6.68 46.76 6.81 L 45.7 8.66 C 45.57 8.87 45.65 9.14 45.85 9.26 C 46.06 9.38 46.33 9.31 46.46 9.1 L 47.53 7.25 C 47.64 7.04 47.57 6.77 47.36 6.66 C 47.29 6.6 47.19 6.58 47.11 6.59 Z M 16.55 8.16 C 16.46 8.16 16.38 8.19 16.29 8.24 C 16.11 8.39 16.05 8.66 16.2 8.86 L 19.18 12.97 C 19.32 13.16 19.6 13.21 19.79 13.06 C 19.99 12.92 20.03 12.64 19.89 12.44 L 16.91 8.34 C 16.83 8.22 16.68 8.16 16.55 8.16 Z M 49.66 8.18 C 49.51 8.18 49.37 8.24 49.28 8.37 L 46.3 12.46 C 46.16 12.66 46.2 12.93 46.4 13.08 C 46.6 13.23 46.87 13.18 47.01 12.99 L 49.99 8.88 C 50.14 8.68 50.09 8.41 49.9 8.26 C 49.82 8.21 49.74 8.19 49.66 8.18 Z M 14.3 10.04 C 14.18 10.04 14.07 10.07 13.98 10.16 C 13.8 10.32 13.79 10.59 13.94 10.78 L 15.38 12.36 C 15.53 12.55 15.81 12.56 15.99 12.4 C 16.18 12.23 16.19 11.95 16.02 11.77 L 14.6 10.19 C 14.52 10.1 14.4 10.05 14.3 10.04 Z M 51.87 10.05 C 51.76 10.05 51.65 10.1 51.57 10.2 L 50.14 11.77 C 49.98 11.96 49.99 12.23 50.18 12.4 C 50.36 12.56 50.63 12.55 50.79 12.37 L 52.23 10.78 C 52.38 10.6 52.37 10.32 52.19 10.17 C 52.1 10.08 51.99 10.04 51.87 10.05 Z M 12.15 12.11 C 12.03 12.12 11.92 12.17 11.83 12.25 C 11.68 12.44 11.69 12.71 11.88 12.88 L 15.64 16.28 C 15.82 16.43 16.1 16.42 16.26 16.24 C 16.42 16.06 16.41 15.79 16.23 15.62 L 12.46 12.22 C 12.37 12.14 12.25 12.11 12.15 12.11 Z M 54.03 12.13 C 53.93 12.12 53.81 12.16 53.72 12.24 L 49.95 15.63 C 49.77 15.8 49.75 16.07 49.92 16.26 C 50.07 16.43 50.36 16.44 50.53 16.29 L 54.3 12.89 C 54.49 12.74 54.5 12.45 54.34 12.28 C 54.26 12.18 54.15 12.13 54.03 12.13 Z M 10.35 14.42 C 10.22 14.41 10.07 14.47 9.99 14.59 C 9.84 14.79 9.88 15.06 10.08 15.21 L 11.8 16.46 C 12 16.61 12.27 16.57 12.42 16.37 C 12.57 16.17 12.51 15.9 12.33 15.75 L 10.59 14.5 C 10.52 14.45 10.44 14.42 10.35 14.42 Z M 55.83 14.43 C 55.75 14.44 55.65 14.46 55.58 14.51 L 53.86 15.76 C 53.66 15.91 53.61 16.18 53.76 16.38 C 53.9 16.58 54.18 16.62 54.37 16.48 L 56.1 15.23 C 56.3 15.09 56.34 14.81 56.19 14.62 C 56.11 14.49 55.96 14.43 55.83 14.43 Z M 8.68 16.87 C 8.53 16.88 8.41 16.96 8.33 17.09 C 8.21 17.3 8.28 17.57 8.49 17.69 L 12.88 20.22 C 13.09 20.35 13.36 20.28 13.49 20.07 C 13.6 19.86 13.54 19.59 13.32 19.46 L 8.93 16.93 C 8.85 16.88 8.76 16.86 8.68 16.87 Z M 57.49 16.87 C 57.41 16.86 57.31 16.88 57.24 16.93 L 52.84 19.46 C 52.63 19.59 52.56 19.86 52.69 20.07 C 52.8 20.28 53.07 20.35 53.28 20.22 L 57.68 17.69 C 57.89 17.57 57.96 17.3 57.83 17.09 C 57.76 16.96 57.63 16.88 57.49 16.87 Z M 7.42 19.49 C 7.24 19.48 7.08 19.59 7.01 19.75 C 6.9 19.97 7.01 20.23 7.23 20.33 L 9.17 21.2 C 9.4 21.3 9.65 21.2 9.76 20.98 C 9.85 20.76 9.76 20.5 9.54 20.39 L 7.58 19.52 C 7.53 19.5 7.47 19.49 7.42 19.49 Z M 58.76 19.5 C 58.7 19.5 58.65 19.52 58.59 19.55 L 56.64 20.41 C 56.41 20.52 56.32 20.77 56.41 21 C 56.52 21.22 56.78 21.31 57 21.22 L 58.94 20.35 C 59.17 20.25 59.27 19.99 59.17 19.76 C 59.1 19.6 58.93 19.5 58.76 19.5 Z M 6.29 22.23 C 6.12 22.24 5.96 22.36 5.9 22.52 C 5.83 22.76 5.95 23 6.18 23.09 L 11.01 24.65 C 11.24 24.73 11.49 24.6 11.56 24.37 C 11.64 24.14 11.51 23.89 11.28 23.82 L 6.47 22.24 C 6.4 22.23 6.34 22.22 6.29 22.23 Z M 59.88 22.24 C 59.83 22.24 59.77 22.24 59.71 22.26 L 54.89 23.83 C 54.66 23.91 54.53 24.15 54.61 24.38 C 54.68 24.62 54.93 24.75 55.16 24.66 L 59.99 23.1 C 60.22 23.02 60.34 22.77 60.27 22.54 C 60.21 22.38 60.06 22.26 59.88 22.24 Z M 5.59 25.09 C 5.38 25.09 5.19 25.24 5.15 25.45 C 5.1 25.69 5.25 25.92 5.49 25.97 L 7.57 26.41 C 7.81 26.46 8.04 26.31 8.1 26.07 C 8.15 25.83 8 25.6 7.76 25.55 L 5.67 25.1 C 5.64 25.1 5.61 25.1 5.59 25.1 L 5.59 25.09 Z M 60.58 25.1 C 60.55 25.1 60.52 25.1 60.5 25.11 L 58.41 25.55 C 58.17 25.6 58.02 25.83 58.06 26.07 C 58.12 26.31 58.35 26.46 58.59 26.42 L 60.68 25.97 C 60.92 25.92 61.06 25.69 61.02 25.45 C 60.97 25.24 60.79 25.1 60.58 25.1 Z M 5.06 27.98 C 4.85 28.01 4.68 28.16 4.66 28.38 C 4.64 28.62 4.81 28.83 5.05 28.86 L 10.09 29.4 C 10.33 29.42 10.55 29.25 10.58 29 C 10.6 28.76 10.42 28.55 10.18 28.52 L 5.14 27.98 C 5.11 27.98 5.08 27.98 5.06 27.98 Z M 61.11 28.03 C 61.09 28.02 61.06 28.02 61.03 28.03 L 55.99 28.55 C 55.75 28.58 55.57 28.79 55.59 29.03 C 55.62 29.28 55.83 29.45 56.08 29.43 L 61.12 28.89 C 61.37 28.87 61.53 28.65 61.51 28.41 C 61.49 28.2 61.32 28.05 61.11 28.03 Z M 4.97 30.94 C 4.72 30.94 4.52 31.14 4.52 31.38 C 4.52 31.63 4.72 31.82 4.97 31.82 L 7.1 31.82 C 7.34 31.82 7.54 31.63 7.54 31.38 C 7.54 31.14 7.34 30.94 7.1 30.94 L 4.97 30.94 Z M 59.07 30.94 C 58.83 30.94 58.63 31.14 58.63 31.38 C 58.63 31.63 58.83 31.82 59.07 31.82 L 61.2 31.82 C 61.44 31.82 61.64 31.63 61.64 31.38 C 61.64 31.14 61.44 30.94 61.2 30.94 L 59.07 30.94 Z M 10.18 33.34 C 10.15 33.33 10.12 33.33 10.09 33.34 L 5.05 33.87 C 4.81 33.89 4.63 34.11 4.66 34.35 C 4.68 34.59 4.9 34.76 5.14 34.74 L 10.18 34.21 C 10.42 34.19 10.6 33.97 10.57 33.73 C 10.55 33.52 10.38 33.36 10.18 33.34 Z M 55.99 33.37 C 55.78 33.38 55.61 33.55 55.59 33.76 C 55.57 34 55.74 34.22 55.99 34.24 L 61.02 34.77 C 61.27 34.81 61.48 34.63 61.51 34.39 C 61.53 34.15 61.35 33.93 61.11 33.91 L 56.07 33.37 C 56.04 33.36 56.02 33.36 55.99 33.37 Z M 7.67 36.34 C 7.64 36.34 7.6 36.34 7.57 36.35 L 5.49 36.79 C 5.25 36.84 5.1 37.07 5.15 37.31 C 5.2 37.55 5.43 37.7 5.67 37.66 L 7.76 37.21 C 8 37.16 8.15 36.93 8.1 36.69 C 8.05 36.48 7.87 36.34 7.67 36.34 Z M 58.5 36.34 C 58.29 36.34 58.12 36.49 58.06 36.7 C 58.01 36.94 58.17 37.17 58.41 37.22 L 60.49 37.66 C 60.73 37.71 60.97 37.55 61.01 37.32 C 61.06 37.08 60.92 36.85 60.68 36.8 L 58.59 36.35 C 58.56 36.35 58.53 36.34 58.5 36.34 Z M 11.18 38.07 C 11.12 38.07 11.06 38.07 11.01 38.1 L 6.18 39.66 C 5.95 39.74 5.83 39.99 5.9 40.22 C 5.98 40.45 6.23 40.57 6.46 40.5 L 11.28 38.93 C 11.51 38.86 11.64 38.61 11.56 38.38 C 11.5 38.2 11.35 38.1 11.18 38.07 Z M 54.98 38.1 C 54.82 38.11 54.66 38.22 54.6 38.4 C 54.52 38.63 54.65 38.87 54.88 38.95 L 59.7 40.52 C 59.93 40.59 60.18 40.47 60.26 40.24 C 60.33 40.01 60.21 39.76 59.98 39.68 L 55.16 38.12 C 55.1 38.1 55.04 38.09 54.98 38.1 Z M 9.34 41.51 C 9.29 41.51 9.22 41.52 9.17 41.55 L 7.22 42.42 C 7 42.51 6.89 42.78 7 42.99 C 7.09 43.21 7.35 43.32 7.57 43.22 L 9.53 42.35 C 9.75 42.25 9.85 41.99 9.75 41.77 C 9.67 41.61 9.51 41.51 9.34 41.51 Z M 56.82 41.52 C 56.64 41.52 56.49 41.62 56.41 41.78 C 56.31 42.01 56.41 42.27 56.63 42.37 L 58.58 43.23 C 58.81 43.34 59.07 43.23 59.16 43.02 C 59.27 42.8 59.16 42.53 58.94 42.43 L 56.99 41.56 C 56.94 41.54 56.87 41.53 56.82 41.52 Z M 13.13 42.48 C 13.05 42.47 12.96 42.49 12.88 42.53 L 8.49 45.07 C 8.28 45.2 8.21 45.46 8.33 45.68 C 8.45 45.89 8.72 45.96 8.93 45.84 L 13.32 43.3 C 13.54 43.18 13.6 42.91 13.49 42.7 C 13.4 42.57 13.28 42.49 13.13 42.48 Z M 53.03 42.48 C 52.89 42.49 52.76 42.57 52.69 42.7 C 52.56 42.91 52.63 43.18 52.84 43.3 L 57.24 45.84 C 57.45 45.96 57.72 45.89 57.83 45.68 C 57.96 45.46 57.89 45.2 57.68 45.07 L 53.28 42.53 C 53.21 42.49 53.11 42.47 53.03 42.48 Z M 12.03 46.2 C 11.95 46.2 11.87 46.23 11.79 46.28 L 10.07 47.54 C 9.87 47.68 9.83 47.96 9.97 48.15 C 10.11 48.35 10.38 48.39 10.58 48.25 L 12.32 46.99 C 12.5 46.85 12.56 46.58 12.41 46.38 C 12.32 46.26 12.18 46.19 12.03 46.2 Z M 54.12 46.21 C 53.98 46.21 53.83 46.27 53.75 46.4 C 53.6 46.6 53.65 46.87 53.84 47.02 L 55.57 48.27 C 55.77 48.4 56.04 48.36 56.18 48.16 C 56.33 47.97 56.29 47.69 56.09 47.55 L 54.36 46.3 C 54.28 46.24 54.2 46.22 54.12 46.21 Z M 15.95 46.37 C 15.84 46.36 15.72 46.4 15.63 46.48 L 11.86 49.87 C 11.68 50.03 11.67 50.31 11.82 50.49 C 11.99 50.67 12.26 50.68 12.45 50.53 L 16.22 47.13 C 16.4 46.97 16.41 46.69 16.25 46.51 C 16.17 46.42 16.07 46.37 15.95 46.37 Z M 50.21 46.38 C 50.09 46.39 49.99 46.43 49.91 46.52 C 49.74 46.7 49.76 46.98 49.94 47.14 L 53.71 50.54 C 53.89 50.7 54.17 50.68 54.33 50.5 C 54.49 50.33 54.47 50.04 54.29 49.89 L 50.52 46.49 C 50.43 46.41 50.32 46.37 50.21 46.38 Z" paint-order="markers stroke fill" style=""/>
    <g style="transform-origin: 33.08px 33.035px;" transform="matrix(0.73858, -0.73858, 0.73858, 0.73858, 0, 0.0732)">
      <path d="M 33.21 5.02 L 32.99 5.02 C 33.44 5.02 33.8 5.38 33.8 5.83 L 34.77 32.1 C 34.77 32.55 34.41 32.91 33.96 32.91 L 32.24 32.91 C 31.79 32.91 31.43 32.55 31.43 32.1 L 32.4 5.83 C 32.4 5.38 32.76 5.02 33.21 5.02 Z" style="transform-box: fill-box; transform-origin: 50% 50%; stroke-width: 0.999995px; fill: url(&quot;#gradient-0-0&quot;); stroke: url(&quot;#gradient-0-1&quot;);"/>
      <path d="M 36.71 32.9 C 36.71 34.91 35.09 36.53 33.08 36.53 C 31.07 36.53 29.45 34.91 29.45 32.9 C 29.45 30.89 31.07 29.27 33.08 29.27 C 35.09 29.27 36.71 30.89 36.71 32.9 Z" style="stroke-width: 0.999995px; fill: rgb(251, 251, 251); stroke: rgb(251, 251, 251);"/>
    </g>
    <text style="fill: rgb(255, 255, 255); font-family: Arial, sans-serif; font-weight: 700; white-space: pre; font-size: 3.7px;" x="28.92" y="51.44">KMH</text>
  </g>
</svg>