<?xml version="1.0" standalone="no"?>
<svg xmlns="http://www.w3.org/2000/svg" width="500" height="500"><defs><clipPath id="clip-path-dot-color"><path d="M 24 112v 11h 5.5a 5.5 5.5, 0, 0, 0, 0 -11" transform="rotate(-90,29.5,117.5)"/><rect x="24" y="123" width="11" height="11" transform="rotate(0,29.5,128.5)"/><path d="M 24 134v 11h 5.5a 5.5 5.5, 0, 0, 0, 0 -11" transform="rotate(90,29.5,139.5)"/><path d="M 24 156v 11h 11v -5.5a 5.5 5.5, 0, 0, 0, -5.5 -5.5" transform="rotate(-90,29.5,161.5)"/><path d="M 24 167v 11h 11v -5.5a 5.5 5.5, 0, 0, 0, -5.5 -5.5" transform="rotate(180,29.5,172.5)"/><path d="M 24 189v 11h 5.5a 5.5 5.5, 0, 0, 0, 0 -11" transform="rotate(-90,29.5,194.5)"/><rect x="24" y="200" width="11" height="11" transform="rotate(0,29.5,205.5)"/><path d="M 24 211v 11h 5.5a 5.5 5.5, 0, 0, 0, 0 -11" transform="rotate(90,29.5,216.5)"/><path d="M 24 233v 11h 11v -5.5a 5.5 5.5, 0, 0, 0, -5.5 -5.5" transform="rotate(-90,29.5,238.5)"/><path d="M 24 244v 11h 5.5a 5.5 5.5, 0, 0, 0, 0 -11" transform="rotate(90,29.5,249.5)"/><circle cx="29.5" cy="282.5" r="5.5" transform="rotate(0,29.5,282.5)"/><circle cx="29.5" cy="304.5" r="5.5" transform="rotate(0,29.5,304.5)"/><path d="M 24 332v 11h 5.5a 5.5 5.5, 0, 0, 0, 0 -11" transform="rotate(180,29.5,337.5)"/><path d="M 24 354v 11h 11v -5.5a 5.5 5.5, 0, 0, 0, -5.5 -5.5" transform="rotate(-90,29.5,359.5)"/><rect x="24" y="365" width="11" height="11" transform="rotate(0,29.5,370.5)"/><path d="M 24 376v 11h 11v -5.5a 5.5 5.5, 0, 0, 0, -5.5 -5.5" transform="rotate(180,29.5,381.5)"/><path d="M 35 145v 11h 11v -5.5a 5.5 5.5, 0, 0, 0, -5.5 -5.5" transform="rotate(-90,40.5,150.5)"/><rect x="35" y="156" width="11" height="11" transform="rotate(0,40.5,161.5)"/><rect x="35" y="167" width="11" height="11" transform="rotate(0,40.5,172.5)"/><path d="M 35 178v 11h 11v -5.5a 5.5 5.5, 0, 0, 0, -5.5 -5.5" transform="rotate(180,40.5,183.5)"/><path d="M 35 222v 11h 11v -5.5a 5.5 5.5, 0, 0, 0, -5.5 -5.5" transform="rotate(-90,40.5,227.5)"/><rect x="35" y="233" width="11" height="11" transform="rotate(0,40.5,238.5)"/><circle cx="40.5" cy="260.5" r="5.5" transform="rotate(0,40.5,260.5)"/><circle cx="40.5" cy="293.5" r="5.5" transform="rotate(0,40.5,293.5)"/><path d="M 35 310v 11h 11v -5.5a 5.5 5.5, 0, 0, 0, -5.5 -5.5" transform="rotate(-90,40.5,315.5)"/><rect x="35" y="321" width="11" height="11" transform="rotate(0,40.5,326.5)"/><path d="M 35 332v 11h 11v -5.5a 5.5 5.5, 0, 0, 0, -5.5 -5.5" transform="rotate(90,40.5,337.5)"/><rect x="35" y="354" width="11" height="11" transform="rotate(0,40.5,359.5)"/><rect x="35" y="376" width="11" height="11" transform="rotate(0,40.5,381.5)"/><path d="M 46 123v 11h 5.5a 5.5 5.5, 0, 0, 0, 0 -11" transform="rotate(-90,51.5,128.5)"/><rect x="46" y="134" width="11" height="11" transform="rotate(0,51.5,139.5)"/><rect x="46" y="145" width="11" height="11" transform="rotate(0,51.5,150.5)"/><rect x="46" y="156" width="11" height="11" transform="rotate(0,51.5,161.5)"/><rect x="46" y="167" width="11" height="11" transform="rotate(0,51.5,172.5)"/><rect x="46" y="178" width="11" height="11" transform="rotate(0,51.5,183.5)"/><rect x="46" y="222" width="11" height="11" transform="rotate(0,51.5,227.5)"/><rect x="46" y="233" width="11" height="11" transform="rotate(0,51.5,238.5)"/><path d="M 46 244v 11h 11v -5.5a 5.5 5.5, 0, 0, 0, -5.5 -5.5" transform="rotate(180,51.5,249.5)"/><circle cx="51.5" cy="282.5" r="5.5" transform="rotate(0,51.5,282.5)"/><rect x="46" y="310" width="11" height="11" transform="rotate(0,51.5,315.5)"/><rect x="46" y="321" width="11" height="11" transform="rotate(0,51.5,326.5)"/><path d="M 46 354v 11h 5.5a 5.5 5.5, 0, 0, 0, 0 -11" transform="rotate(0,51.5,359.5)"/><rect x="46" y="376" width="11" height="11" transform="rotate(0,51.5,381.5)"/><rect x="57" y="134" width="11" height="11" transform="rotate(0,62.5,139.5)"/><path d="M 57 167v 11h 11v -5.5a 5.5 5.5, 0, 0, 0, -5.5 -5.5" transform="rotate(0,62.5,172.5)"/><path d="M 57 178v 11h 11v -5.5a 5.5 5.5, 0, 0, 0, -5.5 -5.5" transform="rotate(90,62.5,183.5)"/><path d="M 57 200v 11h 11v -5.5a 5.5 5.5, 0, 0, 0, -5.5 -5.5" transform="rotate(-90,62.5,205.5)"/><rect x="57" y="211" width="11" height="11" transform="rotate(0,62.5,216.5)"/><path d="M 57 222v 11h 11v -5.5a 5.5 5.5, 0, 0, 0, -5.5 -5.5" transform="rotate(90,62.5,227.5)"/><path d="M 57 244v 11h 5.5a 5.5 5.5, 0, 0, 0, 0 -11" transform="rotate(0,62.5,249.5)"/><path d="M 57 299v 11h 5.5a 5.5 5.5, 0, 0, 0, 0 -11" transform="rotate(-90,62.5,304.5)"/><rect x="57" y="310" width="11" height="11" transform="rotate(0,62.5,315.5)"/><rect x="57" y="321" width="11" height="11" transform="rotate(0,62.5,326.5)"/><rect x="57" y="332" width="11" height="11" transform="rotate(0,62.5,337.5)"/><path d="M 57 343v 11h 5.5a 5.5 5.5, 0, 0, 0, 0 -11" transform="rotate(90,62.5,348.5)"/><path d="M 57 365v 11h 11v -5.5a 5.5 5.5, 0, 0, 0, -5.5 -5.5" transform="rotate(-90,62.5,370.5)"/><rect x="57" y="376" width="11" height="11" transform="rotate(0,62.5,381.5)"/><path d="M 68 112v 11h 5.5a 5.5 5.5, 0, 0, 0, 0 -11" transform="rotate(180,73.5,117.5)"/><path d="M 68 134v 11h 11v -5.5a 5.5 5.5, 0, 0, 0, -5.5 -5.5" transform="rotate(0,73.5,139.5)"/><rect x="68" y="145" width="11" height="11" transform="rotate(0,73.5,150.5)"/><path d="M 68 156v 11h 5.5a 5.5 5.5, 0, 0, 0, 0 -11" transform="rotate(90,73.5,161.5)"/><path d="M 68 189v 11h 11v -5.5a 5.5 5.5, 0, 0, 0, -5.5 -5.5" transform="rotate(-90,73.5,194.5)"/><rect x="68" y="200" width="11" height="11" transform="rotate(0,73.5,205.5)"/><path d="M 68 211v 11h 11v -5.5a 5.5 5.5, 0, 0, 0, -5.5 -5.5" transform="rotate(90,73.5,216.5)"/><path d="M 68 255v 11h 5.5a 5.5 5.5, 0, 0, 0, 0 -11" transform="rotate(180,73.5,260.5)"/><path d="M 68 277v 11h 11v -5.5a 5.5 5.5, 0, 0, 0, -5.5 -5.5" transform="rotate(-90,73.5,282.5)"/><path d="M 68 288v 11h 11v -5.5a 5.5 5.5, 0, 0, 0, -5.5 -5.5" transform="rotate(180,73.5,293.5)"/><path d="M 68 332v 11h 5.5a 5.5 5.5, 0, 0, 0, 0 -11" transform="rotate(0,73.5,337.5)"/><path d="M 68 354v 11h 11v -5.5a 5.5 5.5, 0, 0, 0, -5.5 -5.5" transform="rotate(-90,73.5,359.5)"/><rect x="68" y="365" width="11" height="11" transform="rotate(0,73.5,370.5)"/><rect x="68" y="376" width="11" height="11" transform="rotate(0,73.5,381.5)"/><rect x="79" y="112" width="11" height="11" transform="rotate(0,84.5,117.5)"/><path d="M 79 123v 11h 5.5a 5.5 5.5, 0, 0, 0, 0 -11" transform="rotate(90,84.5,128.5)"/><path d="M 79 178v 11h 11v -5.5a 5.5 5.5, 0, 0, 0, -5.5 -5.5" transform="rotate(-90,84.5,183.5)"/><rect x="79" y="189" width="11" height="11" transform="rotate(0,84.5,194.5)"/><rect x="79" y="200" width="11" height="11" transform="rotate(0,84.5,205.5)"/><path d="M 79 222v 11h 5.5a 5.5 5.5, 0, 0, 0, 0 -11" transform="rotate(180,84.5,227.5)"/><path d="M 79 244v 11h 11v -5.5a 5.5 5.5, 0, 0, 0, -5.5 -5.5" transform="rotate(-90,84.5,249.5)"/><rect x="79" y="255" width="11" height="11" transform="rotate(0,84.5,260.5)"/><rect x="79" y="266" width="11" height="11" transform="rotate(0,84.5,271.5)"/><rect x="79" y="277" width="11" height="11" transform="rotate(0,84.5,282.5)"/><rect x="79" y="288" width="11" height="11" transform="rotate(0,84.5,293.5)"/><rect x="79" y="299" width="11" height="11" transform="rotate(0,84.5,304.5)"/><rect x="79" y="310" width="11" height="11" transform="rotate(0,84.5,315.5)"/><path d="M 79 321v 11h 5.5a 5.5 5.5, 0, 0, 0, 0 -11" transform="rotate(90,84.5,326.5)"/><rect x="79" y="354" width="11" height="11" transform="rotate(0,84.5,359.5)"/><rect x="79" y="376" width="11" height="11" transform="rotate(0,84.5,381.5)"/><path d="M 90 112v 11h 5.5a 5.5 5.5, 0, 0, 0, 0 -11" transform="rotate(0,95.5,117.5)"/><path d="M 90 134v 11h 5.5a 5.5 5.5, 0, 0, 0, 0 -11" transform="rotate(180,95.5,139.5)"/><path d="M 90 156v 11h 5.5a 5.5 5.5, 0, 0, 0, 0 -11" transform="rotate(180,95.5,161.5)"/><path d="M 90 178v 11h 5.5a 5.5 5.5, 0, 0, 0, 0 -11" transform="rotate(0,95.5,183.5)"/><rect x="90" y="200" width="11" height="11" transform="rotate(0,95.5,205.5)"/><path d="M 90 222v 11h 5.5a 5.5 5.5, 0, 0, 0, 0 -11" transform="rotate(0,95.5,227.5)"/><rect x="90" y="244" width="11" height="11" transform="rotate(0,95.5,249.5)"/><rect x="90" y="266" width="11" height="11" transform="rotate(0,95.5,271.5)"/><path d="M 90 288v 11h 5.5a 5.5 5.5, 0, 0, 0, 0 -11" transform="rotate(0,95.5,293.5)"/><rect x="90" y="310" width="11" height="11" transform="rotate(0,95.5,315.5)"/><circle cx="95.5" cy="337.5" r="5.5" transform="rotate(0,95.5,337.5)"/><rect x="90" y="354" width="11" height="11" transform="rotate(0,95.5,359.5)"/><rect x="90" y="376" width="11" height="11" transform="rotate(0,95.5,381.5)"/><path d="M 101 123v 11h 5.5a 5.5 5.5, 0, 0, 0, 0 -11" transform="rotate(-90,106.5,128.5)"/><path d="M 101 134v 11h 11v -5.5a 5.5 5.5, 0, 0, 0, -5.5 -5.5" transform="rotate(90,106.5,139.5)"/><path d="M 101 156v 11h 11v -5.5a 5.5 5.5, 0, 0, 0, -5.5 -5.5" transform="rotate(0,106.5,161.5)"/><path d="M 101 167v 11h 5.5a 5.5 5.5, 0, 0, 0, 0 -11" transform="rotate(90,106.5,172.5)"/><path d="M 101 189v 11h 5.5a 5.5 5.5, 0, 0, 0, 0 -11" transform="rotate(-90,106.5,194.5)"/><rect x="101" y="200" width="11" height="11" transform="rotate(0,106.5,205.5)"/><path d="M 101 211v 11h 11v -5.5a 5.5 5.5, 0, 0, 0, -5.5 -5.5" transform="rotate(180,106.5,216.5)"/><path d="M 101 244v 11h 11v -5.5a 5.5 5.5, 0, 0, 0, -5.5 -5.5" transform="rotate(0,106.5,249.5)"/><rect x="101" y="255" width="11" height="11" transform="rotate(0,106.5,260.5)"/><path d="M 101 266v 11h 11v -5.5a 5.5 5.5, 0, 0, 0, -5.5 -5.5" transform="rotate(90,106.5,271.5)"/><rect x="101" y="310" width="11" height="11" transform="rotate(0,106.5,315.5)"/><path d="M 101 321v 11h 11v -5.5a 5.5 5.5, 0, 0, 0, -5.5 -5.5" transform="rotate(180,106.5,326.5)"/><path d="M 101 354v 11h 11v -5.5a 5.5 5.5, 0, 0, 0, -5.5 -5.5" transform="rotate(0,106.5,359.5)"/><rect x="101" y="365" width="11" height="11" transform="rotate(0,106.5,370.5)"/><rect x="101" y="376" width="11" height="11" transform="rotate(0,106.5,381.5)"/><path d="M 112 35v 11h 11v -5.5a 5.5 5.5, 0, 0, 0, -5.5 -5.5" transform="rotate(-90,117.5,40.5)"/><rect x="112" y="46" width="11" height="11" transform="rotate(0,117.5,51.5)"/><rect x="112" y="57" width="11" height="11" transform="rotate(0,117.5,62.5)"/><rect x="112" y="68" width="11" height="11" transform="rotate(0,117.5,73.5)"/><rect x="112" y="79" width="11" height="11" transform="rotate(0,117.5,84.5)"/><rect x="112" y="90" width="11" height="11" transform="rotate(0,117.5,95.5)"/><path d="M 112 101v 11h 5.5a 5.5 5.5, 0, 0, 0, 0 -11" transform="rotate(90,117.5,106.5)"/><path d="M 112 145v 11h 5.5a 5.5 5.5, 0, 0, 0, 0 -11" transform="rotate(180,117.5,150.5)"/><circle cx="117.5" cy="183.5" r="5.5" transform="rotate(0,117.5,183.5)"/><rect x="112" y="200" width="11" height="11" transform="rotate(0,117.5,205.5)"/><rect x="112" y="211" width="11" height="11" transform="rotate(0,117.5,216.5)"/><path d="M 112 277v 11h 5.5a 5.5 5.5, 0, 0, 0, 0 -11" transform="rotate(-90,117.5,282.5)"/><rect x="112" y="288" width="11" height="11" transform="rotate(0,117.5,293.5)"/><rect x="112" y="299" width="11" height="11" transform="rotate(0,117.5,304.5)"/><rect x="112" y="310" width="11" height="11" transform="rotate(0,117.5,315.5)"/><path d="M 112 321v 11h 11v -5.5a 5.5 5.5, 0, 0, 0, -5.5 -5.5" transform="rotate(90,117.5,326.5)"/><circle cx="117.5" cy="348.5" r="5.5" transform="rotate(0,117.5,348.5)"/><rect x="112" y="365" width="11" height="11" transform="rotate(0,117.5,370.5)"/><rect x="112" y="376" width="11" height="11" transform="rotate(0,117.5,381.5)"/><path d="M 112 409v 11h 5.5a 5.5 5.5, 0, 0, 0, 0 -11" transform="rotate(-90,117.5,414.5)"/><path d="M 112 420v 11h 11v -5.5a 5.5 5.5, 0, 0, 0, -5.5 -5.5" transform="rotate(180,117.5,425.5)"/><path d="M 112 464v 11h 5.5a 5.5 5.5, 0, 0, 0, 0 -11" transform="rotate(180,117.5,469.5)"/><rect x="123" y="35" width="11" height="11" transform="rotate(0,128.5,40.5)"/><path d="M 123 46v 11h 11v -5.5a 5.5 5.5, 0, 0, 0, -5.5 -5.5" transform="rotate(90,128.5,51.5)"/><path d="M 123 79v 11h 5.5a 5.5 5.5, 0, 0, 0, 0 -11" transform="rotate(0,128.5,84.5)"/><path d="M 123 145v 11h 11v -5.5a 5.5 5.5, 0, 0, 0, -5.5 -5.5" transform="rotate(0,128.5,150.5)"/><path d="M 123 156v 11h 11v -5.5a 5.5 5.5, 0, 0, 0, -5.5 -5.5" transform="rotate(180,128.5,161.5)"/><path d="M 123 189v 11h 11v -5.5a 5.5 5.5, 0, 0, 0, -5.5 -5.5" transform="rotate(-90,128.5,194.5)"/><rect x="123" y="200" width="11" height="11" transform="rotate(0,128.5,205.5)"/><rect x="123" y="211" width="11" height="11" transform="rotate(0,128.5,216.5)"/><path d="M 123 222v 11h 11v -5.5a 5.5 5.5, 0, 0, 0, -5.5 -5.5" transform="rotate(180,128.5,227.5)"/><circle cx="128.5" cy="271.5" r="5.5" transform="rotate(0,128.5,271.5)"/><circle cx="128.5" cy="337.5" r="5.5" transform="rotate(0,128.5,337.5)"/><path d="M 123 354v 11h 11v -5.5a 5.5 5.5, 0, 0, 0, -5.5 -5.5" transform="rotate(-90,128.5,359.5)"/><rect x="123" y="365" width="11" height="11" transform="rotate(0,128.5,370.5)"/><rect x="123" y="376" width="11" height="11" transform="rotate(0,128.5,381.5)"/><path d="M 123 398v 11h 5.5a 5.5 5.5, 0, 0, 0, 0 -11" transform="rotate(180,128.5,403.5)"/><path d="M 123 420v 11h 5.5a 5.5 5.5, 0, 0, 0, 0 -11" transform="rotate(0,128.5,425.5)"/><path d="M 123 442v 11h 5.5a 5.5 5.5, 0, 0, 0, 0 -11" transform="rotate(-90,128.5,447.5)"/><rect x="123" y="453" width="11" height="11" transform="rotate(0,128.5,458.5)"/><path d="M 123 464v 11h 11v -5.5a 5.5 5.5, 0, 0, 0, -5.5 -5.5" transform="rotate(90,128.5,469.5)"/><path d="M 134 24v 11h 11v -5.5a 5.5 5.5, 0, 0, 0, -5.5 -5.5" transform="rotate(-90,139.5,29.5)"/><rect x="134" y="35" width="11" height="11" transform="rotate(0,139.5,40.5)"/><circle cx="139.5" cy="62.5" r="5.5" transform="rotate(0,139.5,62.5)"/><path d="M 134 90v 11h 5.5a 5.5 5.5, 0, 0, 0, 0 -11" transform="rotate(-90,139.5,95.5)"/><path d="M 134 101v 11h 11v -5.5a 5.5 5.5, 0, 0, 0, -5.5 -5.5" transform="rotate(180,139.5,106.5)"/><path d="M 134 134v 11h 5.5a 5.5 5.5, 0, 0, 0, 0 -11" transform="rotate(180,139.5,139.5)"/><rect x="134" y="156" width="11" height="11" transform="rotate(0,139.5,161.5)"/><rect x="134" y="167" width="11" height="11" transform="rotate(0,139.5,172.5)"/><rect x="134" y="178" width="11" height="11" transform="rotate(0,139.5,183.5)"/><rect x="134" y="189" width="11" height="11" transform="rotate(0,139.5,194.5)"/><path d="M 134 200v 11h 11v -5.5a 5.5 5.5, 0, 0, 0, -5.5 -5.5" transform="rotate(90,139.5,205.5)"/><rect x="134" y="222" width="11" height="11" transform="rotate(0,139.5,227.5)"/><path d="M 134 233v 11h 5.5a 5.5 5.5, 0, 0, 0, 0 -11" transform="rotate(90,139.5,238.5)"/><circle cx="139.5" cy="260.5" r="5.5" transform="rotate(0,139.5,260.5)"/><circle cx="139.5" cy="326.5" r="5.5" transform="rotate(0,139.5,326.5)"/><path d="M 134 343v 11h 5.5a 5.5 5.5, 0, 0, 0, 0 -11" transform="rotate(-90,139.5,348.5)"/><rect x="134" y="354" width="11" height="11" transform="rotate(0,139.5,359.5)"/><rect x="134" y="376" width="11" height="11" transform="rotate(0,139.5,381.5)"/><rect x="134" y="387" width="11" height="11" transform="rotate(0,139.5,392.5)"/><rect x="134" y="398" width="11" height="11" transform="rotate(0,139.5,403.5)"/><path d="M 134 409v 11h 5.5a 5.5 5.5, 0, 0, 0, 0 -11" transform="rotate(90,139.5,414.5)"/><rect x="145" y="24" width="11" height="11" transform="rotate(0,150.5,29.5)"/><rect x="145" y="35" width="11" height="11" transform="rotate(0,150.5,40.5)"/><circle cx="150.5" cy="73.5" r="5.5" transform="rotate(0,150.5,73.5)"/><path d="M 145 101v 11h 11v -5.5a 5.5 5.5, 0, 0, 0, -5.5 -5.5" transform="rotate(0,150.5,106.5)"/><rect x="145" y="112" width="11" height="11" transform="rotate(0,150.5,117.5)"/><rect x="145" y="123" width="11" height="11" transform="rotate(0,150.5,128.5)"/><rect x="145" y="134" width="11" height="11" transform="rotate(0,150.5,139.5)"/><path d="M 145 156v 11h 5.5a 5.5 5.5, 0, 0, 0, 0 -11" transform="rotate(0,150.5,161.5)"/><rect x="145" y="178" width="11" height="11" transform="rotate(0,150.5,183.5)"/><path d="M 145 211v 11h 5.5a 5.5 5.5, 0, 0, 0, 0 -11" transform="rotate(-90,150.5,216.5)"/><path d="M 145 222v 11h 11v -5.5a 5.5 5.5, 0, 0, 0, -5.5 -5.5" transform="rotate(90,150.5,227.5)"/><circle cx="150.5" cy="337.5" r="5.5" transform="rotate(0,150.5,337.5)"/><path d="M 145 354v 11h 11v -5.5a 5.5 5.5, 0, 0, 0, -5.5 -5.5" transform="rotate(0,150.5,359.5)"/><rect x="145" y="365" width="11" height="11" transform="rotate(0,150.5,370.5)"/><rect x="145" y="376" width="11" height="11" transform="rotate(0,150.5,381.5)"/><path d="M 145 420v 11h 5.5a 5.5 5.5, 0, 0, 0, 0 -11" transform="rotate(-90,150.5,425.5)"/><path d="M 145 431v 11h 11v -5.5a 5.5 5.5, 0, 0, 0, -5.5 -5.5" transform="rotate(180,150.5,436.5)"/><circle cx="150.5" cy="458.5" r="5.5" transform="rotate(0,150.5,458.5)"/><rect x="156" y="24" width="11" height="11" transform="rotate(0,161.5,29.5)"/><rect x="156" y="35" width="11" height="11" transform="rotate(0,161.5,40.5)"/><circle cx="161.5" cy="62.5" r="5.5" transform="rotate(0,161.5,62.5)"/><circle cx="161.5" cy="95.5" r="5.5" transform="rotate(0,161.5,95.5)"/><rect x="156" y="123" width="11" height="11" transform="rotate(0,161.5,128.5)"/><path d="M 156 134v 11h 11v -5.5a 5.5 5.5, 0, 0, 0, -5.5 -5.5" transform="rotate(90,161.5,139.5)"/><path d="M 156 167v 11h 5.5a 5.5 5.5, 0, 0, 0, 0 -11" transform="rotate(-90,161.5,172.5)"/><rect x="156" y="178" width="11" height="11" transform="rotate(0,161.5,183.5)"/><path d="M 156 189v 11h 11v -5.5a 5.5 5.5, 0, 0, 0, -5.5 -5.5" transform="rotate(180,161.5,194.5)"/><path d="M 156 233v 11h 11v -5.5a 5.5 5.5, 0, 0, 0, -5.5 -5.5" transform="rotate(-90,161.5,238.5)"/><rect x="156" y="244" width="11" height="11" transform="rotate(0,161.5,249.5)"/><path d="M 156 255v 11h 11v -5.5a 5.5 5.5, 0, 0, 0, -5.5 -5.5" transform="rotate(180,161.5,260.5)"/><path d="M 156 277v 11h 5.5a 5.5 5.5, 0, 0, 0, 0 -11" transform="rotate(-90,161.5,282.5)"/><rect x="156" y="288" width="11" height="11" transform="rotate(0,161.5,293.5)"/><rect x="156" y="299" width="11" height="11" transform="rotate(0,161.5,304.5)"/><path d="M 156 310v 11h 11v -5.5a 5.5 5.5, 0, 0, 0, -5.5 -5.5" transform="rotate(180,161.5,315.5)"/><circle cx="161.5" cy="348.5" r="5.5" transform="rotate(0,161.5,348.5)"/><rect x="156" y="365" width="11" height="11" transform="rotate(0,161.5,370.5)"/><rect x="156" y="376" width="11" height="11" transform="rotate(0,161.5,381.5)"/><path d="M 156 387v 11h 5.5a 5.5 5.5, 0, 0, 0, 0 -11" transform="rotate(90,161.5,392.5)"/><rect x="156" y="431" width="11" height="11" transform="rotate(0,161.5,436.5)"/><path d="M 156 442v 11h 11v -5.5a 5.5 5.5, 0, 0, 0, -5.5 -5.5" transform="rotate(180,161.5,447.5)"/><path d="M 167 24v 11h 11v -5.5a 5.5 5.5, 0, 0, 0, -5.5 -5.5" transform="rotate(0,172.5,29.5)"/><rect x="167" y="35" width="11" height="11" transform="rotate(0,172.5,40.5)"/><path d="M 167 46v 11h 11v -5.5a 5.5 5.5, 0, 0, 0, -5.5 -5.5" transform="rotate(180,172.5,51.5)"/><path d="M 167 79v 11h 5.5a 5.5 5.5, 0, 0, 0, 0 -11" transform="rotate(180,172.5,84.5)"/><path d="M 167 101v 11h 11v -5.5a 5.5 5.5, 0, 0, 0, -5.5 -5.5" transform="rotate(-90,172.5,106.5)"/><rect x="167" y="112" width="11" height="11" transform="rotate(0,172.5,117.5)"/><rect x="167" y="123" width="11" height="11" transform="rotate(0,172.5,128.5)"/><path d="M 167 189v 11h 5.5a 5.5 5.5, 0, 0, 0, 0 -11" transform="rotate(0,172.5,194.5)"/><path d="M 167 211v 11h 5.5a 5.5 5.5, 0, 0, 0, 0 -11" transform="rotate(-90,172.5,216.5)"/><rect x="167" y="222" width="11" height="11" transform="rotate(0,172.5,227.5)"/><path d="M 167 233v 11h 11v -5.5a 5.5 5.5, 0, 0, 0, -5.5 -5.5" transform="rotate(90,172.5,238.5)"/><path d="M 167 255v 11h 5.5a 5.5 5.5, 0, 0, 0, 0 -11" transform="rotate(0,172.5,260.5)"/><rect x="167" y="288" width="11" height="11" transform="rotate(0,172.5,293.5)"/><rect x="167" y="299" width="11" height="11" transform="rotate(0,172.5,304.5)"/><rect x="167" y="310" width="11" height="11" transform="rotate(0,172.5,315.5)"/><path d="M 167 332v 11h 5.5a 5.5 5.5, 0, 0, 0, 0 -11" transform="rotate(180,172.5,337.5)"/><path d="M 167 354v 11h 11v -5.5a 5.5 5.5, 0, 0, 0, -5.5 -5.5" transform="rotate(-90,172.5,359.5)"/><rect x="167" y="365" width="11" height="11" transform="rotate(0,172.5,370.5)"/><rect x="167" y="376" width="11" height="11" transform="rotate(0,172.5,381.5)"/><circle cx="172.5" cy="403.5" r="5.5" transform="rotate(0,172.5,403.5)"/><path d="M 167 420v 11h 11v -5.5a 5.5 5.5, 0, 0, 0, -5.5 -5.5" transform="rotate(-90,172.5,425.5)"/><rect x="167" y="431" width="11" height="11" transform="rotate(0,172.5,436.5)"/><rect x="167" y="442" width="11" height="11" transform="rotate(0,172.5,447.5)"/><rect x="167" y="453" width="11" height="11" transform="rotate(0,172.5,458.5)"/><path d="M 167 464v 11h 5.5a 5.5 5.5, 0, 0, 0, 0 -11" transform="rotate(90,172.5,469.5)"/><path d="M 178 35v 11h 11v -5.5a 5.5 5.5, 0, 0, 0, -5.5 -5.5" transform="rotate(0,183.5,40.5)"/><rect x="178" y="46" width="11" height="11" transform="rotate(0,183.5,51.5)"/><rect x="178" y="79" width="11" height="11" transform="rotate(0,183.5,84.5)"/><rect x="178" y="90" width="11" height="11" transform="rotate(0,183.5,95.5)"/><rect x="178" y="101" width="11" height="11" transform="rotate(0,183.5,106.5)"/><rect x="178" y="112" width="11" height="11" transform="rotate(0,183.5,117.5)"/><rect x="178" y="123" width="11" height="11" transform="rotate(0,183.5,128.5)"/><path d="M 178 134v 11h 11v -5.5a 5.5 5.5, 0, 0, 0, -5.5 -5.5" transform="rotate(180,183.5,139.5)"/><circle cx="183.5" cy="161.5" r="5.5" transform="rotate(0,183.5,161.5)"/><path d="M 178 222v 11h 5.5a 5.5 5.5, 0, 0, 0, 0 -11" transform="rotate(0,183.5,227.5)"/><path d="M 178 244v 11h 5.5a 5.5 5.5, 0, 0, 0, 0 -11" transform="rotate(180,183.5,249.5)"/><circle cx="183.5" cy="271.5" r="5.5" transform="rotate(0,183.5,271.5)"/><rect x="178" y="288" width="11" height="11" transform="rotate(0,183.5,293.5)"/><path d="M 178 310v 11h 11v -5.5a 5.5 5.5, 0, 0, 0, -5.5 -5.5" transform="rotate(0,183.5,315.5)"/><rect x="178" y="321" width="11" height="11" transform="rotate(0,183.5,326.5)"/><rect x="178" y="332" width="11" height="11" transform="rotate(0,183.5,337.5)"/><rect x="178" y="343" width="11" height="11" transform="rotate(0,183.5,348.5)"/><path d="M 178 354v 11h 11v -5.5a 5.5 5.5, 0, 0, 0, -5.5 -5.5" transform="rotate(90,183.5,359.5)"/><path d="M 178 376v 11h 11v -5.5a 5.5 5.5, 0, 0, 0, -5.5 -5.5" transform="rotate(0,183.5,381.5)"/><path d="M 178 387v 11h 5.5a 5.5 5.5, 0, 0, 0, 0 -11" transform="rotate(90,183.5,392.5)"/><path d="M 178 409v 11h 11v -5.5a 5.5 5.5, 0, 0, 0, -5.5 -5.5" transform="rotate(-90,183.5,414.5)"/><path d="M 178 420v 11h 11v -5.5a 5.5 5.5, 0, 0, 0, -5.5 -5.5" transform="rotate(90,183.5,425.5)"/><path d="M 178 442v 11h 5.5a 5.5 5.5, 0, 0, 0, 0 -11" transform="rotate(0,183.5,447.5)"/><path d="M 189 46v 11h 5.5a 5.5 5.5, 0, 0, 0, 0 -11" transform="rotate(0,194.5,51.5)"/><path d="M 189 68v 11h 11v -5.5a 5.5 5.5, 0, 0, 0, -5.5 -5.5" transform="rotate(-90,194.5,73.5)"/><path d="M 189 79v 11h 11v -5.5a 5.5 5.5, 0, 0, 0, -5.5 -5.5" transform="rotate(90,194.5,84.5)"/><rect x="189" y="101" width="11" height="11" transform="rotate(0,194.5,106.5)"/><path d="M 189 123v 11h 11v -5.5a 5.5 5.5, 0, 0, 0, -5.5 -5.5" transform="rotate(0,194.5,128.5)"/><path d="M 189 134v 11h 11v -5.5a 5.5 5.5, 0, 0, 0, -5.5 -5.5" transform="rotate(90,194.5,139.5)"/><path d="M 189 167v 11h 5.5a 5.5 5.5, 0, 0, 0, 0 -11" transform="rotate(-90,194.5,172.5)"/><path d="M 189 178v 11h 11v -5.5a 5.5 5.5, 0, 0, 0, -5.5 -5.5" transform="rotate(180,194.5,183.5)"/><circle cx="194.5" cy="216.5" r="5.5" transform="rotate(0,194.5,216.5)"/><path d="M 189 233v 11h 11v -5.5a 5.5 5.5, 0, 0, 0, -5.5 -5.5" transform="rotate(-90,194.5,238.5)"/><rect x="189" y="244" width="11" height="11" transform="rotate(0,194.5,249.5)"/><path d="M 189 277v 11h 5.5a 5.5 5.5, 0, 0, 0, 0 -11" transform="rotate(-90,194.5,282.5)"/><rect x="189" y="288" width="11" height="11" transform="rotate(0,194.5,293.5)"/><path d="M 189 332v 11h 5.5a 5.5 5.5, 0, 0, 0, 0 -11" transform="rotate(0,194.5,337.5)"/><circle cx="194.5" cy="370.5" r="5.5" transform="rotate(0,194.5,370.5)"/><path d="M 189 398v 11h 5.5a 5.5 5.5, 0, 0, 0, 0 -11" transform="rotate(-90,194.5,403.5)"/><rect x="189" y="409" width="11" height="11" transform="rotate(0,194.5,414.5)"/><circle cx="194.5" cy="436.5" r="5.5" transform="rotate(0,194.5,436.5)"/><circle cx="194.5" cy="458.5" r="5.5" transform="rotate(0,194.5,458.5)"/><path d="M 200 35v 11h 5.5a 5.5 5.5, 0, 0, 0, 0 -11" transform="rotate(180,205.5,40.5)"/><path d="M 200 57v 11h 5.5a 5.5 5.5, 0, 0, 0, 0 -11" transform="rotate(-90,205.5,62.5)"/><rect x="200" y="68" width="11" height="11" transform="rotate(0,205.5,73.5)"/><path d="M 200 90v 11h 5.5a 5.5 5.5, 0, 0, 0, 0 -11" transform="rotate(-90,205.5,95.5)"/><path d="M 200 101v 11h 11v -5.5a 5.5 5.5, 0, 0, 0, -5.5 -5.5" transform="rotate(90,205.5,106.5)"/><path d="M 200 145v 11h 11v -5.5a 5.5 5.5, 0, 0, 0, -5.5 -5.5" transform="rotate(-90,205.5,150.5)"/><path d="M 200 156v 11h 11v -5.5a 5.5 5.5, 0, 0, 0, -5.5 -5.5" transform="rotate(180,205.5,161.5)"/><path d="M 200 178v 11h 5.5a 5.5 5.5, 0, 0, 0, 0 -11" transform="rotate(0,205.5,183.5)"/><rect x="200" y="233" width="11" height="11" transform="rotate(0,205.5,238.5)"/><path d="M 200 244v 11h 11v -5.5a 5.5 5.5, 0, 0, 0, -5.5 -5.5" transform="rotate(90,205.5,249.5)"/><circle cx="205.5" cy="271.5" r="5.5" transform="rotate(0,205.5,271.5)"/><path d="M 200 288v 11h 11v -5.5a 5.5 5.5, 0, 0, 0, -5.5 -5.5" transform="rotate(0,205.5,293.5)"/><rect x="200" y="299" width="11" height="11" transform="rotate(0,205.5,304.5)"/><path d="M 200 310v 11h 5.5a 5.5 5.5, 0, 0, 0, 0 -11" transform="rotate(90,205.5,315.5)"/><circle cx="205.5" cy="348.5" r="5.5" transform="rotate(0,205.5,348.5)"/><path d="M 200 376v 11h 5.5a 5.5 5.5, 0, 0, 0, 0 -11" transform="rotate(-90,205.5,381.5)"/><path d="M 200 387v 11h 5.5a 5.5 5.5, 0, 0, 0, 0 -11" transform="rotate(90,205.5,392.5)"/><rect x="200" y="409" width="11" height="11" transform="rotate(0,205.5,414.5)"/><circle cx="205.5" cy="447.5" r="5.5" transform="rotate(0,205.5,447.5)"/><path d="M 211 35v 11h 11v -5.5a 5.5 5.5, 0, 0, 0, -5.5 -5.5" transform="rotate(0,216.5,40.5)"/><path d="M 211 46v 11h 5.5a 5.5 5.5, 0, 0, 0, 0 -11" transform="rotate(90,216.5,51.5)"/><path d="M 211 68v 11h 11v -5.5a 5.5 5.5, 0, 0, 0, -5.5 -5.5" transform="rotate(0,216.5,73.5)"/><path d="M 211 79v 11h 5.5a 5.5 5.5, 0, 0, 0, 0 -11" transform="rotate(90,216.5,84.5)"/><path d="M 211 123v 11h 5.5a 5.5 5.5, 0, 0, 0, 0 -11" transform="rotate(-90,216.5,128.5)"/><rect x="211" y="134" width="11" height="11" transform="rotate(0,216.5,139.5)"/><rect x="211" y="145" width="11" height="11" transform="rotate(0,216.5,150.5)"/><rect x="211" y="156" width="11" height="11" transform="rotate(0,216.5,161.5)"/><path d="M 211 167v 11h 5.5a 5.5 5.5, 0, 0, 0, 0 -11" transform="rotate(90,216.5,172.5)"/><rect x="211" y="233" width="11" height="11" transform="rotate(0,216.5,238.5)"/><circle cx="216.5" cy="260.5" r="5.5" transform="rotate(0,216.5,260.5)"/><circle cx="216.5" cy="282.5" r="5.5" transform="rotate(0,216.5,282.5)"/><circle cx="216.5" cy="337.5" r="5.5" transform="rotate(0,216.5,337.5)"/><path d="M 211 354v 11h 5.5a 5.5 5.5, 0, 0, 0, 0 -11" transform="rotate(-90,216.5,359.5)"/><path d="M 211 365v 11h 5.5a 5.5 5.5, 0, 0, 0, 0 -11" transform="rotate(90,216.5,370.5)"/><path d="M 211 398v 11h 11v -5.5a 5.5 5.5, 0, 0, 0, -5.5 -5.5" transform="rotate(-90,216.5,403.5)"/><rect x="211" y="409" width="11" height="11" transform="rotate(0,216.5,414.5)"/><path d="M 211 420v 11h 11v -5.5a 5.5 5.5, 0, 0, 0, -5.5 -5.5" transform="rotate(180,216.5,425.5)"/><path d="M 211 453v 11h 11v -5.5a 5.5 5.5, 0, 0, 0, -5.5 -5.5" transform="rotate(-90,216.5,458.5)"/><path d="M 211 464v 11h 5.5a 5.5 5.5, 0, 0, 0, 0 -11" transform="rotate(90,216.5,469.5)"/><path d="M 222 90v 11h 5.5a 5.5 5.5, 0, 0, 0, 0 -11" transform="rotate(-90,227.5,95.5)"/><rect x="222" y="101" width="11" height="11" transform="rotate(0,227.5,106.5)"/><path d="M 222 112v 11h 5.5a 5.5 5.5, 0, 0, 0, 0 -11" transform="rotate(90,227.5,117.5)"/><rect x="222" y="134" width="11" height="11" transform="rotate(0,227.5,139.5)"/><rect x="222" y="145" width="11" height="11" transform="rotate(0,227.5,150.5)"/><path d="M 222 156v 11h 11v -5.5a 5.5 5.5, 0, 0, 0, -5.5 -5.5" transform="rotate(90,227.5,161.5)"/><path d="M 222 189v 11h 5.5a 5.5 5.5, 0, 0, 0, 0 -11" transform="rotate(-90,227.5,194.5)"/><path d="M 222 200v 11h 5.5a 5.5 5.5, 0, 0, 0, 0 -11" transform="rotate(90,227.5,205.5)"/><rect x="222" y="233" width="11" height="11" transform="rotate(0,227.5,238.5)"/><circle cx="227.5" cy="271.5" r="5.5" transform="rotate(0,227.5,271.5)"/><path d="M 222 310v 11h 11v -5.5a 5.5 5.5, 0, 0, 0, -5.5 -5.5" transform="rotate(-90,227.5,315.5)"/><path d="M 222 321v 11h 5.5a 5.5 5.5, 0, 0, 0, 0 -11" transform="rotate(90,227.5,326.5)"/><rect x="222" y="398" width="11" height="11" transform="rotate(0,227.5,403.5)"/><rect x="222" y="420" width="11" height="11" transform="rotate(0,227.5,425.5)"/><path d="M 222 431v 11h 11v -5.5a 5.5 5.5, 0, 0, 0, -5.5 -5.5" transform="rotate(180,227.5,436.5)"/><path d="M 222 453v 11h 5.5a 5.5 5.5, 0, 0, 0, 0 -11" transform="rotate(0,227.5,458.5)"/><path d="M 233 24v 11h 5.5a 5.5 5.5, 0, 0, 0, 0 -11" transform="rotate(-90,238.5,29.5)"/><rect x="233" y="35" width="11" height="11" transform="rotate(0,238.5,40.5)"/><rect x="233" y="46" width="11" height="11" transform="rotate(0,238.5,51.5)"/><path d="M 233 57v 11h 11v -5.5a 5.5 5.5, 0, 0, 0, -5.5 -5.5" transform="rotate(180,238.5,62.5)"/><circle cx="238.5" cy="84.5" r="5.5" transform="rotate(0,238.5,84.5)"/><rect x="233" y="134" width="11" height="11" transform="rotate(0,238.5,139.5)"/><rect x="233" y="145" width="11" height="11" transform="rotate(0,238.5,150.5)"/><path d="M 233 167v 11h 5.5a 5.5 5.5, 0, 0, 0, 0 -11" transform="rotate(180,238.5,172.5)"/><path d="M 233 211v 11h 5.5a 5.5 5.5, 0, 0, 0, 0 -11" transform="rotate(180,238.5,216.5)"/><rect x="233" y="233" width="11" height="11" transform="rotate(0,238.5,238.5)"/><path d="M 233 288v 11h 5.5a 5.5 5.5, 0, 0, 0, 0 -11" transform="rotate(180,238.5,293.5)"/><rect x="233" y="310" width="11" height="11" transform="rotate(0,238.5,315.5)"/><path d="M 233 332v 11h 5.5a 5.5 5.5, 0, 0, 0, 0 -11" transform="rotate(180,238.5,337.5)"/><circle cx="238.5" cy="381.5" r="5.5" transform="rotate(0,238.5,381.5)"/><path d="M 233 398v 11h 5.5a 5.5 5.5, 0, 0, 0, 0 -11" transform="rotate(0,238.5,403.5)"/><path d="M 233 420v 11h 11v -5.5a 5.5 5.5, 0, 0, 0, -5.5 -5.5" transform="rotate(0,238.5,425.5)"/><path d="M 233 431v 11h 11v -5.5a 5.5 5.5, 0, 0, 0, -5.5 -5.5" transform="rotate(90,238.5,436.5)"/><path d="M 244 35v 11h 5.5a 5.5 5.5, 0, 0, 0, 0 -11" transform="rotate(0,249.5,40.5)"/><rect x="244" y="57" width="11" height="11" transform="rotate(0,249.5,62.5)"/><circle cx="249.5" cy="95.5" r="5.5" transform="rotate(0,249.5,95.5)"/><path d="M 244 123v 11h 11v -5.5a 5.5 5.5, 0, 0, 0, -5.5 -5.5" transform="rotate(-90,249.5,128.5)"/><rect x="244" y="134" width="11" height="11" transform="rotate(0,249.5,139.5)"/><rect x="244" y="145" width="11" height="11" transform="rotate(0,249.5,150.5)"/><rect x="244" y="156" width="11" height="11" transform="rotate(0,249.5,161.5)"/><rect x="244" y="167" width="11" height="11" transform="rotate(0,249.5,172.5)"/><rect x="244" y="178" width="11" height="11" transform="rotate(0,249.5,183.5)"/><path d="M 244 189v 11h 5.5a 5.5 5.5, 0, 0, 0, 0 -11" transform="rotate(90,249.5,194.5)"/><rect x="244" y="211" width="11" height="11" transform="rotate(0,249.5,216.5)"/><path d="M 244 233v 11h 11v -5.5a 5.5 5.5, 0, 0, 0, -5.5 -5.5" transform="rotate(0,249.5,238.5)"/><path d="M 244 244v 11h 11v -5.5a 5.5 5.5, 0, 0, 0, -5.5 -5.5" transform="rotate(180,249.5,249.5)"/><circle cx="249.5" cy="271.5" r="5.5" transform="rotate(0,249.5,271.5)"/><path d="M 244 288v 11h 11v -5.5a 5.5 5.5, 0, 0, 0, -5.5 -5.5" transform="rotate(0,249.5,293.5)"/><rect x="244" y="299" width="11" height="11" transform="rotate(0,249.5,304.5)"/><rect x="244" y="310" width="11" height="11" transform="rotate(0,249.5,315.5)"/><rect x="244" y="332" width="11" height="11" transform="rotate(0,249.5,337.5)"/><path d="M 244 343v 11h 11v -5.5a 5.5 5.5, 0, 0, 0, -5.5 -5.5" transform="rotate(180,249.5,348.5)"/><circle cx="249.5" cy="414.5" r="5.5" transform="rotate(0,249.5,414.5)"/><circle cx="249.5" cy="447.5" r="5.5" transform="rotate(0,249.5,447.5)"/><path d="M 255 24v 11h 5.5a 5.5 5.5, 0, 0, 0, 0 -11" transform="rotate(180,260.5,29.5)"/><path d="M 255 57v 11h 5.5a 5.5 5.5, 0, 0, 0, 0 -11" transform="rotate(0,260.5,62.5)"/><path d="M 255 79v 11h 5.5a 5.5 5.5, 0, 0, 0, 0 -11" transform="rotate(180,260.5,84.5)"/><path d="M 255 112v 11h 11v -5.5a 5.5 5.5, 0, 0, 0, -5.5 -5.5" transform="rotate(-90,260.5,117.5)"/><rect x="255" y="123" width="11" height="11" transform="rotate(0,260.5,128.5)"/><rect x="255" y="134" width="11" height="11" transform="rotate(0,260.5,139.5)"/><rect x="255" y="145" width="11" height="11" transform="rotate(0,260.5,150.5)"/><rect x="255" y="156" width="11" height="11" transform="rotate(0,260.5,161.5)"/><rect x="255" y="167" width="11" height="11" transform="rotate(0,260.5,172.5)"/><path d="M 255 200v 11h 11v -5.5a 5.5 5.5, 0, 0, 0, -5.5 -5.5" transform="rotate(-90,260.5,205.5)"/><path d="M 255 211v 11h 11v -5.5a 5.5 5.5, 0, 0, 0, -5.5 -5.5" transform="rotate(90,260.5,216.5)"/><path d="M 255 244v 11h 5.5a 5.5 5.5, 0, 0, 0, 0 -11" transform="rotate(0,260.5,249.5)"/><circle cx="260.5" cy="282.5" r="5.5" transform="rotate(0,260.5,282.5)"/><rect x="255" y="299" width="11" height="11" transform="rotate(0,260.5,304.5)"/><rect x="255" y="310" width="11" height="11" transform="rotate(0,260.5,315.5)"/><rect x="255" y="332" width="11" height="11" transform="rotate(0,260.5,337.5)"/><rect x="255" y="343" width="11" height="11" transform="rotate(0,260.5,348.5)"/><rect x="255" y="354" width="11" height="11" transform="rotate(0,260.5,359.5)"/><rect x="255" y="365" width="11" height="11" transform="rotate(0,260.5,370.5)"/><path d="M 255 376v 11h 5.5a 5.5 5.5, 0, 0, 0, 0 -11" transform="rotate(90,260.5,381.5)"/><path d="M 255 398v 11h 5.5a 5.5 5.5, 0, 0, 0, 0 -11" transform="rotate(180,260.5,403.5)"/><path d="M 255 420v 11h 11v -5.5a 5.5 5.5, 0, 0, 0, -5.5 -5.5" transform="rotate(-90,260.5,425.5)"/><path d="M 255 431v 11h 11v -5.5a 5.5 5.5, 0, 0, 0, -5.5 -5.5" transform="rotate(180,260.5,436.5)"/><path d="M 255 453v 11h 5.5a 5.5 5.5, 0, 0, 0, 0 -11" transform="rotate(-90,260.5,458.5)"/><path d="M 255 464v 11h 5.5a 5.5 5.5, 0, 0, 0, 0 -11" transform="rotate(90,260.5,469.5)"/><path d="M 266 24v 11h 5.5a 5.5 5.5, 0, 0, 0, 0 -11" transform="rotate(0,271.5,29.5)"/><path d="M 266 68v 11h 5.5a 5.5 5.5, 0, 0, 0, 0 -11" transform="rotate(-90,271.5,73.5)"/><rect x="266" y="79" width="11" height="11" transform="rotate(0,271.5,84.5)"/><rect x="266" y="90" width="11" height="11" transform="rotate(0,271.5,95.5)"/><rect x="266" y="101" width="11" height="11" transform="rotate(0,271.5,106.5)"/><path d="M 266 112v 11h 11v -5.5a 5.5 5.5, 0, 0, 0, -5.5 -5.5" transform="rotate(90,271.5,117.5)"/><path d="M 266 167v 11h 11v -5.5a 5.5 5.5, 0, 0, 0, -5.5 -5.5" transform="rotate(0,271.5,172.5)"/><path d="M 266 178v 11h 11v -5.5a 5.5 5.5, 0, 0, 0, -5.5 -5.5" transform="rotate(180,271.5,183.5)"/><rect x="266" y="200" width="11" height="11" transform="rotate(0,271.5,205.5)"/><path d="M 266 222v 11h 11v -5.5a 5.5 5.5, 0, 0, 0, -5.5 -5.5" transform="rotate(-90,271.5,227.5)"/><path d="M 266 233v 11h 11v -5.5a 5.5 5.5, 0, 0, 0, -5.5 -5.5" transform="rotate(180,271.5,238.5)"/><circle cx="271.5" cy="260.5" r="5.5" transform="rotate(0,271.5,260.5)"/><path d="M 266 288v 11h 5.5a 5.5 5.5, 0, 0, 0, 0 -11" transform="rotate(-90,271.5,293.5)"/><rect x="266" y="299" width="11" height="11" transform="rotate(0,271.5,304.5)"/><rect x="266" y="310" width="11" height="11" transform="rotate(0,271.5,315.5)"/><rect x="266" y="321" width="11" height="11" transform="rotate(0,271.5,326.5)"/><path d="M 266 332v 11h 11v -5.5a 5.5 5.5, 0, 0, 0, -5.5 -5.5" transform="rotate(90,271.5,337.5)"/><rect x="266" y="398" width="11" height="11" transform="rotate(0,271.5,403.5)"/><rect x="266" y="420" width="11" height="11" transform="rotate(0,271.5,425.5)"/><rect x="266" y="431" width="11" height="11" transform="rotate(0,271.5,436.5)"/><path d="M 277 46v 11h 5.5a 5.5 5.5, 0, 0, 0, 0 -11" transform="rotate(180,282.5,51.5)"/><rect x="277" y="79" width="11" height="11" transform="rotate(0,282.5,84.5)"/><path d="M 277 134v 11h 5.5a 5.5 5.5, 0, 0, 0, 0 -11" transform="rotate(-90,282.5,139.5)"/><path d="M 277 145v 11h 11v -5.5a 5.5 5.5, 0, 0, 0, -5.5 -5.5" transform="rotate(180,282.5,150.5)"/><path d="M 277 178v 11h 11v -5.5a 5.5 5.5, 0, 0, 0, -5.5 -5.5" transform="rotate(0,282.5,183.5)"/><rect x="277" y="189" width="11" height="11" transform="rotate(0,282.5,194.5)"/><rect x="277" y="200" width="11" height="11" transform="rotate(0,282.5,205.5)"/><path d="M 277 222v 11h 11v -5.5a 5.5 5.5, 0, 0, 0, -5.5 -5.5" transform="rotate(0,282.5,227.5)"/><rect x="277" y="233" width="11" height="11" transform="rotate(0,282.5,238.5)"/><path d="M 277 244v 11h 5.5a 5.5 5.5, 0, 0, 0, 0 -11" transform="rotate(90,282.5,249.5)"/><rect x="277" y="310" width="11" height="11" transform="rotate(0,282.5,315.5)"/><rect x="277" y="321" width="11" height="11" transform="rotate(0,282.5,326.5)"/><circle cx="282.5" cy="359.5" r="5.5" transform="rotate(0,282.5,359.5)"/><circle cx="282.5" cy="381.5" r="5.5" transform="rotate(0,282.5,381.5)"/><path d="M 277 398v 11h 11v -5.5a 5.5 5.5, 0, 0, 0, -5.5 -5.5" transform="rotate(0,282.5,403.5)"/><rect x="277" y="409" width="11" height="11" transform="rotate(0,282.5,414.5)"/><rect x="277" y="420" width="11" height="11" transform="rotate(0,282.5,425.5)"/><rect x="277" y="431" width="11" height="11" transform="rotate(0,282.5,436.5)"/><path d="M 277 453v 11h 11v -5.5a 5.5 5.5, 0, 0, 0, -5.5 -5.5" transform="rotate(-90,282.5,458.5)"/><path d="M 277 464v 11h 11v -5.5a 5.5 5.5, 0, 0, 0, -5.5 -5.5" transform="rotate(180,282.5,469.5)"/><circle cx="293.5" cy="29.5" r="5.5" transform="rotate(0,293.5,29.5)"/><path d="M 288 46v 11h 5.5a 5.5 5.5, 0, 0, 0, 0 -11" transform="rotate(0,293.5,51.5)"/><path d="M 288 79v 11h 11v -5.5a 5.5 5.5, 0, 0, 0, -5.5 -5.5" transform="rotate(0,293.5,84.5)"/><rect x="288" y="90" width="11" height="11" transform="rotate(0,293.5,95.5)"/><path d="M 288 101v 11h 11v -5.5a 5.5 5.5, 0, 0, 0, -5.5 -5.5" transform="rotate(180,293.5,106.5)"/><rect x="288" y="145" width="11" height="11" transform="rotate(0,293.5,150.5)"/><path d="M 288 156v 11h 5.5a 5.5 5.5, 0, 0, 0, 0 -11" transform="rotate(90,293.5,161.5)"/><path d="M 288 189v 11h 11v -5.5a 5.5 5.5, 0, 0, 0, -5.5 -5.5" transform="rotate(0,293.5,194.5)"/><path d="M 288 200v 11h 11v -5.5a 5.5 5.5, 0, 0, 0, -5.5 -5.5" transform="rotate(90,293.5,205.5)"/><rect x="288" y="233" width="11" height="11" transform="rotate(0,293.5,238.5)"/><path d="M 288 288v 11h 5.5a 5.5 5.5, 0, 0, 0, 0 -11" transform="rotate(-90,293.5,293.5)"/><rect x="288" y="299" width="11" height="11" transform="rotate(0,293.5,304.5)"/><rect x="288" y="310" width="11" height="11" transform="rotate(0,293.5,315.5)"/><path d="M 288 321v 11h 11v -5.5a 5.5 5.5, 0, 0, 0, -5.5 -5.5" transform="rotate(90,293.5,326.5)"/><circle cx="293.5" cy="348.5" r="5.5" transform="rotate(0,293.5,348.5)"/><rect x="288" y="409" width="11" height="11" transform="rotate(0,293.5,414.5)"/><rect x="288" y="431" width="11" height="11" transform="rotate(0,293.5,436.5)"/><rect x="288" y="442" width="11" height="11" transform="rotate(0,293.5,447.5)"/><rect x="288" y="453" width="11" height="11" transform="rotate(0,293.5,458.5)"/><rect x="288" y="464" width="11" height="11" transform="rotate(0,293.5,469.5)"/><circle cx="304.5" cy="40.5" r="5.5" transform="rotate(0,304.5,40.5)"/><path d="M 299 68v 11h 5.5a 5.5 5.5, 0, 0, 0, 0 -11" transform="rotate(180,304.5,73.5)"/><rect x="299" y="101" width="11" height="11" transform="rotate(0,304.5,106.5)"/><circle cx="304.5" cy="128.5" r="5.5" transform="rotate(0,304.5,128.5)"/><path d="M 299 145v 11h 5.5a 5.5 5.5, 0, 0, 0, 0 -11" transform="rotate(0,304.5,150.5)"/><circle cx="304.5" cy="216.5" r="5.5" transform="rotate(0,304.5,216.5)"/><path d="M 299 233v 11h 11v -5.5a 5.5 5.5, 0, 0, 0, -5.5 -5.5" transform="rotate(0,304.5,238.5)"/><path d="M 299 244v 11h 11v -5.5a 5.5 5.5, 0, 0, 0, -5.5 -5.5" transform="rotate(180,304.5,249.5)"/><path d="M 299 266v 11h 11v -5.5a 5.5 5.5, 0, 0, 0, -5.5 -5.5" transform="rotate(-90,304.5,271.5)"/><path d="M 299 277v 11h 5.5a 5.5 5.5, 0, 0, 0, 0 -11" transform="rotate(90,304.5,282.5)"/><path d="M 299 354v 11h 5.5a 5.5 5.5, 0, 0, 0, 0 -11" transform="rotate(-90,304.5,359.5)"/><path d="M 299 365v 11h 5.5a 5.5 5.5, 0, 0, 0, 0 -11" transform="rotate(90,304.5,370.5)"/><path d="M 299 387v 11h 11v -5.5a 5.5 5.5, 0, 0, 0, -5.5 -5.5" transform="rotate(-90,304.5,392.5)"/><rect x="299" y="398" width="11" height="11" transform="rotate(0,304.5,403.5)"/><rect x="299" y="409" width="11" height="11" transform="rotate(0,304.5,414.5)"/><rect x="299" y="420" width="11" height="11" transform="rotate(0,304.5,425.5)"/><path d="M 299 431v 11h 11v -5.5a 5.5 5.5, 0, 0, 0, -5.5 -5.5" transform="rotate(90,304.5,436.5)"/><path d="M 299 453v 11h 11v -5.5a 5.5 5.5, 0, 0, 0, -5.5 -5.5" transform="rotate(0,304.5,458.5)"/><path d="M 299 464v 11h 11v -5.5a 5.5 5.5, 0, 0, 0, -5.5 -5.5" transform="rotate(90,304.5,469.5)"/><path d="M 310 24v 11h 5.5a 5.5 5.5, 0, 0, 0, 0 -11" transform="rotate(180,315.5,29.5)"/><path d="M 310 46v 11h 5.5a 5.5 5.5, 0, 0, 0, 0 -11" transform="rotate(180,315.5,51.5)"/><rect x="310" y="68" width="11" height="11" transform="rotate(0,315.5,73.5)"/><rect x="310" y="79" width="11" height="11" transform="rotate(0,315.5,84.5)"/><rect x="310" y="90" width="11" height="11" transform="rotate(0,315.5,95.5)"/><path d="M 310 101v 11h 11v -5.5a 5.5 5.5, 0, 0, 0, -5.5 -5.5" transform="rotate(90,315.5,106.5)"/><path d="M 310 167v 11h 5.5a 5.5 5.5, 0, 0, 0, 0 -11" transform="rotate(180,315.5,172.5)"/><path d="M 310 189v 11h 5.5a 5.5 5.5, 0, 0, 0, 0 -11" transform="rotate(180,315.5,194.5)"/><path d="M 310 222v 11h 5.5a 5.5 5.5, 0, 0, 0, 0 -11" transform="rotate(180,315.5,227.5)"/><path d="M 310 244v 11h 11v -5.5a 5.5 5.5, 0, 0, 0, -5.5 -5.5" transform="rotate(0,315.5,249.5)"/><rect x="310" y="255" width="11" height="11" transform="rotate(0,315.5,260.5)"/><path d="M 310 266v 11h 11v -5.5a 5.5 5.5, 0, 0, 0, -5.5 -5.5" transform="rotate(90,315.5,271.5)"/><circle cx="315.5" cy="304.5" r="5.5" transform="rotate(0,315.5,304.5)"/><path d="M 310 321v 11h 11v -5.5a 5.5 5.5, 0, 0, 0, -5.5 -5.5" transform="rotate(-90,315.5,326.5)"/><path d="M 310 332v 11h 5.5a 5.5 5.5, 0, 0, 0, 0 -11" transform="rotate(90,315.5,337.5)"/><path d="M 310 376v 11h 11v -5.5a 5.5 5.5, 0, 0, 0, -5.5 -5.5" transform="rotate(-90,315.5,381.5)"/><rect x="310" y="387" width="11" height="11" transform="rotate(0,315.5,392.5)"/><path d="M 310 398v 11h 11v -5.5a 5.5 5.5, 0, 0, 0, -5.5 -5.5" transform="rotate(90,315.5,403.5)"/><path d="M 310 420v 11h 5.5a 5.5 5.5, 0, 0, 0, 0 -11" transform="rotate(0,315.5,425.5)"/><path d="M 321 24v 11h 5.5a 5.5 5.5, 0, 0, 0, 0 -11" transform="rotate(0,326.5,29.5)"/><rect x="321" y="46" width="11" height="11" transform="rotate(0,326.5,51.5)"/><rect x="321" y="57" width="11" height="11" transform="rotate(0,326.5,62.5)"/><path d="M 321 68v 11h 11v -5.5a 5.5 5.5, 0, 0, 0, -5.5 -5.5" transform="rotate(90,326.5,73.5)"/><path d="M 321 123v 11h 11v -5.5a 5.5 5.5, 0, 0, 0, -5.5 -5.5" transform="rotate(-90,326.5,128.5)"/><path d="M 321 134v 11h 11v -5.5a 5.5 5.5, 0, 0, 0, -5.5 -5.5" transform="rotate(180,326.5,139.5)"/><path d="M 321 156v 11h 11v -5.5a 5.5 5.5, 0, 0, 0, -5.5 -5.5" transform="rotate(-90,326.5,161.5)"/><path d="M 321 167v 11h 11v -5.5a 5.5 5.5, 0, 0, 0, -5.5 -5.5" transform="rotate(90,326.5,172.5)"/><rect x="321" y="189" width="11" height="11" transform="rotate(0,326.5,194.5)"/><path d="M 321 222v 11h 11v -5.5a 5.5 5.5, 0, 0, 0, -5.5 -5.5" transform="rotate(0,326.5,227.5)"/><path d="M 321 233v 11h 5.5a 5.5 5.5, 0, 0, 0, 0 -11" transform="rotate(90,326.5,238.5)"/><circle cx="326.5" cy="282.5" r="5.5" transform="rotate(0,326.5,282.5)"/><path d="M 321 310v 11h 5.5a 5.5 5.5, 0, 0, 0, 0 -11" transform="rotate(-90,326.5,315.5)"/><path d="M 321 321v 11h 11v -5.5a 5.5 5.5, 0, 0, 0, -5.5 -5.5" transform="rotate(90,326.5,326.5)"/><path d="M 321 365v 11h 11v -5.5a 5.5 5.5, 0, 0, 0, -5.5 -5.5" transform="rotate(-90,326.5,370.5)"/><rect x="321" y="376" width="11" height="11" transform="rotate(0,326.5,381.5)"/><circle cx="326.5" cy="414.5" r="5.5" transform="rotate(0,326.5,414.5)"/><path d="M 321 431v 11h 5.5a 5.5 5.5, 0, 0, 0, 0 -11" transform="rotate(180,326.5,436.5)"/><path d="M 321 453v 11h 5.5a 5.5 5.5, 0, 0, 0, 0 -11" transform="rotate(-90,326.5,458.5)"/><path d="M 321 464v 11h 11v -5.5a 5.5 5.5, 0, 0, 0, -5.5 -5.5" transform="rotate(180,326.5,469.5)"/><path d="M 332 35v 11h 11v -5.5a 5.5 5.5, 0, 0, 0, -5.5 -5.5" transform="rotate(-90,337.5,40.5)"/><rect x="332" y="46" width="11" height="11" transform="rotate(0,337.5,51.5)"/><rect x="332" y="57" width="11" height="11" transform="rotate(0,337.5,62.5)"/><path d="M 332 79v 11h 5.5a 5.5 5.5, 0, 0, 0, 0 -11" transform="rotate(-90,337.5,84.5)"/><rect x="332" y="90" width="11" height="11" transform="rotate(0,337.5,95.5)"/><rect x="332" y="101" width="11" height="11" transform="rotate(0,337.5,106.5)"/><rect x="332" y="112" width="11" height="11" transform="rotate(0,337.5,117.5)"/><rect x="332" y="123" width="11" height="11" transform="rotate(0,337.5,128.5)"/><rect x="332" y="134" width="11" height="11" transform="rotate(0,337.5,139.5)"/><rect x="332" y="145" width="11" height="11" transform="rotate(0,337.5,150.5)"/><rect x="332" y="156" width="11" height="11" transform="rotate(0,337.5,161.5)"/><path d="M 332 178v 11h 5.5a 5.5 5.5, 0, 0, 0, 0 -11" transform="rotate(-90,337.5,183.5)"/><path d="M 332 189v 11h 11v -5.5a 5.5 5.5, 0, 0, 0, -5.5 -5.5" transform="rotate(90,337.5,194.5)"/><circle cx="337.5" cy="260.5" r="5.5" transform="rotate(0,337.5,260.5)"/><circle cx="337.5" cy="304.5" r="5.5" transform="rotate(0,337.5,304.5)"/><path d="M 332 343v 11h 11v -5.5a 5.5 5.5, 0, 0, 0, -5.5 -5.5" transform="rotate(-90,337.5,348.5)"/><rect x="332" y="354" width="11" height="11" transform="rotate(0,337.5,359.5)"/><rect x="332" y="365" width="11" height="11" transform="rotate(0,337.5,370.5)"/><rect x="332" y="376" width="11" height="11" transform="rotate(0,337.5,381.5)"/><path d="M 332 387v 11h 11v -5.5a 5.5 5.5, 0, 0, 0, -5.5 -5.5" transform="rotate(180,337.5,392.5)"/><path d="M 332 431v 11h 11v -5.5a 5.5 5.5, 0, 0, 0, -5.5 -5.5" transform="rotate(0,337.5,436.5)"/><path d="M 332 442v 11h 5.5a 5.5 5.5, 0, 0, 0, 0 -11" transform="rotate(90,337.5,447.5)"/><rect x="332" y="464" width="11" height="11" transform="rotate(0,337.5,469.5)"/><path d="M 343 24v 11h 11v -5.5a 5.5 5.5, 0, 0, 0, -5.5 -5.5" transform="rotate(-90,348.5,29.5)"/><path d="M 343 35v 11h 11v -5.5a 5.5 5.5, 0, 0, 0, -5.5 -5.5" transform="rotate(90,348.5,40.5)"/><path d="M 343 57v 11h 11v -5.5a 5.5 5.5, 0, 0, 0, -5.5 -5.5" transform="rotate(0,348.5,62.5)"/><path d="M 343 68v 11h 5.5a 5.5 5.5, 0, 0, 0, 0 -11" transform="rotate(90,348.5,73.5)"/><rect x="343" y="101" width="11" height="11" transform="rotate(0,348.5,106.5)"/><rect x="343" y="112" width="11" height="11" transform="rotate(0,348.5,117.5)"/><path d="M 343 134v 11h 5.5a 5.5 5.5, 0, 0, 0, 0 -11" transform="rotate(0,348.5,139.5)"/><rect x="343" y="156" width="11" height="11" transform="rotate(0,348.5,161.5)"/><path d="M 343 167v 11h 5.5a 5.5 5.5, 0, 0, 0, 0 -11" transform="rotate(90,348.5,172.5)"/><circle cx="348.5" cy="227.5" r="5.5" transform="rotate(0,348.5,227.5)"/><circle cx="348.5" cy="249.5" r="5.5" transform="rotate(0,348.5,249.5)"/><circle cx="348.5" cy="282.5" r="5.5" transform="rotate(0,348.5,282.5)"/><path d="M 343 332v 11h 5.5a 5.5 5.5, 0, 0, 0, 0 -11" transform="rotate(-90,348.5,337.5)"/><rect x="343" y="343" width="11" height="11" transform="rotate(0,348.5,348.5)"/><rect x="343" y="354" width="11" height="11" transform="rotate(0,348.5,359.5)"/><rect x="343" y="365" width="11" height="11" transform="rotate(0,348.5,370.5)"/><rect x="343" y="376" width="11" height="11" transform="rotate(0,348.5,381.5)"/><rect x="343" y="387" width="11" height="11" transform="rotate(0,348.5,392.5)"/><rect x="343" y="398" width="11" height="11" transform="rotate(0,348.5,403.5)"/><rect x="343" y="409" width="11" height="11" transform="rotate(0,348.5,414.5)"/><path d="M 343 420v 11h 5.5a 5.5 5.5, 0, 0, 0, 0 -11" transform="rotate(90,348.5,425.5)"/><path d="M 343 464v 11h 5.5a 5.5 5.5, 0, 0, 0, 0 -11" transform="rotate(0,348.5,469.5)"/><rect x="354" y="24" width="11" height="11" transform="rotate(0,359.5,29.5)"/><path d="M 354 79v 11h 5.5a 5.5 5.5, 0, 0, 0, 0 -11" transform="rotate(-90,359.5,84.5)"/><rect x="354" y="90" width="11" height="11" transform="rotate(0,359.5,95.5)"/><rect x="354" y="101" width="11" height="11" transform="rotate(0,359.5,106.5)"/><rect x="354" y="112" width="11" height="11" transform="rotate(0,359.5,117.5)"/><path d="M 354 123v 11h 11v -5.5a 5.5 5.5, 0, 0, 0, -5.5 -5.5" transform="rotate(180,359.5,128.5)"/><rect x="354" y="156" width="11" height="11" transform="rotate(0,359.5,161.5)"/><circle cx="359.5" cy="205.5" r="5.5" transform="rotate(0,359.5,205.5)"/><path d="M 354 255v 11h 5.5a 5.5 5.5, 0, 0, 0, 0 -11" transform="rotate(-90,359.5,260.5)"/><path d="M 354 266v 11h 5.5a 5.5 5.5, 0, 0, 0, 0 -11" transform="rotate(90,359.5,271.5)"/><path d="M 354 310v 11h 11v -5.5a 5.5 5.5, 0, 0, 0, -5.5 -5.5" transform="rotate(-90,359.5,315.5)"/><path d="M 354 321v 11h 11v -5.5a 5.5 5.5, 0, 0, 0, -5.5 -5.5" transform="rotate(180,359.5,326.5)"/><path d="M 354 343v 11h 5.5a 5.5 5.5, 0, 0, 0, 0 -11" transform="rotate(0,359.5,348.5)"/><rect x="354" y="387" width="11" height="11" transform="rotate(0,359.5,392.5)"/><rect x="354" y="398" width="11" height="11" transform="rotate(0,359.5,403.5)"/><rect x="354" y="409" width="11" height="11" transform="rotate(0,359.5,414.5)"/><path d="M 354 431v 11h 11v -5.5a 5.5 5.5, 0, 0, 0, -5.5 -5.5" transform="rotate(-90,359.5,436.5)"/><path d="M 354 442v 11h 5.5a 5.5 5.5, 0, 0, 0, 0 -11" transform="rotate(90,359.5,447.5)"/><rect x="365" y="24" width="11" height="11" transform="rotate(0,370.5,29.5)"/><path d="M 365 46v 11h 11v -5.5a 5.5 5.5, 0, 0, 0, -5.5 -5.5" transform="rotate(-90,370.5,51.5)"/><path d="M 365 57v 11h 5.5a 5.5 5.5, 0, 0, 0, 0 -11" transform="rotate(90,370.5,62.5)"/><path d="M 365 101v 11h 11v -5.5a 5.5 5.5, 0, 0, 0, -5.5 -5.5" transform="rotate(0,370.5,106.5)"/><rect x="365" y="112" width="11" height="11" transform="rotate(0,370.5,117.5)"/><rect x="365" y="123" width="11" height="11" transform="rotate(0,370.5,128.5)"/><path d="M 365 145v 11h 11v -5.5a 5.5 5.5, 0, 0, 0, -5.5 -5.5" transform="rotate(-90,370.5,150.5)"/><rect x="365" y="156" width="11" height="11" transform="rotate(0,370.5,161.5)"/><path d="M 365 167v 11h 5.5a 5.5 5.5, 0, 0, 0, 0 -11" transform="rotate(90,370.5,172.5)"/><path d="M 365 222v 11h 11v -5.5a 5.5 5.5, 0, 0, 0, -5.5 -5.5" transform="rotate(-90,370.5,227.5)"/><rect x="365" y="233" width="11" height="11" transform="rotate(0,370.5,238.5)"/><path d="M 365 244v 11h 5.5a 5.5 5.5, 0, 0, 0, 0 -11" transform="rotate(90,370.5,249.5)"/><rect x="365" y="310" width="11" height="11" transform="rotate(0,370.5,315.5)"/><rect x="365" y="321" width="11" height="11" transform="rotate(0,370.5,326.5)"/><path d="M 365 332v 11h 5.5a 5.5 5.5, 0, 0, 0, 0 -11" transform="rotate(90,370.5,337.5)"/><path d="M 365 365v 11h 11v -5.5a 5.5 5.5, 0, 0, 0, -5.5 -5.5" transform="rotate(-90,370.5,370.5)"/><rect x="365" y="376" width="11" height="11" transform="rotate(0,370.5,381.5)"/><rect x="365" y="387" width="11" height="11" transform="rotate(0,370.5,392.5)"/><rect x="365" y="398" width="11" height="11" transform="rotate(0,370.5,403.5)"/><rect x="365" y="409" width="11" height="11" transform="rotate(0,370.5,414.5)"/><path d="M 365 431v 11h 5.5a 5.5 5.5, 0, 0, 0, 0 -11" transform="rotate(0,370.5,436.5)"/><path d="M 376 24v 11h 5.5a 5.5 5.5, 0, 0, 0, 0 -11" transform="rotate(0,381.5,29.5)"/><path d="M 376 46v 11h 5.5a 5.5 5.5, 0, 0, 0, 0 -11" transform="rotate(0,381.5,51.5)"/><circle cx="381.5" cy="95.5" r="5.5" transform="rotate(0,381.5,95.5)"/><rect x="376" y="112" width="11" height="11" transform="rotate(0,381.5,117.5)"/><rect x="376" y="123" width="11" height="11" transform="rotate(0,381.5,128.5)"/><rect x="376" y="134" width="11" height="11" transform="rotate(0,381.5,139.5)"/><rect x="376" y="145" width="11" height="11" transform="rotate(0,381.5,150.5)"/><path d="M 376 156v 11h 11v -5.5a 5.5 5.5, 0, 0, 0, -5.5 -5.5" transform="rotate(90,381.5,161.5)"/><path d="M 376 200v 11h 5.5a 5.5 5.5, 0, 0, 0, 0 -11" transform="rotate(-90,381.5,205.5)"/><rect x="376" y="211" width="11" height="11" transform="rotate(0,381.5,216.5)"/><path d="M 376 222v 11h 11v -5.5a 5.5 5.5, 0, 0, 0, -5.5 -5.5" transform="rotate(90,381.5,227.5)"/><path d="M 376 255v 11h 5.5a 5.5 5.5, 0, 0, 0, 0 -11" transform="rotate(180,381.5,260.5)"/><path d="M 376 288v 11h 5.5a 5.5 5.5, 0, 0, 0, 0 -11" transform="rotate(-90,381.5,293.5)"/><rect x="376" y="299" width="11" height="11" transform="rotate(0,381.5,304.5)"/><rect x="376" y="310" width="11" height="11" transform="rotate(0,381.5,315.5)"/><path d="M 376 321v 11h 11v -5.5a 5.5 5.5, 0, 0, 0, -5.5 -5.5" transform="rotate(90,381.5,326.5)"/><circle cx="381.5" cy="348.5" r="5.5" transform="rotate(0,381.5,348.5)"/><path d="M 376 365v 11h 11v -5.5a 5.5 5.5, 0, 0, 0, -5.5 -5.5" transform="rotate(0,381.5,370.5)"/><rect x="376" y="376" width="11" height="11" transform="rotate(0,381.5,381.5)"/><rect x="376" y="387" width="11" height="11" transform="rotate(0,381.5,392.5)"/><rect x="376" y="398" width="11" height="11" transform="rotate(0,381.5,403.5)"/><rect x="376" y="409" width="11" height="11" transform="rotate(0,381.5,414.5)"/><path d="M 376 420v 11h 11v -5.5a 5.5 5.5, 0, 0, 0, -5.5 -5.5" transform="rotate(180,381.5,425.5)"/><path d="M 376 442v 11h 5.5a 5.5 5.5, 0, 0, 0, 0 -11" transform="rotate(180,381.5,447.5)"/><rect x="387" y="112" width="11" height="11" transform="rotate(0,392.5,117.5)"/><path d="M 387 134v 11h 11v -5.5a 5.5 5.5, 0, 0, 0, -5.5 -5.5" transform="rotate(0,392.5,139.5)"/><path d="M 387 145v 11h 11v -5.5a 5.5 5.5, 0, 0, 0, -5.5 -5.5" transform="rotate(90,392.5,150.5)"/><path d="M 387 167v 11h 5.5a 5.5 5.5, 0, 0, 0, 0 -11" transform="rotate(-90,392.5,172.5)"/><path d="M 387 178v 11h 11v -5.5a 5.5 5.5, 0, 0, 0, -5.5 -5.5" transform="rotate(180,392.5,183.5)"/><path d="M 387 233v 11h 5.5a 5.5 5.5, 0, 0, 0, 0 -11" transform="rotate(-90,392.5,238.5)"/><rect x="387" y="244" width="11" height="11" transform="rotate(0,392.5,249.5)"/><rect x="387" y="255" width="11" height="11" transform="rotate(0,392.5,260.5)"/><circle cx="392.5" cy="282.5" r="5.5" transform="rotate(0,392.5,282.5)"/><rect x="387" y="310" width="11" height="11" transform="rotate(0,392.5,315.5)"/><circle cx="392.5" cy="359.5" r="5.5" transform="rotate(0,392.5,359.5)"/><rect x="387" y="376" width="11" height="11" transform="rotate(0,392.5,381.5)"/><rect x="387" y="420" width="11" height="11" transform="rotate(0,392.5,425.5)"/><path d="M 387 442v 11h 11v -5.5a 5.5 5.5, 0, 0, 0, -5.5 -5.5" transform="rotate(0,392.5,447.5)"/><rect x="387" y="453" width="11" height="11" transform="rotate(0,392.5,458.5)"/><path d="M 387 464v 11h 5.5a 5.5 5.5, 0, 0, 0, 0 -11" transform="rotate(90,392.5,469.5)"/><rect x="398" y="112" width="11" height="11" transform="rotate(0,403.5,117.5)"/><path d="M 398 123v 11h 11v -5.5a 5.5 5.5, 0, 0, 0, -5.5 -5.5" transform="rotate(180,403.5,128.5)"/><path d="M 398 156v 11h 5.5a 5.5 5.5, 0, 0, 0, 0 -11" transform="rotate(180,403.5,161.5)"/><path d="M 398 178v 11h 11v -5.5a 5.5 5.5, 0, 0, 0, -5.5 -5.5" transform="rotate(0,403.5,183.5)"/><path d="M 398 189v 11h 11v -5.5a 5.5 5.5, 0, 0, 0, -5.5 -5.5" transform="rotate(180,403.5,194.5)"/><path d="M 398 211v 11h 5.5a 5.5 5.5, 0, 0, 0, 0 -11" transform="rotate(-90,403.5,216.5)"/><path d="M 398 222v 11h 11v -5.5a 5.5 5.5, 0, 0, 0, -5.5 -5.5" transform="rotate(180,403.5,227.5)"/><rect x="398" y="244" width="11" height="11" transform="rotate(0,403.5,249.5)"/><rect x="398" y="255" width="11" height="11" transform="rotate(0,403.5,260.5)"/><path d="M 398 288v 11h 5.5a 5.5 5.5, 0, 0, 0, 0 -11" transform="rotate(180,403.5,293.5)"/><path d="M 398 310v 11h 11v -5.5a 5.5 5.5, 0, 0, 0, -5.5 -5.5" transform="rotate(0,403.5,315.5)"/><rect x="398" y="321" width="11" height="11" transform="rotate(0,403.5,326.5)"/><path d="M 398 332v 11h 11v -5.5a 5.5 5.5, 0, 0, 0, -5.5 -5.5" transform="rotate(180,403.5,337.5)"/><path d="M 398 365v 11h 11v -5.5a 5.5 5.5, 0, 0, 0, -5.5 -5.5" transform="rotate(-90,403.5,370.5)"/><rect x="398" y="376" width="11" height="11" transform="rotate(0,403.5,381.5)"/><circle cx="403.5" cy="403.5" r="5.5" transform="rotate(0,403.5,403.5)"/><rect x="398" y="420" width="11" height="11" transform="rotate(0,403.5,425.5)"/><path d="M 398 431v 11h 11v -5.5a 5.5 5.5, 0, 0, 0, -5.5 -5.5" transform="rotate(180,403.5,436.5)"/><rect x="409" y="112" width="11" height="11" transform="rotate(0,414.5,117.5)"/><rect x="409" y="123" width="11" height="11" transform="rotate(0,414.5,128.5)"/><rect x="409" y="134" width="11" height="11" transform="rotate(0,414.5,139.5)"/><rect x="409" y="145" width="11" height="11" transform="rotate(0,414.5,150.5)"/><rect x="409" y="156" width="11" height="11" transform="rotate(0,414.5,161.5)"/><path d="M 409 167v 11h 11v -5.5a 5.5 5.5, 0, 0, 0, -5.5 -5.5" transform="rotate(180,414.5,172.5)"/><path d="M 409 189v 11h 5.5a 5.5 5.5, 0, 0, 0, 0 -11" transform="rotate(0,414.5,194.5)"/><path d="M 409 222v 11h 11v -5.5a 5.5 5.5, 0, 0, 0, -5.5 -5.5" transform="rotate(0,414.5,227.5)"/><rect x="409" y="233" width="11" height="11" transform="rotate(0,414.5,238.5)"/><rect x="409" y="244" width="11" height="11" transform="rotate(0,414.5,249.5)"/><path d="M 409 255v 11h 11v -5.5a 5.5 5.5, 0, 0, 0, -5.5 -5.5" transform="rotate(90,414.5,260.5)"/><rect x="409" y="288" width="11" height="11" transform="rotate(0,414.5,293.5)"/><path d="M 409 321v 11h 11v -5.5a 5.5 5.5, 0, 0, 0, -5.5 -5.5" transform="rotate(0,414.5,326.5)"/><path d="M 409 332v 11h 11v -5.5a 5.5 5.5, 0, 0, 0, -5.5 -5.5" transform="rotate(90,414.5,337.5)"/><path d="M 409 365v 11h 11v -5.5a 5.5 5.5, 0, 0, 0, -5.5 -5.5" transform="rotate(0,414.5,370.5)"/><rect x="409" y="376" width="11" height="11" transform="rotate(0,414.5,381.5)"/><rect x="409" y="420" width="11" height="11" transform="rotate(0,414.5,425.5)"/><path d="M 409 431v 11h 11v -5.5a 5.5 5.5, 0, 0, 0, -5.5 -5.5" transform="rotate(90,414.5,436.5)"/><circle cx="414.5" cy="458.5" r="5.5" transform="rotate(0,414.5,458.5)"/><rect x="420" y="112" width="11" height="11" transform="rotate(0,425.5,117.5)"/><rect x="420" y="123" width="11" height="11" transform="rotate(0,425.5,128.5)"/><path d="M 420 134v 11h 11v -5.5a 5.5 5.5, 0, 0, 0, -5.5 -5.5" transform="rotate(90,425.5,139.5)"/><rect x="420" y="167" width="11" height="11" transform="rotate(0,425.5,172.5)"/><path d="M 420 200v 11h 5.5a 5.5 5.5, 0, 0, 0, 0 -11" transform="rotate(180,425.5,205.5)"/><path d="M 420 277v 11h 11v -5.5a 5.5 5.5, 0, 0, 0, -5.5 -5.5" transform="rotate(-90,425.5,282.5)"/><rect x="420" y="288" width="11" height="11" transform="rotate(0,425.5,293.5)"/><rect x="420" y="299" width="11" height="11" transform="rotate(0,425.5,304.5)"/><path d="M 420 310v 11h 5.5a 5.5 5.5, 0, 0, 0, 0 -11" transform="rotate(90,425.5,315.5)"/><circle cx="425.5" cy="348.5" r="5.5" transform="rotate(0,425.5,348.5)"/><path d="M 420 376v 11h 11v -5.5a 5.5 5.5, 0, 0, 0, -5.5 -5.5" transform="rotate(0,425.5,381.5)"/><rect x="420" y="387" width="11" height="11" transform="rotate(0,425.5,392.5)"/><rect x="420" y="398" width="11" height="11" transform="rotate(0,425.5,403.5)"/><rect x="420" y="409" width="11" height="11" transform="rotate(0,425.5,414.5)"/><path d="M 420 420v 11h 11v -5.5a 5.5 5.5, 0, 0, 0, -5.5 -5.5" transform="rotate(90,425.5,425.5)"/><circle cx="425.5" cy="447.5" r="5.5" transform="rotate(0,425.5,447.5)"/><circle cx="425.5" cy="469.5" r="5.5" transform="rotate(0,425.5,469.5)"/><rect x="431" y="112" width="11" height="11" transform="rotate(0,436.5,117.5)"/><rect x="431" y="123" width="11" height="11" transform="rotate(0,436.5,128.5)"/><path d="M 431 145v 11h 11v -5.5a 5.5 5.5, 0, 0, 0, -5.5 -5.5" transform="rotate(-90,436.5,150.5)"/><rect x="431" y="156" width="11" height="11" transform="rotate(0,436.5,161.5)"/><rect x="431" y="167" width="11" height="11" transform="rotate(0,436.5,172.5)"/><path d="M 431 178v 11h 5.5a 5.5 5.5, 0, 0, 0, 0 -11" transform="rotate(90,436.5,183.5)"/><rect x="431" y="200" width="11" height="11" transform="rotate(0,436.5,205.5)"/><path d="M 431 211v 11h 11v -5.5a 5.5 5.5, 0, 0, 0, -5.5 -5.5" transform="rotate(180,436.5,216.5)"/><circle cx="436.5" cy="249.5" r="5.5" transform="rotate(0,436.5,249.5)"/><path d="M 431 266v 11h 5.5a 5.5 5.5, 0, 0, 0, 0 -11" transform="rotate(-90,436.5,271.5)"/><path d="M 431 277v 11h 11v -5.5a 5.5 5.5, 0, 0, 0, -5.5 -5.5" transform="rotate(90,436.5,282.5)"/><rect x="431" y="299" width="11" height="11" transform="rotate(0,436.5,304.5)"/><path d="M 431 332v 11h 5.5a 5.5 5.5, 0, 0, 0, 0 -11" transform="rotate(180,436.5,337.5)"/><path d="M 431 354v 11h 11v -5.5a 5.5 5.5, 0, 0, 0, -5.5 -5.5" transform="rotate(-90,436.5,359.5)"/><path d="M 431 365v 11h 5.5a 5.5 5.5, 0, 0, 0, 0 -11" transform="rotate(90,436.5,370.5)"/><rect x="431" y="387" width="11" height="11" transform="rotate(0,436.5,392.5)"/><rect x="431" y="409" width="11" height="11" transform="rotate(0,436.5,414.5)"/><circle cx="436.5" cy="458.5" r="5.5" transform="rotate(0,436.5,458.5)"/><rect x="442" y="112" width="11" height="11" transform="rotate(0,447.5,117.5)"/><path d="M 442 123v 11h 11v -5.5a 5.5 5.5, 0, 0, 0, -5.5 -5.5" transform="rotate(90,447.5,128.5)"/><path d="M 442 145v 11h 5.5a 5.5 5.5, 0, 0, 0, 0 -11" transform="rotate(0,447.5,150.5)"/><path d="M 442 167v 11h 5.5a 5.5 5.5, 0, 0, 0, 0 -11" transform="rotate(0,447.5,172.5)"/><path d="M 442 189v 11h 5.5a 5.5 5.5, 0, 0, 0, 0 -11" transform="rotate(-90,447.5,194.5)"/><rect x="442" y="200" width="11" height="11" transform="rotate(0,447.5,205.5)"/><rect x="442" y="211" width="11" height="11" transform="rotate(0,447.5,216.5)"/><rect x="442" y="222" width="11" height="11" transform="rotate(0,447.5,227.5)"/><path d="M 442 233v 11h 5.5a 5.5 5.5, 0, 0, 0, 0 -11" transform="rotate(90,447.5,238.5)"/><path d="M 442 255v 11h 5.5a 5.5 5.5, 0, 0, 0, 0 -11" transform="rotate(180,447.5,260.5)"/><path d="M 442 299v 11h 11v -5.5a 5.5 5.5, 0, 0, 0, -5.5 -5.5" transform="rotate(0,447.5,304.5)"/><rect x="442" y="310" width="11" height="11" transform="rotate(0,447.5,315.5)"/><rect x="442" y="321" width="11" height="11" transform="rotate(0,447.5,326.5)"/><rect x="442" y="332" width="11" height="11" transform="rotate(0,447.5,337.5)"/><path d="M 442 354v 11h 5.5a 5.5 5.5, 0, 0, 0, 0 -11" transform="rotate(0,447.5,359.5)"/><path d="M 442 376v 11h 11v -5.5a 5.5 5.5, 0, 0, 0, -5.5 -5.5" transform="rotate(-90,447.5,381.5)"/><rect x="442" y="387" width="11" height="11" transform="rotate(0,447.5,392.5)"/><rect x="442" y="398" width="11" height="11" transform="rotate(0,447.5,403.5)"/><rect x="442" y="409" width="11" height="11" transform="rotate(0,447.5,414.5)"/><path d="M 442 420v 11h 11v -5.5a 5.5 5.5, 0, 0, 0, -5.5 -5.5" transform="rotate(180,447.5,425.5)"/><circle cx="447.5" cy="447.5" r="5.5" transform="rotate(0,447.5,447.5)"/><path d="M 453 112v 11h 5.5a 5.5 5.5, 0, 0, 0, 0 -11" transform="rotate(0,458.5,117.5)"/><circle cx="458.5" cy="139.5" r="5.5" transform="rotate(0,458.5,139.5)"/><path d="M 453 156v 11h 5.5a 5.5 5.5, 0, 0, 0, 0 -11" transform="rotate(180,458.5,161.5)"/><path d="M 453 200v 11h 11v -5.5a 5.5 5.5, 0, 0, 0, -5.5 -5.5" transform="rotate(0,458.5,205.5)"/><path d="M 453 211v 11h 11v -5.5a 5.5 5.5, 0, 0, 0, -5.5 -5.5" transform="rotate(90,458.5,216.5)"/><path d="M 453 255v 11h 11v -5.5a 5.5 5.5, 0, 0, 0, -5.5 -5.5" transform="rotate(0,458.5,260.5)"/><rect x="453" y="266" width="11" height="11" transform="rotate(0,458.5,271.5)"/><path d="M 453 277v 11h 11v -5.5a 5.5 5.5, 0, 0, 0, -5.5 -5.5" transform="rotate(180,458.5,282.5)"/><rect x="453" y="310" width="11" height="11" transform="rotate(0,458.5,315.5)"/><rect x="453" y="332" width="11" height="11" transform="rotate(0,458.5,337.5)"/><path d="M 453 365v 11h 11v -5.5a 5.5 5.5, 0, 0, 0, -5.5 -5.5" transform="rotate(-90,458.5,370.5)"/><rect x="453" y="376" width="11" height="11" transform="rotate(0,458.5,381.5)"/><path d="M 453 387v 11h 11v -5.5a 5.5 5.5, 0, 0, 0, -5.5 -5.5" transform="rotate(90,458.5,392.5)"/><rect x="453" y="420" width="11" height="11" transform="rotate(0,458.5,425.5)"/><circle cx="458.5" cy="458.5" r="5.5" transform="rotate(0,458.5,458.5)"/><circle cx="469.5" cy="128.5" r="5.5" transform="rotate(0,469.5,128.5)"/><path d="M 464 156v 11h 11v -5.5a 5.5 5.5, 0, 0, 0, -5.5 -5.5" transform="rotate(0,469.5,161.5)"/><rect x="464" y="167" width="11" height="11" transform="rotate(0,469.5,172.5)"/><rect x="464" y="178" width="11" height="11" transform="rotate(0,469.5,183.5)"/><path d="M 464 189v 11h 5.5a 5.5 5.5, 0, 0, 0, 0 -11" transform="rotate(90,469.5,194.5)"/><circle cx="469.5" cy="249.5" r="5.5" transform="rotate(0,469.5,249.5)"/><path d="M 464 277v 11h 11v -5.5a 5.5 5.5, 0, 0, 0, -5.5 -5.5" transform="rotate(0,469.5,282.5)"/><rect x="464" y="288" width="11" height="11" transform="rotate(0,469.5,293.5)"/><rect x="464" y="299" width="11" height="11" transform="rotate(0,469.5,304.5)"/><path d="M 464 310v 11h 11v -5.5a 5.5 5.5, 0, 0, 0, -5.5 -5.5" transform="rotate(90,469.5,315.5)"/><path d="M 464 332v 11h 11v -5.5a 5.5 5.5, 0, 0, 0, -5.5 -5.5" transform="rotate(0,469.5,337.5)"/><path d="M 464 343v 11h 5.5a 5.5 5.5, 0, 0, 0, 0 -11" transform="rotate(90,469.5,348.5)"/><path d="M 464 365v 11h 5.5a 5.5 5.5, 0, 0, 0, 0 -11" transform="rotate(0,469.5,370.5)"/><path d="M 464 398v 11h 5.5a 5.5 5.5, 0, 0, 0, 0 -11" transform="rotate(-90,469.5,403.5)"/><rect x="464" y="409" width="11" height="11" transform="rotate(0,469.5,414.5)"/><rect x="464" y="420" width="11" height="11" transform="rotate(0,469.5,425.5)"/><rect x="464" y="431" width="11" height="11" transform="rotate(0,469.5,436.5)"/><path d="M 464 442v 11h 5.5a 5.5 5.5, 0, 0, 0, 0 -11" transform="rotate(90,469.5,447.5)"/></clipPath><clipPath id="clip-path-corners-square-color-0-0"><path clip-rule="evenodd" d="M 24 24v 77h 77v -77zM 35 35h 55v 55h -55z" transform="rotate(0,62.5,62.5)"/></clipPath><clipPath id="clip-path-corners-dot-color-0-0"><rect x="46" y="46" width="33" height="33" transform="rotate(0,62.5,62.5)"/></clipPath><clipPath id="clip-path-corners-square-color-1-0"><path clip-rule="evenodd" d="M 398 24v 77h 77v -77zM 409 35h 55v 55h -55z" transform="rotate(90,436.5,62.5)"/></clipPath><clipPath id="clip-path-corners-dot-color-1-0"><rect x="420" y="46" width="33" height="33" transform="rotate(90,436.5,62.5)"/></clipPath><clipPath id="clip-path-corners-square-color-0-1"><path clip-rule="evenodd" d="M 24 398v 77h 77v -77zM 35 409h 55v 55h -55z" transform="rotate(-90,62.5,436.5)"/></clipPath><clipPath id="clip-path-corners-dot-color-0-1"><rect x="46" y="420" width="33" height="33" transform="rotate(-90,62.5,436.5)"/></clipPath></defs><rect x="0" y="0" height="500" width="500" clip-path="url('#clip-path-background-color')" fill="#fff"/><rect x="0" y="0" height="500" width="500" clip-path="url('#clip-path-dot-color')" fill="#000000"/><rect x="24" y="24" height="77" width="77" clip-path="url('#clip-path-corners-square-color-0-0')" fill="#000000"/><rect x="46" y="46" height="33" width="33" clip-path="url('#clip-path-corners-dot-color-0-0')" fill="#000000"/><rect x="398" y="24" height="77" width="77" clip-path="url('#clip-path-corners-square-color-1-0')" fill="#000000"/><rect x="420" y="46" height="33" width="33" clip-path="url('#clip-path-corners-dot-color-1-0')" fill="#000000"/><rect x="24" y="398" height="77" width="77" clip-path="url('#clip-path-corners-square-color-0-1')" fill="#000000"/><rect x="46" y="420" height="33" width="33" clip-path="url('#clip-path-corners-dot-color-0-1')" fill="#000000"/></svg>