<?xml version="1.0" standalone="no"?>
<svg xmlns="http://www.w3.org/2000/svg" width="500" height="500"><defs><clipPath id="clip-path-dot-color"><path d="M 24 112v 11h 11v -5.5a 5.5 5.5, 0, 0, 0, -5.5 -5.5" transform="rotate(-90,29.5,117.5)"/><path d="M 24 123v 11h 5.5a 5.5 5.5, 0, 0, 0, 0 -11" transform="rotate(90,29.5,128.5)"/><path d="M 24 145v 11h 11v -5.5a 5.5 5.5, 0, 0, 0, -5.5 -5.5" transform="rotate(-90,29.5,150.5)"/><rect x="24" y="156" width="11" height="11" transform="rotate(0,29.5,161.5)"/><rect x="24" y="167" width="11" height="11" transform="rotate(0,29.5,172.5)"/><rect x="24" y="178" width="11" height="11" transform="rotate(0,29.5,183.5)"/><path d="M 24 189v 11h 11v -5.5a 5.5 5.5, 0, 0, 0, -5.5 -5.5" transform="rotate(180,29.5,194.5)"/><circle cx="29.5" cy="216.5" r="5.5" transform="rotate(0,29.5,216.5)"/><path d="M 24 266v 11h 5.5a 5.5 5.5, 0, 0, 0, 0 -11" transform="rotate(180,29.5,271.5)"/><path d="M 24 310v 11h 5.5a 5.5 5.5, 0, 0, 0, 0 -11" transform="rotate(180,29.5,315.5)"/><path d="M 24 343v 11h 5.5a 5.5 5.5, 0, 0, 0, 0 -11" transform="rotate(-90,29.5,348.5)"/><path d="M 24 354v 11h 11v -5.5a 5.5 5.5, 0, 0, 0, -5.5 -5.5" transform="rotate(180,29.5,359.5)"/><path d="M 35 112v 11h 5.5a 5.5 5.5, 0, 0, 0, 0 -11" transform="rotate(0,40.5,117.5)"/><path d="M 35 134v 11h 11v -5.5a 5.5 5.5, 0, 0, 0, -5.5 -5.5" transform="rotate(-90,40.5,139.5)"/><rect x="35" y="145" width="11" height="11" transform="rotate(0,40.5,150.5)"/><rect x="35" y="156" width="11" height="11" transform="rotate(0,40.5,161.5)"/><rect x="35" y="167" width="11" height="11" transform="rotate(0,40.5,172.5)"/><path d="M 35 189v 11h 5.5a 5.5 5.5, 0, 0, 0, 0 -11" transform="rotate(0,40.5,194.5)"/><path d="M 35 222v 11h 5.5a 5.5 5.5, 0, 0, 0, 0 -11" transform="rotate(-90,40.5,227.5)"/><path d="M 35 233v 11h 11v -5.5a 5.5 5.5, 0, 0, 0, -5.5 -5.5" transform="rotate(180,40.5,238.5)"/><path d="M 35 255v 11h 5.5a 5.5 5.5, 0, 0, 0, 0 -11" transform="rotate(-90,40.5,260.5)"/><path d="M 35 266v 11h 11v -5.5a 5.5 5.5, 0, 0, 0, -5.5 -5.5" transform="rotate(90,40.5,271.5)"/><circle cx="40.5" cy="293.5" r="5.5" transform="rotate(0,40.5,293.5)"/><rect x="35" y="310" width="11" height="11" transform="rotate(0,40.5,315.5)"/><circle cx="40.5" cy="337.5" r="5.5" transform="rotate(0,40.5,337.5)"/><rect x="35" y="354" width="11" height="11" transform="rotate(0,40.5,359.5)"/><path d="M 35 376v 11h 5.5a 5.5 5.5, 0, 0, 0, 0 -11" transform="rotate(180,40.5,381.5)"/><rect x="46" y="134" width="11" height="11" transform="rotate(0,51.5,139.5)"/><rect x="46" y="145" width="11" height="11" transform="rotate(0,51.5,150.5)"/><rect x="46" y="156" width="11" height="11" transform="rotate(0,51.5,161.5)"/><path d="M 46 167v 11h 11v -5.5a 5.5 5.5, 0, 0, 0, -5.5 -5.5" transform="rotate(90,51.5,172.5)"/><path d="M 46 233v 11h 11v -5.5a 5.5 5.5, 0, 0, 0, -5.5 -5.5" transform="rotate(0,51.5,238.5)"/><path d="M 46 244v 11h 5.5a 5.5 5.5, 0, 0, 0, 0 -11" transform="rotate(90,51.5,249.5)"/><circle cx="51.5" cy="282.5" r="5.5" transform="rotate(0,51.5,282.5)"/><path d="M 46 310v 11h 11v -5.5a 5.5 5.5, 0, 0, 0, -5.5 -5.5" transform="rotate(0,51.5,315.5)"/><path d="M 46 321v 11h 5.5a 5.5 5.5, 0, 0, 0, 0 -11" transform="rotate(90,51.5,326.5)"/><path d="M 46 354v 11h 5.5a 5.5 5.5, 0, 0, 0, 0 -11" transform="rotate(0,51.5,359.5)"/><path d="M 46 376v 11h 5.5a 5.5 5.5, 0, 0, 0, 0 -11" transform="rotate(0,51.5,381.5)"/><rect x="57" y="134" width="11" height="11" transform="rotate(0,62.5,139.5)"/><path d="M 57 178v 11h 11v -5.5a 5.5 5.5, 0, 0, 0, -5.5 -5.5" transform="rotate(-90,62.5,183.5)"/><path d="M 57 189v 11h 11v -5.5a 5.5 5.5, 0, 0, 0, -5.5 -5.5" transform="rotate(180,62.5,194.5)"/><path d="M 57 211v 11h 5.5a 5.5 5.5, 0, 0, 0, 0 -11" transform="rotate(180,62.5,216.5)"/><path d="M 57 255v 11h 11v -5.5a 5.5 5.5, 0, 0, 0, -5.5 -5.5" transform="rotate(-90,62.5,260.5)"/><path d="M 57 266v 11h 5.5a 5.5 5.5, 0, 0, 0, 0 -11" transform="rotate(90,62.5,271.5)"/><circle cx="62.5" cy="304.5" r="5.5" transform="rotate(0,62.5,304.5)"/><circle cx="62.5" cy="348.5" r="5.5" transform="rotate(0,62.5,348.5)"/><path d="M 57 365v 11h 5.5a 5.5 5.5, 0, 0, 0, 0 -11" transform="rotate(180,62.5,370.5)"/><path d="M 68 134v 11h 11v -5.5a 5.5 5.5, 0, 0, 0, -5.5 -5.5" transform="rotate(0,73.5,139.5)"/><rect x="68" y="145" width="11" height="11" transform="rotate(0,73.5,150.5)"/><path d="M 68 156v 11h 5.5a 5.5 5.5, 0, 0, 0, 0 -11" transform="rotate(90,73.5,161.5)"/><rect x="68" y="178" width="11" height="11" transform="rotate(0,73.5,183.5)"/><rect x="68" y="189" width="11" height="11" transform="rotate(0,73.5,194.5)"/><rect x="68" y="200" width="11" height="11" transform="rotate(0,73.5,205.5)"/><rect x="68" y="211" width="11" height="11" transform="rotate(0,73.5,216.5)"/><path d="M 68 222v 11h 11v -5.5a 5.5 5.5, 0, 0, 0, -5.5 -5.5" transform="rotate(180,73.5,227.5)"/><path d="M 68 255v 11h 5.5a 5.5 5.5, 0, 0, 0, 0 -11" transform="rotate(0,73.5,260.5)"/><path d="M 68 277v 11h 11v -5.5a 5.5 5.5, 0, 0, 0, -5.5 -5.5" transform="rotate(-90,73.5,282.5)"/><path d="M 68 288v 11h 11v -5.5a 5.5 5.5, 0, 0, 0, -5.5 -5.5" transform="rotate(180,73.5,293.5)"/><circle cx="73.5" cy="337.5" r="5.5" transform="rotate(0,73.5,337.5)"/><path d="M 68 354v 11h 11v -5.5a 5.5 5.5, 0, 0, 0, -5.5 -5.5" transform="rotate(-90,73.5,359.5)"/><rect x="68" y="365" width="11" height="11" transform="rotate(0,73.5,370.5)"/><path d="M 68 376v 11h 11v -5.5a 5.5 5.5, 0, 0, 0, -5.5 -5.5" transform="rotate(180,73.5,381.5)"/><rect x="79" y="178" width="11" height="11" transform="rotate(0,84.5,183.5)"/><rect x="79" y="200" width="11" height="11" transform="rotate(0,84.5,205.5)"/><rect x="79" y="222" width="11" height="11" transform="rotate(0,84.5,227.5)"/><path d="M 79 244v 11h 5.5a 5.5 5.5, 0, 0, 0, 0 -11" transform="rotate(180,84.5,249.5)"/><path d="M 79 266v 11h 11v -5.5a 5.5 5.5, 0, 0, 0, -5.5 -5.5" transform="rotate(-90,84.5,271.5)"/><rect x="79" y="277" width="11" height="11" transform="rotate(0,84.5,282.5)"/><rect x="79" y="288" width="11" height="11" transform="rotate(0,84.5,293.5)"/><rect x="79" y="299" width="11" height="11" transform="rotate(0,84.5,304.5)"/><path d="M 79 310v 11h 11v -5.5a 5.5 5.5, 0, 0, 0, -5.5 -5.5" transform="rotate(180,84.5,315.5)"/><rect x="79" y="354" width="11" height="11" transform="rotate(0,84.5,359.5)"/><rect x="79" y="376" width="11" height="11" transform="rotate(0,84.5,381.5)"/><circle cx="95.5" cy="117.5" r="5.5" transform="rotate(0,95.5,117.5)"/><path d="M 90 134v 11h 5.5a 5.5 5.5, 0, 0, 0, 0 -11" transform="rotate(180,95.5,139.5)"/><path d="M 90 156v 11h 5.5a 5.5 5.5, 0, 0, 0, 0 -11" transform="rotate(180,95.5,161.5)"/><path d="M 90 178v 11h 5.5a 5.5 5.5, 0, 0, 0, 0 -11" transform="rotate(0,95.5,183.5)"/><rect x="90" y="200" width="11" height="11" transform="rotate(0,95.5,205.5)"/><path d="M 90 222v 11h 5.5a 5.5 5.5, 0, 0, 0, 0 -11" transform="rotate(0,95.5,227.5)"/><rect x="90" y="244" width="11" height="11" transform="rotate(0,95.5,249.5)"/><rect x="90" y="266" width="11" height="11" transform="rotate(0,95.5,271.5)"/><path d="M 90 288v 11h 5.5a 5.5 5.5, 0, 0, 0, 0 -11" transform="rotate(0,95.5,293.5)"/><rect x="90" y="310" width="11" height="11" transform="rotate(0,95.5,315.5)"/><circle cx="95.5" cy="337.5" r="5.5" transform="rotate(0,95.5,337.5)"/><rect x="90" y="354" width="11" height="11" transform="rotate(0,95.5,359.5)"/><rect x="90" y="376" width="11" height="11" transform="rotate(0,95.5,381.5)"/><path d="M 101 134v 11h 5.5a 5.5 5.5, 0, 0, 0, 0 -11" transform="rotate(0,106.5,139.5)"/><path d="M 101 156v 11h 11v -5.5a 5.5 5.5, 0, 0, 0, -5.5 -5.5" transform="rotate(0,106.5,161.5)"/><path d="M 101 167v 11h 5.5a 5.5 5.5, 0, 0, 0, 0 -11" transform="rotate(90,106.5,172.5)"/><rect x="101" y="200" width="11" height="11" transform="rotate(0,106.5,205.5)"/><path d="M 101 211v 11h 11v -5.5a 5.5 5.5, 0, 0, 0, -5.5 -5.5" transform="rotate(180,106.5,216.5)"/><path d="M 101 244v 11h 5.5a 5.5 5.5, 0, 0, 0, 0 -11" transform="rotate(0,106.5,249.5)"/><path d="M 101 266v 11h 5.5a 5.5 5.5, 0, 0, 0, 0 -11" transform="rotate(0,106.5,271.5)"/><rect x="101" y="310" width="11" height="11" transform="rotate(0,106.5,315.5)"/><path d="M 101 354v 11h 11v -5.5a 5.5 5.5, 0, 0, 0, -5.5 -5.5" transform="rotate(0,106.5,359.5)"/><rect x="101" y="365" width="11" height="11" transform="rotate(0,106.5,370.5)"/><rect x="101" y="376" width="11" height="11" transform="rotate(0,106.5,381.5)"/><path d="M 112 35v 11h 5.5a 5.5 5.5, 0, 0, 0, 0 -11" transform="rotate(180,117.5,40.5)"/><path d="M 112 90v 11h 5.5a 5.5 5.5, 0, 0, 0, 0 -11" transform="rotate(-90,117.5,95.5)"/><rect x="112" y="101" width="11" height="11" transform="rotate(0,117.5,106.5)"/><path d="M 112 112v 11h 11v -5.5a 5.5 5.5, 0, 0, 0, -5.5 -5.5" transform="rotate(180,117.5,117.5)"/><path d="M 112 145v 11h 5.5a 5.5 5.5, 0, 0, 0, 0 -11" transform="rotate(180,117.5,150.5)"/><path d="M 112 178v 11h 5.5a 5.5 5.5, 0, 0, 0, 0 -11" transform="rotate(180,117.5,183.5)"/><path d="M 112 200v 11h 11v -5.5a 5.5 5.5, 0, 0, 0, -5.5 -5.5" transform="rotate(0,117.5,205.5)"/><rect x="112" y="211" width="11" height="11" transform="rotate(0,117.5,216.5)"/><path d="M 112 277v 11h 5.5a 5.5 5.5, 0, 0, 0, 0 -11" transform="rotate(-90,117.5,282.5)"/><rect x="112" y="288" width="11" height="11" transform="rotate(0,117.5,293.5)"/><rect x="112" y="299" width="11" height="11" transform="rotate(0,117.5,304.5)"/><rect x="112" y="310" width="11" height="11" transform="rotate(0,117.5,315.5)"/><path d="M 112 321v 11h 11v -5.5a 5.5 5.5, 0, 0, 0, -5.5 -5.5" transform="rotate(180,117.5,326.5)"/><circle cx="117.5" cy="348.5" r="5.5" transform="rotate(0,117.5,348.5)"/><rect x="112" y="365" width="11" height="11" transform="rotate(0,117.5,370.5)"/><rect x="112" y="376" width="11" height="11" transform="rotate(0,117.5,381.5)"/><path d="M 112 387v 11h 11v -5.5a 5.5 5.5, 0, 0, 0, -5.5 -5.5" transform="rotate(180,117.5,392.5)"/><path d="M 112 453v 11h 5.5a 5.5 5.5, 0, 0, 0, 0 -11" transform="rotate(-90,117.5,458.5)"/><path d="M 112 464v 11h 5.5a 5.5 5.5, 0, 0, 0, 0 -11" transform="rotate(90,117.5,469.5)"/><path d="M 123 24v 11h 5.5a 5.5 5.5, 0, 0, 0, 0 -11" transform="rotate(-90,128.5,29.5)"/><path d="M 123 35v 11h 11v -5.5a 5.5 5.5, 0, 0, 0, -5.5 -5.5" transform="rotate(90,128.5,40.5)"/><path d="M 123 57v 11h 11v -5.5a 5.5 5.5, 0, 0, 0, -5.5 -5.5" transform="rotate(-90,128.5,62.5)"/><rect x="123" y="68" width="11" height="11" transform="rotate(0,128.5,73.5)"/><path d="M 123 79v 11h 11v -5.5a 5.5 5.5, 0, 0, 0, -5.5 -5.5" transform="rotate(180,128.5,84.5)"/><path d="M 123 112v 11h 11v -5.5a 5.5 5.5, 0, 0, 0, -5.5 -5.5" transform="rotate(0,128.5,117.5)"/><rect x="123" y="123" width="11" height="11" transform="rotate(0,128.5,128.5)"/><rect x="123" y="134" width="11" height="11" transform="rotate(0,128.5,139.5)"/><rect x="123" y="145" width="11" height="11" transform="rotate(0,128.5,150.5)"/><path d="M 123 156v 11h 11v -5.5a 5.5 5.5, 0, 0, 0, -5.5 -5.5" transform="rotate(180,128.5,161.5)"/><rect x="123" y="178" width="11" height="11" transform="rotate(0,128.5,183.5)"/><path d="M 123 211v 11h 11v -5.5a 5.5 5.5, 0, 0, 0, -5.5 -5.5" transform="rotate(0,128.5,216.5)"/><path d="M 123 222v 11h 11v -5.5a 5.5 5.5, 0, 0, 0, -5.5 -5.5" transform="rotate(180,128.5,227.5)"/><path d="M 123 244v 11h 5.5a 5.5 5.5, 0, 0, 0, 0 -11" transform="rotate(-90,128.5,249.5)"/><path d="M 123 255v 11h 11v -5.5a 5.5 5.5, 0, 0, 0, -5.5 -5.5" transform="rotate(180,128.5,260.5)"/><path d="M 123 310v 11h 11v -5.5a 5.5 5.5, 0, 0, 0, -5.5 -5.5" transform="rotate(0,128.5,315.5)"/><rect x="123" y="321" width="11" height="11" transform="rotate(0,128.5,326.5)"/><path d="M 123 354v 11h 11v -5.5a 5.5 5.5, 0, 0, 0, -5.5 -5.5" transform="rotate(-90,128.5,359.5)"/><path d="M 123 365v 11h 11v -5.5a 5.5 5.5, 0, 0, 0, -5.5 -5.5" transform="rotate(90,128.5,370.5)"/><rect x="123" y="387" width="11" height="11" transform="rotate(0,128.5,392.5)"/><circle cx="128.5" cy="425.5" r="5.5" transform="rotate(0,128.5,425.5)"/><rect x="134" y="57" width="11" height="11" transform="rotate(0,139.5,62.5)"/><rect x="134" y="68" width="11" height="11" transform="rotate(0,139.5,73.5)"/><rect x="134" y="79" width="11" height="11" transform="rotate(0,139.5,84.5)"/><rect x="134" y="90" width="11" height="11" transform="rotate(0,139.5,95.5)"/><path d="M 134 101v 11h 11v -5.5a 5.5 5.5, 0, 0, 0, -5.5 -5.5" transform="rotate(180,139.5,106.5)"/><rect x="134" y="134" width="11" height="11" transform="rotate(0,139.5,139.5)"/><rect x="134" y="156" width="11" height="11" transform="rotate(0,139.5,161.5)"/><rect x="134" y="167" width="11" height="11" transform="rotate(0,139.5,172.5)"/><rect x="134" y="178" width="11" height="11" transform="rotate(0,139.5,183.5)"/><rect x="134" y="189" width="11" height="11" transform="rotate(0,139.5,194.5)"/><path d="M 134 200v 11h 5.5a 5.5 5.5, 0, 0, 0, 0 -11" transform="rotate(90,139.5,205.5)"/><rect x="134" y="222" width="11" height="11" transform="rotate(0,139.5,227.5)"/><path d="M 134 233v 11h 5.5a 5.5 5.5, 0, 0, 0, 0 -11" transform="rotate(90,139.5,238.5)"/><rect x="134" y="255" width="11" height="11" transform="rotate(0,139.5,260.5)"/><rect x="134" y="321" width="11" height="11" transform="rotate(0,139.5,326.5)"/><path d="M 134 343v 11h 5.5a 5.5 5.5, 0, 0, 0, 0 -11" transform="rotate(-90,139.5,348.5)"/><rect x="134" y="354" width="11" height="11" transform="rotate(0,139.5,359.5)"/><path d="M 134 376v 11h 11v -5.5a 5.5 5.5, 0, 0, 0, -5.5 -5.5" transform="rotate(-90,139.5,381.5)"/><rect x="134" y="387" width="11" height="11" transform="rotate(0,139.5,392.5)"/><rect x="134" y="398" width="11" height="11" transform="rotate(0,139.5,403.5)"/><path d="M 134 409v 11h 5.5a 5.5 5.5, 0, 0, 0, 0 -11" transform="rotate(90,139.5,414.5)"/><path d="M 145 24v 11h 5.5a 5.5 5.5, 0, 0, 0, 0 -11" transform="rotate(180,150.5,29.5)"/><rect x="145" y="57" width="11" height="11" transform="rotate(0,150.5,62.5)"/><rect x="145" y="79" width="11" height="11" transform="rotate(0,150.5,84.5)"/><rect x="145" y="101" width="11" height="11" transform="rotate(0,150.5,106.5)"/><path d="M 145 112v 11h 11v -5.5a 5.5 5.5, 0, 0, 0, -5.5 -5.5" transform="rotate(180,150.5,117.5)"/><path d="M 145 134v 11h 5.5a 5.5 5.5, 0, 0, 0, 0 -11" transform="rotate(0,150.5,139.5)"/><path d="M 145 156v 11h 5.5a 5.5 5.5, 0, 0, 0, 0 -11" transform="rotate(0,150.5,161.5)"/><path d="M 145 178v 11h 11v -5.5a 5.5 5.5, 0, 0, 0, -5.5 -5.5" transform="rotate(0,150.5,183.5)"/><rect x="145" y="189" width="11" height="11" transform="rotate(0,150.5,194.5)"/><path d="M 145 211v 11h 11v -5.5a 5.5 5.5, 0, 0, 0, -5.5 -5.5" transform="rotate(-90,150.5,216.5)"/><path d="M 145 222v 11h 11v -5.5a 5.5 5.5, 0, 0, 0, -5.5 -5.5" transform="rotate(90,150.5,227.5)"/><rect x="145" y="255" width="11" height="11" transform="rotate(0,150.5,260.5)"/><path d="M 145 321v 11h 11v -5.5a 5.5 5.5, 0, 0, 0, -5.5 -5.5" transform="rotate(0,150.5,326.5)"/><path d="M 145 332v 11h 11v -5.5a 5.5 5.5, 0, 0, 0, -5.5 -5.5" transform="rotate(180,150.5,337.5)"/><path d="M 145 354v 11h 11v -5.5a 5.5 5.5, 0, 0, 0, -5.5 -5.5" transform="rotate(0,150.5,359.5)"/><rect x="145" y="365" width="11" height="11" transform="rotate(0,150.5,370.5)"/><rect x="145" y="376" width="11" height="11" transform="rotate(0,150.5,381.5)"/><rect x="145" y="387" width="11" height="11" transform="rotate(0,150.5,392.5)"/><path d="M 145 420v 11h 5.5a 5.5 5.5, 0, 0, 0, 0 -11" transform="rotate(-90,150.5,425.5)"/><path d="M 145 431v 11h 5.5a 5.5 5.5, 0, 0, 0, 0 -11" transform="rotate(90,150.5,436.5)"/><rect x="156" y="24" width="11" height="11" transform="rotate(0,161.5,29.5)"/><path d="M 156 46v 11h 11v -5.5a 5.5 5.5, 0, 0, 0, -5.5 -5.5" transform="rotate(-90,161.5,51.5)"/><rect x="156" y="57" width="11" height="11" transform="rotate(0,161.5,62.5)"/><rect x="156" y="79" width="11" height="11" transform="rotate(0,161.5,84.5)"/><rect x="156" y="90" width="11" height="11" transform="rotate(0,161.5,95.5)"/><rect x="156" y="101" width="11" height="11" transform="rotate(0,161.5,106.5)"/><rect x="156" y="112" width="11" height="11" transform="rotate(0,161.5,117.5)"/><path d="M 156 123v 11h 5.5a 5.5 5.5, 0, 0, 0, 0 -11" transform="rotate(90,161.5,128.5)"/><path d="M 156 145v 11h 5.5a 5.5 5.5, 0, 0, 0, 0 -11" transform="rotate(180,161.5,150.5)"/><rect x="156" y="189" width="11" height="11" transform="rotate(0,161.5,194.5)"/><rect x="156" y="200" width="11" height="11" transform="rotate(0,161.5,205.5)"/><rect x="156" y="211" width="11" height="11" transform="rotate(0,161.5,216.5)"/><path d="M 156 244v 11h 5.5a 5.5 5.5, 0, 0, 0, 0 -11" transform="rotate(-90,161.5,249.5)"/><rect x="156" y="255" width="11" height="11" transform="rotate(0,161.5,260.5)"/><path d="M 156 266v 11h 5.5a 5.5 5.5, 0, 0, 0, 0 -11" transform="rotate(90,161.5,271.5)"/><path d="M 156 288v 11h 5.5a 5.5 5.5, 0, 0, 0, 0 -11" transform="rotate(180,161.5,293.5)"/><rect x="156" y="332" width="11" height="11" transform="rotate(0,161.5,337.5)"/><rect x="156" y="387" width="11" height="11" transform="rotate(0,161.5,392.5)"/><rect x="156" y="398" width="11" height="11" transform="rotate(0,161.5,403.5)"/><path d="M 156 409v 11h 5.5a 5.5 5.5, 0, 0, 0, 0 -11" transform="rotate(90,161.5,414.5)"/><path d="M 156 464v 11h 5.5a 5.5 5.5, 0, 0, 0, 0 -11" transform="rotate(180,161.5,469.5)"/><path d="M 167 24v 11h 5.5a 5.5 5.5, 0, 0, 0, 0 -11" transform="rotate(0,172.5,29.5)"/><rect x="167" y="46" width="11" height="11" transform="rotate(0,172.5,51.5)"/><path d="M 167 57v 11h 11v -5.5a 5.5 5.5, 0, 0, 0, -5.5 -5.5" transform="rotate(90,172.5,62.5)"/><rect x="167" y="79" width="11" height="11" transform="rotate(0,172.5,84.5)"/><rect x="167" y="101" width="11" height="11" transform="rotate(0,172.5,106.5)"/><rect x="167" y="112" width="11" height="11" transform="rotate(0,172.5,117.5)"/><path d="M 167 145v 11h 11v -5.5a 5.5 5.5, 0, 0, 0, -5.5 -5.5" transform="rotate(0,172.5,150.5)"/><path d="M 167 156v 11h 11v -5.5a 5.5 5.5, 0, 0, 0, -5.5 -5.5" transform="rotate(180,172.5,161.5)"/><path d="M 167 189v 11h 11v -5.5a 5.5 5.5, 0, 0, 0, -5.5 -5.5" transform="rotate(0,172.5,194.5)"/><rect x="167" y="200" width="11" height="11" transform="rotate(0,172.5,205.5)"/><rect x="167" y="211" width="11" height="11" transform="rotate(0,172.5,216.5)"/><path d="M 167 222v 11h 11v -5.5a 5.5 5.5, 0, 0, 0, -5.5 -5.5" transform="rotate(180,172.5,227.5)"/><rect x="167" y="288" width="11" height="11" transform="rotate(0,172.5,293.5)"/><rect x="167" y="299" width="11" height="11" transform="rotate(0,172.5,304.5)"/><rect x="167" y="310" width="11" height="11" transform="rotate(0,172.5,315.5)"/><rect x="167" y="321" width="11" height="11" transform="rotate(0,172.5,326.5)"/><rect x="167" y="332" width="11" height="11" transform="rotate(0,172.5,337.5)"/><path d="M 167 354v 11h 11v -5.5a 5.5 5.5, 0, 0, 0, -5.5 -5.5" transform="rotate(-90,172.5,359.5)"/><rect x="167" y="365" width="11" height="11" transform="rotate(0,172.5,370.5)"/><rect x="167" y="376" width="11" height="11" transform="rotate(0,172.5,381.5)"/><rect x="167" y="387" width="11" height="11" transform="rotate(0,172.5,392.5)"/><path d="M 167 398v 11h 11v -5.5a 5.5 5.5, 0, 0, 0, -5.5 -5.5" transform="rotate(90,172.5,403.5)"/><path d="M 167 420v 11h 11v -5.5a 5.5 5.5, 0, 0, 0, -5.5 -5.5" transform="rotate(-90,172.5,425.5)"/><rect x="167" y="431" width="11" height="11" transform="rotate(0,172.5,436.5)"/><path d="M 167 442v 11h 11v -5.5a 5.5 5.5, 0, 0, 0, -5.5 -5.5" transform="rotate(180,172.5,447.5)"/><path d="M 167 464v 11h 5.5a 5.5 5.5, 0, 0, 0, 0 -11" transform="rotate(0,172.5,469.5)"/><path d="M 178 35v 11h 5.5a 5.5 5.5, 0, 0, 0, 0 -11" transform="rotate(-90,183.5,40.5)"/><path d="M 178 46v 11h 11v -5.5a 5.5 5.5, 0, 0, 0, -5.5 -5.5" transform="rotate(90,183.5,51.5)"/><rect x="178" y="79" width="11" height="11" transform="rotate(0,183.5,84.5)"/><rect x="178" y="90" width="11" height="11" transform="rotate(0,183.5,95.5)"/><rect x="178" y="101" width="11" height="11" transform="rotate(0,183.5,106.5)"/><rect x="178" y="112" width="11" height="11" transform="rotate(0,183.5,117.5)"/><rect x="178" y="123" width="11" height="11" transform="rotate(0,183.5,128.5)"/><path d="M 178 134v 11h 5.5a 5.5 5.5, 0, 0, 0, 0 -11" transform="rotate(90,183.5,139.5)"/><path d="M 178 156v 11h 5.5a 5.5 5.5, 0, 0, 0, 0 -11" transform="rotate(0,183.5,161.5)"/><rect x="178" y="200" width="11" height="11" transform="rotate(0,183.5,205.5)"/><path d="M 178 222v 11h 5.5a 5.5 5.5, 0, 0, 0, 0 -11" transform="rotate(0,183.5,227.5)"/><path d="M 178 266v 11h 5.5a 5.5 5.5, 0, 0, 0, 0 -11" transform="rotate(180,183.5,271.5)"/><rect x="178" y="288" width="11" height="11" transform="rotate(0,183.5,293.5)"/><rect x="178" y="310" width="11" height="11" transform="rotate(0,183.5,315.5)"/><rect x="178" y="321" width="11" height="11" transform="rotate(0,183.5,326.5)"/><rect x="178" y="332" width="11" height="11" transform="rotate(0,183.5,337.5)"/><rect x="178" y="343" width="11" height="11" transform="rotate(0,183.5,348.5)"/><path d="M 178 354v 11h 11v -5.5a 5.5 5.5, 0, 0, 0, -5.5 -5.5" transform="rotate(90,183.5,359.5)"/><rect x="178" y="387" width="11" height="11" transform="rotate(0,183.5,392.5)"/><path d="M 178 409v 11h 11v -5.5a 5.5 5.5, 0, 0, 0, -5.5 -5.5" transform="rotate(-90,183.5,414.5)"/><path d="M 178 420v 11h 11v -5.5a 5.5 5.5, 0, 0, 0, -5.5 -5.5" transform="rotate(90,183.5,425.5)"/><rect x="178" y="442" width="11" height="11" transform="rotate(0,183.5,447.5)"/><path d="M 189 57v 11h 5.5a 5.5 5.5, 0, 0, 0, 0 -11" transform="rotate(180,194.5,62.5)"/><path d="M 189 79v 11h 5.5a 5.5 5.5, 0, 0, 0, 0 -11" transform="rotate(0,194.5,84.5)"/><rect x="189" y="101" width="11" height="11" transform="rotate(0,194.5,106.5)"/><path d="M 189 112v 11h 11v -5.5a 5.5 5.5, 0, 0, 0, -5.5 -5.5" transform="rotate(90,194.5,117.5)"/><circle cx="194.5" cy="172.5" r="5.5" transform="rotate(0,194.5,172.5)"/><path d="M 189 189v 11h 11v -5.5a 5.5 5.5, 0, 0, 0, -5.5 -5.5" transform="rotate(-90,194.5,194.5)"/><rect x="189" y="200" width="11" height="11" transform="rotate(0,194.5,205.5)"/><path d="M 189 211v 11h 5.5a 5.5 5.5, 0, 0, 0, 0 -11" transform="rotate(90,194.5,216.5)"/><path d="M 189 233v 11h 5.5a 5.5 5.5, 0, 0, 0, 0 -11" transform="rotate(-90,194.5,238.5)"/><rect x="189" y="244" width="11" height="11" transform="rotate(0,194.5,249.5)"/><rect x="189" y="255" width="11" height="11" transform="rotate(0,194.5,260.5)"/><rect x="189" y="266" width="11" height="11" transform="rotate(0,194.5,271.5)"/><rect x="189" y="277" width="11" height="11" transform="rotate(0,194.5,282.5)"/><rect x="189" y="288" width="11" height="11" transform="rotate(0,194.5,293.5)"/><rect x="189" y="310" width="11" height="11" transform="rotate(0,194.5,315.5)"/><path d="M 189 321v 11h 11v -5.5a 5.5 5.5, 0, 0, 0, -5.5 -5.5" transform="rotate(90,194.5,326.5)"/><path d="M 189 365v 11h 11v -5.5a 5.5 5.5, 0, 0, 0, -5.5 -5.5" transform="rotate(-90,194.5,370.5)"/><rect x="189" y="376" width="11" height="11" transform="rotate(0,194.5,381.5)"/><rect x="189" y="387" width="11" height="11" transform="rotate(0,194.5,392.5)"/><rect x="189" y="409" width="11" height="11" transform="rotate(0,194.5,414.5)"/><path d="M 189 431v 11h 5.5a 5.5 5.5, 0, 0, 0, 0 -11" transform="rotate(-90,194.5,436.5)"/><rect x="189" y="442" width="11" height="11" transform="rotate(0,194.5,447.5)"/><circle cx="194.5" cy="469.5" r="5.5" transform="rotate(0,194.5,469.5)"/><path d="M 200 35v 11h 5.5a 5.5 5.5, 0, 0, 0, 0 -11" transform="rotate(180,205.5,40.5)"/><rect x="200" y="57" width="11" height="11" transform="rotate(0,205.5,62.5)"/><path d="M 200 68v 11h 11v -5.5a 5.5 5.5, 0, 0, 0, -5.5 -5.5" transform="rotate(180,205.5,73.5)"/><path d="M 200 90v 11h 5.5a 5.5 5.5, 0, 0, 0, 0 -11" transform="rotate(-90,205.5,95.5)"/><path d="M 200 101v 11h 11v -5.5a 5.5 5.5, 0, 0, 0, -5.5 -5.5" transform="rotate(90,205.5,106.5)"/><path d="M 200 145v 11h 11v -5.5a 5.5 5.5, 0, 0, 0, -5.5 -5.5" transform="rotate(-90,205.5,150.5)"/><path d="M 200 156v 11h 11v -5.5a 5.5 5.5, 0, 0, 0, -5.5 -5.5" transform="rotate(180,205.5,161.5)"/><path d="M 200 178v 11h 5.5a 5.5 5.5, 0, 0, 0, 0 -11" transform="rotate(-90,205.5,183.5)"/><rect x="200" y="189" width="11" height="11" transform="rotate(0,205.5,194.5)"/><path d="M 200 244v 11h 5.5a 5.5 5.5, 0, 0, 0, 0 -11" transform="rotate(0,205.5,249.5)"/><path d="M 200 266v 11h 5.5a 5.5 5.5, 0, 0, 0, 0 -11" transform="rotate(0,205.5,271.5)"/><path d="M 200 288v 11h 11v -5.5a 5.5 5.5, 0, 0, 0, -5.5 -5.5" transform="rotate(0,205.5,293.5)"/><rect x="200" y="299" width="11" height="11" transform="rotate(0,205.5,304.5)"/><path d="M 200 310v 11h 11v -5.5a 5.5 5.5, 0, 0, 0, -5.5 -5.5" transform="rotate(90,205.5,315.5)"/><circle cx="205.5" cy="348.5" r="5.5" transform="rotate(0,205.5,348.5)"/><rect x="200" y="365" width="11" height="11" transform="rotate(0,205.5,370.5)"/><rect x="200" y="376" width="11" height="11" transform="rotate(0,205.5,381.5)"/><rect x="200" y="387" width="11" height="11" transform="rotate(0,205.5,392.5)"/><rect x="200" y="409" width="11" height="11" transform="rotate(0,205.5,414.5)"/><path d="M 200 442v 11h 5.5a 5.5 5.5, 0, 0, 0, 0 -11" transform="rotate(0,205.5,447.5)"/><rect x="211" y="35" width="11" height="11" transform="rotate(0,216.5,40.5)"/><rect x="211" y="46" width="11" height="11" transform="rotate(0,216.5,51.5)"/><rect x="211" y="57" width="11" height="11" transform="rotate(0,216.5,62.5)"/><rect x="211" y="68" width="11" height="11" transform="rotate(0,216.5,73.5)"/><path d="M 211 79v 11h 11v -5.5a 5.5 5.5, 0, 0, 0, -5.5 -5.5" transform="rotate(180,216.5,84.5)"/><path d="M 211 123v 11h 5.5a 5.5 5.5, 0, 0, 0, 0 -11" transform="rotate(-90,216.5,128.5)"/><rect x="211" y="134" width="11" height="11" transform="rotate(0,216.5,139.5)"/><rect x="211" y="145" width="11" height="11" transform="rotate(0,216.5,150.5)"/><rect x="211" y="156" width="11" height="11" transform="rotate(0,216.5,161.5)"/><rect x="211" y="189" width="11" height="11" transform="rotate(0,216.5,194.5)"/><circle cx="216.5" cy="238.5" r="5.5" transform="rotate(0,216.5,238.5)"/><path d="M 211 255v 11h 5.5a 5.5 5.5, 0, 0, 0, 0 -11" transform="rotate(180,216.5,260.5)"/><path d="M 211 277v 11h 5.5a 5.5 5.5, 0, 0, 0, 0 -11" transform="rotate(180,216.5,282.5)"/><path d="M 211 321v 11h 11v -5.5a 5.5 5.5, 0, 0, 0, -5.5 -5.5" transform="rotate(-90,216.5,326.5)"/><path d="M 211 332v 11h 11v -5.5a 5.5 5.5, 0, 0, 0, -5.5 -5.5" transform="rotate(180,216.5,337.5)"/><path d="M 211 354v 11h 5.5a 5.5 5.5, 0, 0, 0, 0 -11" transform="rotate(-90,216.5,359.5)"/><rect x="211" y="365" width="11" height="11" transform="rotate(0,216.5,370.5)"/><path d="M 211 387v 11h 11v -5.5a 5.5 5.5, 0, 0, 0, -5.5 -5.5" transform="rotate(0,216.5,392.5)"/><rect x="211" y="398" width="11" height="11" transform="rotate(0,216.5,403.5)"/><rect x="211" y="409" width="11" height="11" transform="rotate(0,216.5,414.5)"/><path d="M 211 420v 11h 11v -5.5a 5.5 5.5, 0, 0, 0, -5.5 -5.5" transform="rotate(180,216.5,425.5)"/><path d="M 211 464v 11h 5.5a 5.5 5.5, 0, 0, 0, 0 -11" transform="rotate(180,216.5,469.5)"/><rect x="222" y="35" width="11" height="11" transform="rotate(0,227.5,40.5)"/><rect x="222" y="46" width="11" height="11" transform="rotate(0,227.5,51.5)"/><path d="M 222 68v 11h 11v -5.5a 5.5 5.5, 0, 0, 0, -5.5 -5.5" transform="rotate(0,227.5,73.5)"/><rect x="222" y="79" width="11" height="11" transform="rotate(0,227.5,84.5)"/><path d="M 222 90v 11h 5.5a 5.5 5.5, 0, 0, 0, 0 -11" transform="rotate(90,227.5,95.5)"/><path d="M 222 134v 11h 5.5a 5.5 5.5, 0, 0, 0, 0 -11" transform="rotate(0,227.5,139.5)"/><path d="M 222 156v 11h 5.5a 5.5 5.5, 0, 0, 0, 0 -11" transform="rotate(0,227.5,161.5)"/><path d="M 222 178v 11h 11v -5.5a 5.5 5.5, 0, 0, 0, -5.5 -5.5" transform="rotate(-90,227.5,183.5)"/><rect x="222" y="189" width="11" height="11" transform="rotate(0,227.5,194.5)"/><circle cx="227.5" cy="227.5" r="5.5" transform="rotate(0,227.5,227.5)"/><path d="M 222 244v 11h 5.5a 5.5 5.5, 0, 0, 0, 0 -11" transform="rotate(-90,227.5,249.5)"/><path d="M 222 255v 11h 11v -5.5a 5.5 5.5, 0, 0, 0, -5.5 -5.5" transform="rotate(90,227.5,260.5)"/><path d="M 222 277v 11h 5.5a 5.5 5.5, 0, 0, 0, 0 -11" transform="rotate(0,227.5,282.5)"/><circle cx="227.5" cy="304.5" r="5.5" transform="rotate(0,227.5,304.5)"/><rect x="222" y="321" width="11" height="11" transform="rotate(0,227.5,326.5)"/><rect x="222" y="332" width="11" height="11" transform="rotate(0,227.5,337.5)"/><path d="M 222 343v 11h 5.5a 5.5 5.5, 0, 0, 0, 0 -11" transform="rotate(90,227.5,348.5)"/><path d="M 222 365v 11h 11v -5.5a 5.5 5.5, 0, 0, 0, -5.5 -5.5" transform="rotate(0,227.5,370.5)"/><path d="M 222 376v 11h 11v -5.5a 5.5 5.5, 0, 0, 0, -5.5 -5.5" transform="rotate(180,227.5,381.5)"/><path d="M 222 409v 11h 11v -5.5a 5.5 5.5, 0, 0, 0, -5.5 -5.5" transform="rotate(0,227.5,414.5)"/><rect x="222" y="420" width="11" height="11" transform="rotate(0,227.5,425.5)"/><path d="M 222 442v 11h 5.5a 5.5 5.5, 0, 0, 0, 0 -11" transform="rotate(-90,227.5,447.5)"/><rect x="222" y="453" width="11" height="11" transform="rotate(0,227.5,458.5)"/><path d="M 222 464v 11h 11v -5.5a 5.5 5.5, 0, 0, 0, -5.5 -5.5" transform="rotate(90,227.5,469.5)"/><path d="M 233 24v 11h 5.5a 5.5 5.5, 0, 0, 0, 0 -11" transform="rotate(-90,238.5,29.5)"/><rect x="233" y="35" width="11" height="11" transform="rotate(0,238.5,40.5)"/><path d="M 233 46v 11h 11v -5.5a 5.5 5.5, 0, 0, 0, -5.5 -5.5" transform="rotate(90,238.5,51.5)"/><path d="M 233 79v 11h 5.5a 5.5 5.5, 0, 0, 0, 0 -11" transform="rotate(0,238.5,84.5)"/><path d="M 233 145v 11h 5.5a 5.5 5.5, 0, 0, 0, 0 -11" transform="rotate(180,238.5,150.5)"/><path d="M 233 178v 11h 11v -5.5a 5.5 5.5, 0, 0, 0, -5.5 -5.5" transform="rotate(0,238.5,183.5)"/><rect x="233" y="189" width="11" height="11" transform="rotate(0,238.5,194.5)"/><path d="M 233 233v 11h 5.5a 5.5 5.5, 0, 0, 0, 0 -11" transform="rotate(180,238.5,238.5)"/><circle cx="238.5" cy="271.5" r="5.5" transform="rotate(0,238.5,271.5)"/><path d="M 233 288v 11h 5.5a 5.5 5.5, 0, 0, 0, 0 -11" transform="rotate(180,238.5,293.5)"/><path d="M 233 310v 11h 11v -5.5a 5.5 5.5, 0, 0, 0, -5.5 -5.5" transform="rotate(-90,238.5,315.5)"/><rect x="233" y="321" width="11" height="11" transform="rotate(0,238.5,326.5)"/><rect x="233" y="332" width="11" height="11" transform="rotate(0,238.5,337.5)"/><path d="M 233 376v 11h 11v -5.5a 5.5 5.5, 0, 0, 0, -5.5 -5.5" transform="rotate(0,238.5,381.5)"/><rect x="233" y="387" width="11" height="11" transform="rotate(0,238.5,392.5)"/><path d="M 233 398v 11h 5.5a 5.5 5.5, 0, 0, 0, 0 -11" transform="rotate(90,238.5,403.5)"/><path d="M 233 420v 11h 11v -5.5a 5.5 5.5, 0, 0, 0, -5.5 -5.5" transform="rotate(0,238.5,425.5)"/><path d="M 233 431v 11h 5.5a 5.5 5.5, 0, 0, 0, 0 -11" transform="rotate(90,238.5,436.5)"/><path d="M 233 453v 11h 5.5a 5.5 5.5, 0, 0, 0, 0 -11" transform="rotate(0,238.5,458.5)"/><path d="M 244 35v 11h 5.5a 5.5 5.5, 0, 0, 0, 0 -11" transform="rotate(0,249.5,40.5)"/><path d="M 244 57v 11h 5.5a 5.5 5.5, 0, 0, 0, 0 -11" transform="rotate(180,249.5,62.5)"/><circle cx="249.5" cy="95.5" r="5.5" transform="rotate(0,249.5,95.5)"/><path d="M 244 123v 11h 5.5a 5.5 5.5, 0, 0, 0, 0 -11" transform="rotate(-90,249.5,128.5)"/><rect x="244" y="134" width="11" height="11" transform="rotate(0,249.5,139.5)"/><rect x="244" y="145" width="11" height="11" transform="rotate(0,249.5,150.5)"/><path d="M 244 156v 11h 11v -5.5a 5.5 5.5, 0, 0, 0, -5.5 -5.5" transform="rotate(180,249.5,161.5)"/><rect x="244" y="189" width="11" height="11" transform="rotate(0,249.5,194.5)"/><path d="M 244 222v 11h 11v -5.5a 5.5 5.5, 0, 0, 0, -5.5 -5.5" transform="rotate(-90,249.5,227.5)"/><rect x="244" y="233" width="11" height="11" transform="rotate(0,249.5,238.5)"/><rect x="244" y="244" width="11" height="11" transform="rotate(0,249.5,249.5)"/><path d="M 244 255v 11h 11v -5.5a 5.5 5.5, 0, 0, 0, -5.5 -5.5" transform="rotate(180,249.5,260.5)"/><path d="M 244 288v 11h 11v -5.5a 5.5 5.5, 0, 0, 0, -5.5 -5.5" transform="rotate(0,249.5,293.5)"/><rect x="244" y="299" width="11" height="11" transform="rotate(0,249.5,304.5)"/><path d="M 244 310v 11h 11v -5.5a 5.5 5.5, 0, 0, 0, -5.5 -5.5" transform="rotate(90,249.5,315.5)"/><path d="M 244 332v 11h 11v -5.5a 5.5 5.5, 0, 0, 0, -5.5 -5.5" transform="rotate(0,249.5,337.5)"/><path d="M 244 343v 11h 11v -5.5a 5.5 5.5, 0, 0, 0, -5.5 -5.5" transform="rotate(180,249.5,348.5)"/><circle cx="249.5" cy="414.5" r="5.5" transform="rotate(0,249.5,414.5)"/><path d="M 244 442v 11h 5.5a 5.5 5.5, 0, 0, 0, 0 -11" transform="rotate(180,249.5,447.5)"/><path d="M 255 24v 11h 5.5a 5.5 5.5, 0, 0, 0, 0 -11" transform="rotate(180,260.5,29.5)"/><rect x="255" y="57" width="11" height="11" transform="rotate(0,260.5,62.5)"/><rect x="255" y="68" width="11" height="11" transform="rotate(0,260.5,73.5)"/><path d="M 255 79v 11h 11v -5.5a 5.5 5.5, 0, 0, 0, -5.5 -5.5" transform="rotate(180,260.5,84.5)"/><path d="M 255 112v 11h 5.5a 5.5 5.5, 0, 0, 0, 0 -11" transform="rotate(180,260.5,117.5)"/><path d="M 255 134v 11h 11v -5.5a 5.5 5.5, 0, 0, 0, -5.5 -5.5" transform="rotate(0,260.5,139.5)"/><rect x="255" y="145" width="11" height="11" transform="rotate(0,260.5,150.5)"/><rect x="255" y="156" width="11" height="11" transform="rotate(0,260.5,161.5)"/><rect x="255" y="167" width="11" height="11" transform="rotate(0,260.5,172.5)"/><rect x="255" y="178" width="11" height="11" transform="rotate(0,260.5,183.5)"/><path d="M 255 189v 11h 11v -5.5a 5.5 5.5, 0, 0, 0, -5.5 -5.5" transform="rotate(90,260.5,194.5)"/><path d="M 255 211v 11h 5.5a 5.5 5.5, 0, 0, 0, 0 -11" transform="rotate(-90,260.5,216.5)"/><rect x="255" y="222" width="11" height="11" transform="rotate(0,260.5,227.5)"/><rect x="255" y="255" width="11" height="11" transform="rotate(0,260.5,260.5)"/><rect x="255" y="266" width="11" height="11" transform="rotate(0,260.5,271.5)"/><path d="M 255 277v 11h 5.5a 5.5 5.5, 0, 0, 0, 0 -11" transform="rotate(90,260.5,282.5)"/><rect x="255" y="299" width="11" height="11" transform="rotate(0,260.5,304.5)"/><path d="M 255 321v 11h 5.5a 5.5 5.5, 0, 0, 0, 0 -11" transform="rotate(180,260.5,326.5)"/><path d="M 255 343v 11h 11v -5.5a 5.5 5.5, 0, 0, 0, -5.5 -5.5" transform="rotate(0,260.5,348.5)"/><rect x="255" y="354" width="11" height="11" transform="rotate(0,260.5,359.5)"/><path d="M 255 365v 11h 5.5a 5.5 5.5, 0, 0, 0, 0 -11" transform="rotate(90,260.5,370.5)"/><circle cx="260.5" cy="392.5" r="5.5" transform="rotate(0,260.5,392.5)"/><path d="M 255 420v 11h 11v -5.5a 5.5 5.5, 0, 0, 0, -5.5 -5.5" transform="rotate(-90,260.5,425.5)"/><rect x="255" y="431" width="11" height="11" transform="rotate(0,260.5,436.5)"/><path d="M 255 442v 11h 11v -5.5a 5.5 5.5, 0, 0, 0, -5.5 -5.5" transform="rotate(90,260.5,447.5)"/><path d="M 266 24v 11h 5.5a 5.5 5.5, 0, 0, 0, 0 -11" transform="rotate(0,271.5,29.5)"/><path d="M 266 46v 11h 11v -5.5a 5.5 5.5, 0, 0, 0, -5.5 -5.5" transform="rotate(-90,271.5,51.5)"/><rect x="266" y="57" width="11" height="11" transform="rotate(0,271.5,62.5)"/><rect x="266" y="68" width="11" height="11" transform="rotate(0,271.5,73.5)"/><rect x="266" y="79" width="11" height="11" transform="rotate(0,271.5,84.5)"/><path d="M 266 90v 11h 5.5a 5.5 5.5, 0, 0, 0, 0 -11" transform="rotate(90,271.5,95.5)"/><path d="M 266 112v 11h 5.5a 5.5 5.5, 0, 0, 0, 0 -11" transform="rotate(0,271.5,117.5)"/><path d="M 266 167v 11h 11v -5.5a 5.5 5.5, 0, 0, 0, -5.5 -5.5" transform="rotate(0,271.5,172.5)"/><rect x="266" y="178" width="11" height="11" transform="rotate(0,271.5,183.5)"/><path d="M 266 200v 11h 5.5a 5.5 5.5, 0, 0, 0, 0 -11" transform="rotate(180,271.5,205.5)"/><rect x="266" y="222" width="11" height="11" transform="rotate(0,271.5,227.5)"/><path d="M 266 233v 11h 11v -5.5a 5.5 5.5, 0, 0, 0, -5.5 -5.5" transform="rotate(180,271.5,238.5)"/><rect x="266" y="255" width="11" height="11" transform="rotate(0,271.5,260.5)"/><path d="M 266 288v 11h 5.5a 5.5 5.5, 0, 0, 0, 0 -11" transform="rotate(-90,271.5,293.5)"/><rect x="266" y="299" width="11" height="11" transform="rotate(0,271.5,304.5)"/><rect x="266" y="310" width="11" height="11" transform="rotate(0,271.5,315.5)"/><rect x="266" y="321" width="11" height="11" transform="rotate(0,271.5,326.5)"/><path d="M 266 332v 11h 5.5a 5.5 5.5, 0, 0, 0, 0 -11" transform="rotate(90,271.5,337.5)"/><path d="M 266 398v 11h 5.5a 5.5 5.5, 0, 0, 0, 0 -11" transform="rotate(180,271.5,403.5)"/><rect x="266" y="420" width="11" height="11" transform="rotate(0,271.5,425.5)"/><rect x="266" y="431" width="11" height="11" transform="rotate(0,271.5,436.5)"/><rect x="277" y="46" width="11" height="11" transform="rotate(0,282.5,51.5)"/><path d="M 277 79v 11h 5.5a 5.5 5.5, 0, 0, 0, 0 -11" transform="rotate(0,282.5,84.5)"/><path d="M 277 123v 11h 5.5a 5.5 5.5, 0, 0, 0, 0 -11" transform="rotate(-90,282.5,128.5)"/><rect x="277" y="134" width="11" height="11" transform="rotate(0,282.5,139.5)"/><path d="M 277 145v 11h 5.5a 5.5 5.5, 0, 0, 0, 0 -11" transform="rotate(90,282.5,150.5)"/><rect x="277" y="178" width="11" height="11" transform="rotate(0,282.5,183.5)"/><path d="M 277 200v 11h 5.5a 5.5 5.5, 0, 0, 0, 0 -11" transform="rotate(0,282.5,205.5)"/><path d="M 277 222v 11h 11v -5.5a 5.5 5.5, 0, 0, 0, -5.5 -5.5" transform="rotate(0,282.5,227.5)"/><rect x="277" y="233" width="11" height="11" transform="rotate(0,282.5,238.5)"/><rect x="277" y="244" width="11" height="11" transform="rotate(0,282.5,249.5)"/><path d="M 277 255v 11h 11v -5.5a 5.5 5.5, 0, 0, 0, -5.5 -5.5" transform="rotate(90,282.5,260.5)"/><path d="M 277 310v 11h 5.5a 5.5 5.5, 0, 0, 0, 0 -11" transform="rotate(0,282.5,315.5)"/><circle cx="282.5" cy="359.5" r="5.5" transform="rotate(0,282.5,359.5)"/><path d="M 277 376v 11h 11v -5.5a 5.5 5.5, 0, 0, 0, -5.5 -5.5" transform="rotate(-90,282.5,381.5)"/><rect x="277" y="387" width="11" height="11" transform="rotate(0,282.5,392.5)"/><rect x="277" y="398" width="11" height="11" transform="rotate(0,282.5,403.5)"/><rect x="277" y="409" width="11" height="11" transform="rotate(0,282.5,414.5)"/><rect x="277" y="420" width="11" height="11" transform="rotate(0,282.5,425.5)"/><path d="M 277 431v 11h 11v -5.5a 5.5 5.5, 0, 0, 0, -5.5 -5.5" transform="rotate(90,282.5,436.5)"/><circle cx="282.5" cy="469.5" r="5.5" transform="rotate(0,282.5,469.5)"/><path d="M 288 24v 11h 11v -5.5a 5.5 5.5, 0, 0, 0, -5.5 -5.5" transform="rotate(-90,293.5,29.5)"/><rect x="288" y="35" width="11" height="11" transform="rotate(0,293.5,40.5)"/><path d="M 288 46v 11h 11v -5.5a 5.5 5.5, 0, 0, 0, -5.5 -5.5" transform="rotate(90,293.5,51.5)"/><circle cx="293.5" cy="73.5" r="5.5" transform="rotate(0,293.5,73.5)"/><path d="M 288 90v 11h 5.5a 5.5 5.5, 0, 0, 0, 0 -11" transform="rotate(-90,293.5,95.5)"/><rect x="288" y="101" width="11" height="11" transform="rotate(0,293.5,106.5)"/><path d="M 288 112v 11h 5.5a 5.5 5.5, 0, 0, 0, 0 -11" transform="rotate(90,293.5,117.5)"/><path d="M 288 134v 11h 5.5a 5.5 5.5, 0, 0, 0, 0 -11" transform="rotate(0,293.5,139.5)"/><path d="M 288 156v 11h 5.5a 5.5 5.5, 0, 0, 0, 0 -11" transform="rotate(-90,293.5,161.5)"/><rect x="288" y="167" width="11" height="11" transform="rotate(0,293.5,172.5)"/><rect x="288" y="178" width="11" height="11" transform="rotate(0,293.5,183.5)"/><path d="M 288 189v 11h 11v -5.5a 5.5 5.5, 0, 0, 0, -5.5 -5.5" transform="rotate(180,293.5,194.5)"/><path d="M 288 211v 11h 5.5a 5.5 5.5, 0, 0, 0, 0 -11" transform="rotate(180,293.5,216.5)"/><rect x="288" y="244" width="11" height="11" transform="rotate(0,293.5,249.5)"/><path d="M 288 266v 11h 11v -5.5a 5.5 5.5, 0, 0, 0, -5.5 -5.5" transform="rotate(-90,293.5,271.5)"/><rect x="288" y="277" width="11" height="11" transform="rotate(0,293.5,282.5)"/><path d="M 288 288v 11h 5.5a 5.5 5.5, 0, 0, 0, 0 -11" transform="rotate(90,293.5,293.5)"/><path d="M 288 321v 11h 11v -5.5a 5.5 5.5, 0, 0, 0, -5.5 -5.5" transform="rotate(-90,293.5,326.5)"/><path d="M 288 332v 11h 5.5a 5.5 5.5, 0, 0, 0, 0 -11" transform="rotate(90,293.5,337.5)"/><path d="M 288 365v 11h 11v -5.5a 5.5 5.5, 0, 0, 0, -5.5 -5.5" transform="rotate(-90,293.5,370.5)"/><path d="M 288 376v 11h 11v -5.5a 5.5 5.5, 0, 0, 0, -5.5 -5.5" transform="rotate(90,293.5,381.5)"/><rect x="288" y="398" width="11" height="11" transform="rotate(0,293.5,403.5)"/><circle cx="293.5" cy="458.5" r="5.5" transform="rotate(0,293.5,458.5)"/><path d="M 299 24v 11h 11v -5.5a 5.5 5.5, 0, 0, 0, -5.5 -5.5" transform="rotate(0,304.5,29.5)"/><rect x="299" y="35" width="11" height="11" transform="rotate(0,304.5,40.5)"/><circle cx="304.5" cy="62.5" r="5.5" transform="rotate(0,304.5,62.5)"/><rect x="299" y="101" width="11" height="11" transform="rotate(0,304.5,106.5)"/><circle cx="304.5" cy="150.5" r="5.5" transform="rotate(0,304.5,150.5)"/><rect x="299" y="189" width="11" height="11" transform="rotate(0,304.5,194.5)"/><path d="M 299 211v 11h 5.5a 5.5 5.5, 0, 0, 0, 0 -11" transform="rotate(0,304.5,216.5)"/><path d="M 299 233v 11h 5.5a 5.5 5.5, 0, 0, 0, 0 -11" transform="rotate(-90,304.5,238.5)"/><rect x="299" y="244" width="11" height="11" transform="rotate(0,304.5,249.5)"/><rect x="299" y="255" width="11" height="11" transform="rotate(0,304.5,260.5)"/><rect x="299" y="266" width="11" height="11" transform="rotate(0,304.5,271.5)"/><path d="M 299 277v 11h 11v -5.5a 5.5 5.5, 0, 0, 0, -5.5 -5.5" transform="rotate(90,304.5,282.5)"/><rect x="299" y="321" width="11" height="11" transform="rotate(0,304.5,326.5)"/><path d="M 299 354v 11h 5.5a 5.5 5.5, 0, 0, 0, 0 -11" transform="rotate(-90,304.5,359.5)"/><path d="M 299 365v 11h 11v -5.5a 5.5 5.5, 0, 0, 0, -5.5 -5.5" transform="rotate(90,304.5,370.5)"/><rect x="299" y="398" width="11" height="11" transform="rotate(0,304.5,403.5)"/><rect x="299" y="409" width="11" height="11" transform="rotate(0,304.5,414.5)"/><rect x="299" y="420" width="11" height="11" transform="rotate(0,304.5,425.5)"/><path d="M 299 431v 11h 5.5a 5.5 5.5, 0, 0, 0, 0 -11" transform="rotate(90,304.5,436.5)"/><circle cx="304.5" cy="469.5" r="5.5" transform="rotate(0,304.5,469.5)"/><path d="M 310 35v 11h 11v -5.5a 5.5 5.5, 0, 0, 0, -5.5 -5.5" transform="rotate(0,315.5,40.5)"/><path d="M 310 46v 11h 5.5a 5.5 5.5, 0, 0, 0, 0 -11" transform="rotate(90,315.5,51.5)"/><path d="M 310 68v 11h 5.5a 5.5 5.5, 0, 0, 0, 0 -11" transform="rotate(180,315.5,73.5)"/><path d="M 310 90v 11h 5.5a 5.5 5.5, 0, 0, 0, 0 -11" transform="rotate(-90,315.5,95.5)"/><path d="M 310 101v 11h 11v -5.5a 5.5 5.5, 0, 0, 0, -5.5 -5.5" transform="rotate(90,315.5,106.5)"/><path d="M 310 167v 11h 5.5a 5.5 5.5, 0, 0, 0, 0 -11" transform="rotate(180,315.5,172.5)"/><path d="M 310 189v 11h 5.5a 5.5 5.5, 0, 0, 0, 0 -11" transform="rotate(0,315.5,194.5)"/><path d="M 310 222v 11h 5.5a 5.5 5.5, 0, 0, 0, 0 -11" transform="rotate(180,315.5,227.5)"/><rect x="310" y="244" width="11" height="11" transform="rotate(0,315.5,249.5)"/><rect x="310" y="255" width="11" height="11" transform="rotate(0,315.5,260.5)"/><rect x="310" y="266" width="11" height="11" transform="rotate(0,315.5,271.5)"/><circle cx="315.5" cy="304.5" r="5.5" transform="rotate(0,315.5,304.5)"/><path d="M 310 321v 11h 11v -5.5a 5.5 5.5, 0, 0, 0, -5.5 -5.5" transform="rotate(0,315.5,326.5)"/><path d="M 310 332v 11h 11v -5.5a 5.5 5.5, 0, 0, 0, -5.5 -5.5" transform="rotate(180,315.5,337.5)"/><path d="M 310 376v 11h 5.5a 5.5 5.5, 0, 0, 0, 0 -11" transform="rotate(-90,315.5,381.5)"/><rect x="310" y="387" width="11" height="11" transform="rotate(0,315.5,392.5)"/><rect x="310" y="398" width="11" height="11" transform="rotate(0,315.5,403.5)"/><path d="M 310 420v 11h 5.5a 5.5 5.5, 0, 0, 0, 0 -11" transform="rotate(0,315.5,425.5)"/><path d="M 321 24v 11h 5.5a 5.5 5.5, 0, 0, 0, 0 -11" transform="rotate(180,326.5,29.5)"/><rect x="321" y="68" width="11" height="11" transform="rotate(0,326.5,73.5)"/><path d="M 321 112v 11h 5.5a 5.5 5.5, 0, 0, 0, 0 -11" transform="rotate(180,326.5,117.5)"/><path d="M 321 156v 11h 5.5a 5.5 5.5, 0, 0, 0, 0 -11" transform="rotate(-90,326.5,161.5)"/><rect x="321" y="167" width="11" height="11" transform="rotate(0,326.5,172.5)"/><path d="M 321 178v 11h 11v -5.5a 5.5 5.5, 0, 0, 0, -5.5 -5.5" transform="rotate(180,326.5,183.5)"/><path d="M 321 200v 11h 5.5a 5.5 5.5, 0, 0, 0, 0 -11" transform="rotate(180,326.5,205.5)"/><path d="M 321 222v 11h 11v -5.5a 5.5 5.5, 0, 0, 0, -5.5 -5.5" transform="rotate(0,326.5,227.5)"/><rect x="321" y="233" width="11" height="11" transform="rotate(0,326.5,238.5)"/><rect x="321" y="244" width="11" height="11" transform="rotate(0,326.5,249.5)"/><rect x="321" y="255" width="11" height="11" transform="rotate(0,326.5,260.5)"/><rect x="321" y="266" width="11" height="11" transform="rotate(0,326.5,271.5)"/><path d="M 321 277v 11h 5.5a 5.5 5.5, 0, 0, 0, 0 -11" transform="rotate(90,326.5,282.5)"/><path d="M 321 332v 11h 5.5a 5.5 5.5, 0, 0, 0, 0 -11" transform="rotate(0,326.5,337.5)"/><path d="M 321 365v 11h 5.5a 5.5 5.5, 0, 0, 0, 0 -11" transform="rotate(180,326.5,370.5)"/><rect x="321" y="387" width="11" height="11" transform="rotate(0,326.5,392.5)"/><rect x="321" y="398" width="11" height="11" transform="rotate(0,326.5,403.5)"/><path d="M 321 409v 11h 5.5a 5.5 5.5, 0, 0, 0, 0 -11" transform="rotate(90,326.5,414.5)"/><path d="M 321 431v 11h 11v -5.5a 5.5 5.5, 0, 0, 0, -5.5 -5.5" transform="rotate(-90,326.5,436.5)"/><path d="M 321 442v 11h 11v -5.5a 5.5 5.5, 0, 0, 0, -5.5 -5.5" transform="rotate(180,326.5,447.5)"/><rect x="332" y="24" width="11" height="11" transform="rotate(0,337.5,29.5)"/><path d="M 332 46v 11h 5.5a 5.5 5.5, 0, 0, 0, 0 -11" transform="rotate(-90,337.5,51.5)"/><rect x="332" y="57" width="11" height="11" transform="rotate(0,337.5,62.5)"/><rect x="332" y="68" width="11" height="11" transform="rotate(0,337.5,73.5)"/><rect x="332" y="79" width="11" height="11" transform="rotate(0,337.5,84.5)"/><rect x="332" y="90" width="11" height="11" transform="rotate(0,337.5,95.5)"/><rect x="332" y="101" width="11" height="11" transform="rotate(0,337.5,106.5)"/><rect x="332" y="112" width="11" height="11" transform="rotate(0,337.5,117.5)"/><rect x="332" y="123" width="11" height="11" transform="rotate(0,337.5,128.5)"/><rect x="332" y="134" width="11" height="11" transform="rotate(0,337.5,139.5)"/><path d="M 332 145v 11h 11v -5.5a 5.5 5.5, 0, 0, 0, -5.5 -5.5" transform="rotate(180,337.5,150.5)"/><path d="M 332 178v 11h 11v -5.5a 5.5 5.5, 0, 0, 0, -5.5 -5.5" transform="rotate(0,337.5,183.5)"/><rect x="332" y="189" width="11" height="11" transform="rotate(0,337.5,194.5)"/><path d="M 332 200v 11h 11v -5.5a 5.5 5.5, 0, 0, 0, -5.5 -5.5" transform="rotate(90,337.5,205.5)"/><rect x="332" y="255" width="11" height="11" transform="rotate(0,337.5,260.5)"/><circle cx="337.5" cy="304.5" r="5.5" transform="rotate(0,337.5,304.5)"/><path d="M 332 343v 11h 11v -5.5a 5.5 5.5, 0, 0, 0, -5.5 -5.5" transform="rotate(-90,337.5,348.5)"/><rect x="332" y="354" width="11" height="11" transform="rotate(0,337.5,359.5)"/><rect x="332" y="365" width="11" height="11" transform="rotate(0,337.5,370.5)"/><rect x="332" y="376" width="11" height="11" transform="rotate(0,337.5,381.5)"/><path d="M 332 387v 11h 11v -5.5a 5.5 5.5, 0, 0, 0, -5.5 -5.5" transform="rotate(90,337.5,392.5)"/><path d="M 332 431v 11h 11v -5.5a 5.5 5.5, 0, 0, 0, -5.5 -5.5" transform="rotate(0,337.5,436.5)"/><path d="M 332 442v 11h 11v -5.5a 5.5 5.5, 0, 0, 0, -5.5 -5.5" transform="rotate(90,337.5,447.5)"/><path d="M 332 464v 11h 5.5a 5.5 5.5, 0, 0, 0, 0 -11" transform="rotate(180,337.5,469.5)"/><rect x="343" y="24" width="11" height="11" transform="rotate(0,348.5,29.5)"/><path d="M 343 35v 11h 11v -5.5a 5.5 5.5, 0, 0, 0, -5.5 -5.5" transform="rotate(180,348.5,40.5)"/><rect x="343" y="68" width="11" height="11" transform="rotate(0,348.5,73.5)"/><path d="M 343 101v 11h 11v -5.5a 5.5 5.5, 0, 0, 0, -5.5 -5.5" transform="rotate(0,348.5,106.5)"/><rect x="343" y="112" width="11" height="11" transform="rotate(0,348.5,117.5)"/><rect x="343" y="123" width="11" height="11" transform="rotate(0,348.5,128.5)"/><rect x="343" y="134" width="11" height="11" transform="rotate(0,348.5,139.5)"/><rect x="343" y="145" width="11" height="11" transform="rotate(0,348.5,150.5)"/><rect x="343" y="156" width="11" height="11" transform="rotate(0,348.5,161.5)"/><path d="M 343 167v 11h 11v -5.5a 5.5 5.5, 0, 0, 0, -5.5 -5.5" transform="rotate(180,348.5,172.5)"/><path d="M 343 189v 11h 5.5a 5.5 5.5, 0, 0, 0, 0 -11" transform="rotate(0,348.5,194.5)"/><circle cx="348.5" cy="227.5" r="5.5" transform="rotate(0,348.5,227.5)"/><rect x="343" y="255" width="11" height="11" transform="rotate(0,348.5,260.5)"/><path d="M 343 277v 11h 5.5a 5.5 5.5, 0, 0, 0, 0 -11" transform="rotate(180,348.5,282.5)"/><path d="M 343 321v 11h 11v -5.5a 5.5 5.5, 0, 0, 0, -5.5 -5.5" transform="rotate(-90,348.5,326.5)"/><rect x="343" y="332" width="11" height="11" transform="rotate(0,348.5,337.5)"/><rect x="343" y="343" width="11" height="11" transform="rotate(0,348.5,348.5)"/><rect x="343" y="354" width="11" height="11" transform="rotate(0,348.5,359.5)"/><rect x="343" y="365" width="11" height="11" transform="rotate(0,348.5,370.5)"/><rect x="343" y="376" width="11" height="11" transform="rotate(0,348.5,381.5)"/><path d="M 343 398v 11h 5.5a 5.5 5.5, 0, 0, 0, 0 -11" transform="rotate(-90,348.5,403.5)"/><rect x="343" y="409" width="11" height="11" transform="rotate(0,348.5,414.5)"/><path d="M 343 420v 11h 5.5a 5.5 5.5, 0, 0, 0, 0 -11" transform="rotate(90,348.5,425.5)"/><path d="M 343 453v 11h 5.5a 5.5 5.5, 0, 0, 0, 0 -11" transform="rotate(-90,348.5,458.5)"/><rect x="343" y="464" width="11" height="11" transform="rotate(0,348.5,469.5)"/><rect x="354" y="24" width="11" height="11" transform="rotate(0,359.5,29.5)"/><rect x="354" y="35" width="11" height="11" transform="rotate(0,359.5,40.5)"/><path d="M 354 46v 11h 11v -5.5a 5.5 5.5, 0, 0, 0, -5.5 -5.5" transform="rotate(180,359.5,51.5)"/><path d="M 354 68v 11h 5.5a 5.5 5.5, 0, 0, 0, 0 -11" transform="rotate(0,359.5,73.5)"/><circle cx="359.5" cy="95.5" r="5.5" transform="rotate(0,359.5,95.5)"/><path d="M 354 123v 11h 11v -5.5a 5.5 5.5, 0, 0, 0, -5.5 -5.5" transform="rotate(0,359.5,128.5)"/><path d="M 354 134v 11h 11v -5.5a 5.5 5.5, 0, 0, 0, -5.5 -5.5" transform="rotate(90,359.5,139.5)"/><rect x="354" y="167" width="11" height="11" transform="rotate(0,359.5,172.5)"/><path d="M 354 178v 11h 5.5a 5.5 5.5, 0, 0, 0, 0 -11" transform="rotate(90,359.5,183.5)"/><path d="M 354 200v 11h 11v -5.5a 5.5 5.5, 0, 0, 0, -5.5 -5.5" transform="rotate(-90,359.5,205.5)"/><path d="M 354 211v 11h 5.5a 5.5 5.5, 0, 0, 0, 0 -11" transform="rotate(90,359.5,216.5)"/><rect x="354" y="255" width="11" height="11" transform="rotate(0,359.5,260.5)"/><path d="M 354 277v 11h 5.5a 5.5 5.5, 0, 0, 0, 0 -11" transform="rotate(0,359.5,282.5)"/><circle cx="359.5" cy="304.5" r="5.5" transform="rotate(0,359.5,304.5)"/><path d="M 354 321v 11h 11v -5.5a 5.5 5.5, 0, 0, 0, -5.5 -5.5" transform="rotate(0,359.5,326.5)"/><rect x="354" y="332" width="11" height="11" transform="rotate(0,359.5,337.5)"/><rect x="354" y="365" width="11" height="11" transform="rotate(0,359.5,370.5)"/><rect x="354" y="376" width="11" height="11" transform="rotate(0,359.5,381.5)"/><path d="M 354 387v 11h 5.5a 5.5 5.5, 0, 0, 0, 0 -11" transform="rotate(90,359.5,392.5)"/><path d="M 354 464v 11h 5.5a 5.5 5.5, 0, 0, 0, 0 -11" transform="rotate(0,359.5,469.5)"/><rect x="365" y="24" width="11" height="11" transform="rotate(0,370.5,29.5)"/><rect x="365" y="46" width="11" height="11" transform="rotate(0,370.5,51.5)"/><path d="M 365 101v 11h 5.5a 5.5 5.5, 0, 0, 0, 0 -11" transform="rotate(-90,370.5,106.5)"/><path d="M 365 112v 11h 11v -5.5a 5.5 5.5, 0, 0, 0, -5.5 -5.5" transform="rotate(180,370.5,117.5)"/><path d="M 365 145v 11h 5.5a 5.5 5.5, 0, 0, 0, 0 -11" transform="rotate(-90,370.5,150.5)"/><rect x="365" y="156" width="11" height="11" transform="rotate(0,370.5,161.5)"/><path d="M 365 167v 11h 11v -5.5a 5.5 5.5, 0, 0, 0, -5.5 -5.5" transform="rotate(90,370.5,172.5)"/><path d="M 365 189v 11h 5.5a 5.5 5.5, 0, 0, 0, 0 -11" transform="rotate(-90,370.5,194.5)"/><rect x="365" y="200" width="11" height="11" transform="rotate(0,370.5,205.5)"/><path d="M 365 222v 11h 11v -5.5a 5.5 5.5, 0, 0, 0, -5.5 -5.5" transform="rotate(-90,370.5,227.5)"/><rect x="365" y="233" width="11" height="11" transform="rotate(0,370.5,238.5)"/><rect x="365" y="244" width="11" height="11" transform="rotate(0,370.5,249.5)"/><rect x="365" y="255" width="11" height="11" transform="rotate(0,370.5,260.5)"/><path d="M 365 310v 11h 5.5a 5.5 5.5, 0, 0, 0, 0 -11" transform="rotate(180,370.5,315.5)"/><path d="M 365 332v 11h 5.5a 5.5 5.5, 0, 0, 0, 0 -11" transform="rotate(0,370.5,337.5)"/><rect x="365" y="365" width="11" height="11" transform="rotate(0,370.5,370.5)"/><rect x="365" y="376" width="11" height="11" transform="rotate(0,370.5,381.5)"/><path d="M 365 398v 11h 11v -5.5a 5.5 5.5, 0, 0, 0, -5.5 -5.5" transform="rotate(-90,370.5,403.5)"/><path d="M 365 409v 11h 11v -5.5a 5.5 5.5, 0, 0, 0, -5.5 -5.5" transform="rotate(180,370.5,414.5)"/><circle cx="370.5" cy="436.5" r="5.5" transform="rotate(0,370.5,436.5)"/><circle cx="370.5" cy="458.5" r="5.5" transform="rotate(0,370.5,458.5)"/><path d="M 376 24v 11h 5.5a 5.5 5.5, 0, 0, 0, 0 -11" transform="rotate(0,381.5,29.5)"/><path d="M 376 46v 11h 5.5a 5.5 5.5, 0, 0, 0, 0 -11" transform="rotate(0,381.5,51.5)"/><circle cx="381.5" cy="95.5" r="5.5" transform="rotate(0,381.5,95.5)"/><rect x="376" y="112" width="11" height="11" transform="rotate(0,381.5,117.5)"/><rect x="376" y="123" width="11" height="11" transform="rotate(0,381.5,128.5)"/><path d="M 376 134v 11h 5.5a 5.5 5.5, 0, 0, 0, 0 -11" transform="rotate(90,381.5,139.5)"/><path d="M 376 156v 11h 5.5a 5.5 5.5, 0, 0, 0, 0 -11" transform="rotate(0,381.5,161.5)"/><rect x="376" y="200" width="11" height="11" transform="rotate(0,381.5,205.5)"/><rect x="376" y="211" width="11" height="11" transform="rotate(0,381.5,216.5)"/><path d="M 376 222v 11h 11v -5.5a 5.5 5.5, 0, 0, 0, -5.5 -5.5" transform="rotate(90,381.5,227.5)"/><path d="M 376 255v 11h 5.5a 5.5 5.5, 0, 0, 0, 0 -11" transform="rotate(0,381.5,260.5)"/><path d="M 376 288v 11h 5.5a 5.5 5.5, 0, 0, 0, 0 -11" transform="rotate(-90,381.5,293.5)"/><rect x="376" y="299" width="11" height="11" transform="rotate(0,381.5,304.5)"/><rect x="376" y="310" width="11" height="11" transform="rotate(0,381.5,315.5)"/><path d="M 376 321v 11h 11v -5.5a 5.5 5.5, 0, 0, 0, -5.5 -5.5" transform="rotate(180,381.5,326.5)"/><circle cx="381.5" cy="348.5" r="5.5" transform="rotate(0,381.5,348.5)"/><path d="M 376 365v 11h 11v -5.5a 5.5 5.5, 0, 0, 0, -5.5 -5.5" transform="rotate(0,381.5,370.5)"/><rect x="376" y="376" width="11" height="11" transform="rotate(0,381.5,381.5)"/><rect x="376" y="387" width="11" height="11" transform="rotate(0,381.5,392.5)"/><rect x="376" y="398" width="11" height="11" transform="rotate(0,381.5,403.5)"/><rect x="376" y="409" width="11" height="11" transform="rotate(0,381.5,414.5)"/><path d="M 376 420v 11h 11v -5.5a 5.5 5.5, 0, 0, 0, -5.5 -5.5" transform="rotate(180,381.5,425.5)"/><circle cx="381.5" cy="447.5" r="5.5" transform="rotate(0,381.5,447.5)"/><rect x="387" y="112" width="11" height="11" transform="rotate(0,392.5,117.5)"/><circle cx="392.5" cy="150.5" r="5.5" transform="rotate(0,392.5,150.5)"/><path d="M 387 189v 11h 11v -5.5a 5.5 5.5, 0, 0, 0, -5.5 -5.5" transform="rotate(-90,392.5,194.5)"/><path d="M 387 200v 11h 11v -5.5a 5.5 5.5, 0, 0, 0, -5.5 -5.5" transform="rotate(90,392.5,205.5)"/><circle cx="392.5" cy="238.5" r="5.5" transform="rotate(0,392.5,238.5)"/><path d="M 387 266v 11h 5.5a 5.5 5.5, 0, 0, 0, 0 -11" transform="rotate(-90,392.5,271.5)"/><path d="M 387 277v 11h 5.5a 5.5 5.5, 0, 0, 0, 0 -11" transform="rotate(90,392.5,282.5)"/><rect x="387" y="321" width="11" height="11" transform="rotate(0,392.5,326.5)"/><path d="M 387 332v 11h 11v -5.5a 5.5 5.5, 0, 0, 0, -5.5 -5.5" transform="rotate(180,392.5,337.5)"/><circle cx="392.5" cy="359.5" r="5.5" transform="rotate(0,392.5,359.5)"/><rect x="387" y="376" width="11" height="11" transform="rotate(0,392.5,381.5)"/><rect x="387" y="420" width="11" height="11" transform="rotate(0,392.5,425.5)"/><path d="M 398 112v 11h 11v -5.5a 5.5 5.5, 0, 0, 0, -5.5 -5.5" transform="rotate(0,403.5,117.5)"/><path d="M 398 123v 11h 11v -5.5a 5.5 5.5, 0, 0, 0, -5.5 -5.5" transform="rotate(180,403.5,128.5)"/><path d="M 398 156v 11h 11v -5.5a 5.5 5.5, 0, 0, 0, -5.5 -5.5" transform="rotate(-90,403.5,161.5)"/><path d="M 398 167v 11h 5.5a 5.5 5.5, 0, 0, 0, 0 -11" transform="rotate(90,403.5,172.5)"/><path d="M 398 189v 11h 5.5a 5.5 5.5, 0, 0, 0, 0 -11" transform="rotate(0,403.5,194.5)"/><path d="M 398 244v 11h 11v -5.5a 5.5 5.5, 0, 0, 0, -5.5 -5.5" transform="rotate(-90,403.5,249.5)"/><path d="M 398 255v 11h 5.5a 5.5 5.5, 0, 0, 0, 0 -11" transform="rotate(90,403.5,260.5)"/><path d="M 398 288v 11h 5.5a 5.5 5.5, 0, 0, 0, 0 -11" transform="rotate(180,403.5,293.5)"/><path d="M 398 310v 11h 5.5a 5.5 5.5, 0, 0, 0, 0 -11" transform="rotate(-90,403.5,315.5)"/><rect x="398" y="321" width="11" height="11" transform="rotate(0,403.5,326.5)"/><rect x="398" y="332" width="11" height="11" transform="rotate(0,403.5,337.5)"/><path d="M 398 365v 11h 11v -5.5a 5.5 5.5, 0, 0, 0, -5.5 -5.5" transform="rotate(-90,403.5,370.5)"/><rect x="398" y="376" width="11" height="11" transform="rotate(0,403.5,381.5)"/><circle cx="403.5" cy="403.5" r="5.5" transform="rotate(0,403.5,403.5)"/><rect x="398" y="420" width="11" height="11" transform="rotate(0,403.5,425.5)"/><path d="M 398 431v 11h 11v -5.5a 5.5 5.5, 0, 0, 0, -5.5 -5.5" transform="rotate(180,403.5,436.5)"/><rect x="409" y="123" width="11" height="11" transform="rotate(0,414.5,128.5)"/><path d="M 409 145v 11h 11v -5.5a 5.5 5.5, 0, 0, 0, -5.5 -5.5" transform="rotate(-90,414.5,150.5)"/><path d="M 409 156v 11h 11v -5.5a 5.5 5.5, 0, 0, 0, -5.5 -5.5" transform="rotate(90,414.5,161.5)"/><path d="M 409 178v 11h 5.5a 5.5 5.5, 0, 0, 0, 0 -11" transform="rotate(180,414.5,183.5)"/><path d="M 409 211v 11h 11v -5.5a 5.5 5.5, 0, 0, 0, -5.5 -5.5" transform="rotate(-90,414.5,216.5)"/><rect x="409" y="222" width="11" height="11" transform="rotate(0,414.5,227.5)"/><rect x="409" y="233" width="11" height="11" transform="rotate(0,414.5,238.5)"/><rect x="409" y="244" width="11" height="11" transform="rotate(0,414.5,249.5)"/><rect x="409" y="288" width="11" height="11" transform="rotate(0,414.5,293.5)"/><rect x="409" y="332" width="11" height="11" transform="rotate(0,414.5,337.5)"/><rect x="409" y="365" width="11" height="11" transform="rotate(0,414.5,370.5)"/><rect x="409" y="376" width="11" height="11" transform="rotate(0,414.5,381.5)"/><rect x="409" y="420" width="11" height="11" transform="rotate(0,414.5,425.5)"/><rect x="409" y="431" width="11" height="11" transform="rotate(0,414.5,436.5)"/><path d="M 420 123v 11h 5.5a 5.5 5.5, 0, 0, 0, 0 -11" transform="rotate(0,425.5,128.5)"/><rect x="420" y="145" width="11" height="11" transform="rotate(0,425.5,150.5)"/><rect x="420" y="178" width="11" height="11" transform="rotate(0,425.5,183.5)"/><rect x="420" y="211" width="11" height="11" transform="rotate(0,425.5,216.5)"/><path d="M 420 233v 11h 11v -5.5a 5.5 5.5, 0, 0, 0, -5.5 -5.5" transform="rotate(0,425.5,238.5)"/><rect x="420" y="244" width="11" height="11" transform="rotate(0,425.5,249.5)"/><rect x="420" y="255" width="11" height="11" transform="rotate(0,425.5,260.5)"/><path d="M 420 266v 11h 5.5a 5.5 5.5, 0, 0, 0, 0 -11" transform="rotate(90,425.5,271.5)"/><path d="M 420 288v 11h 5.5a 5.5 5.5, 0, 0, 0, 0 -11" transform="rotate(0,425.5,293.5)"/><rect x="420" y="332" width="11" height="11" transform="rotate(0,425.5,337.5)"/><rect x="420" y="365" width="11" height="11" transform="rotate(0,425.5,370.5)"/><rect x="420" y="376" width="11" height="11" transform="rotate(0,425.5,381.5)"/><rect x="420" y="387" width="11" height="11" transform="rotate(0,425.5,392.5)"/><rect x="420" y="398" width="11" height="11" transform="rotate(0,425.5,403.5)"/><rect x="420" y="409" width="11" height="11" transform="rotate(0,425.5,414.5)"/><rect x="420" y="420" width="11" height="11" transform="rotate(0,425.5,425.5)"/><path d="M 420 431v 11h 11v -5.5a 5.5 5.5, 0, 0, 0, -5.5 -5.5" transform="rotate(90,425.5,436.5)"/><path d="M 431 134v 11h 5.5a 5.5 5.5, 0, 0, 0, 0 -11" transform="rotate(-90,436.5,139.5)"/><rect x="431" y="145" width="11" height="11" transform="rotate(0,436.5,150.5)"/><rect x="431" y="156" width="11" height="11" transform="rotate(0,436.5,161.5)"/><rect x="431" y="167" width="11" height="11" transform="rotate(0,436.5,172.5)"/><rect x="431" y="178" width="11" height="11" transform="rotate(0,436.5,183.5)"/><rect x="431" y="189" width="11" height="11" transform="rotate(0,436.5,194.5)"/><rect x="431" y="200" width="11" height="11" transform="rotate(0,436.5,205.5)"/><rect x="431" y="211" width="11" height="11" transform="rotate(0,436.5,216.5)"/><path d="M 431 244v 11h 11v -5.5a 5.5 5.5, 0, 0, 0, -5.5 -5.5" transform="rotate(0,436.5,249.5)"/><rect x="431" y="255" width="11" height="11" transform="rotate(0,436.5,260.5)"/><circle cx="436.5" cy="282.5" r="5.5" transform="rotate(0,436.5,282.5)"/><path d="M 431 299v 11h 5.5a 5.5 5.5, 0, 0, 0, 0 -11" transform="rotate(180,436.5,304.5)"/><path d="M 431 321v 11h 11v -5.5a 5.5 5.5, 0, 0, 0, -5.5 -5.5" transform="rotate(-90,436.5,326.5)"/><rect x="431" y="332" width="11" height="11" transform="rotate(0,436.5,337.5)"/><path d="M 431 354v 11h 11v -5.5a 5.5 5.5, 0, 0, 0, -5.5 -5.5" transform="rotate(-90,436.5,359.5)"/><path d="M 431 365v 11h 11v -5.5a 5.5 5.5, 0, 0, 0, -5.5 -5.5" transform="rotate(90,436.5,370.5)"/><rect x="431" y="409" width="11" height="11" transform="rotate(0,436.5,414.5)"/><path d="M 442 123v 11h 5.5a 5.5 5.5, 0, 0, 0, 0 -11" transform="rotate(180,447.5,128.5)"/><path d="M 442 145v 11h 5.5a 5.5 5.5, 0, 0, 0, 0 -11" transform="rotate(0,447.5,150.5)"/><path d="M 442 167v 11h 5.5a 5.5 5.5, 0, 0, 0, 0 -11" transform="rotate(0,447.5,172.5)"/><rect x="442" y="189" width="11" height="11" transform="rotate(0,447.5,194.5)"/><rect x="442" y="200" width="11" height="11" transform="rotate(0,447.5,205.5)"/><rect x="442" y="211" width="11" height="11" transform="rotate(0,447.5,216.5)"/><rect x="442" y="222" width="11" height="11" transform="rotate(0,447.5,227.5)"/><path d="M 442 233v 11h 5.5a 5.5 5.5, 0, 0, 0, 0 -11" transform="rotate(90,447.5,238.5)"/><path d="M 442 255v 11h 5.5a 5.5 5.5, 0, 0, 0, 0 -11" transform="rotate(0,447.5,260.5)"/><path d="M 442 299v 11h 11v -5.5a 5.5 5.5, 0, 0, 0, -5.5 -5.5" transform="rotate(0,447.5,304.5)"/><rect x="442" y="310" width="11" height="11" transform="rotate(0,447.5,315.5)"/><rect x="442" y="321" width="11" height="11" transform="rotate(0,447.5,326.5)"/><path d="M 442 332v 11h 11v -5.5a 5.5 5.5, 0, 0, 0, -5.5 -5.5" transform="rotate(90,447.5,337.5)"/><path d="M 442 354v 11h 5.5a 5.5 5.5, 0, 0, 0, 0 -11" transform="rotate(0,447.5,359.5)"/><path d="M 442 376v 11h 5.5a 5.5 5.5, 0, 0, 0, 0 -11" transform="rotate(-90,447.5,381.5)"/><rect x="442" y="387" width="11" height="11" transform="rotate(0,447.5,392.5)"/><rect x="442" y="398" width="11" height="11" transform="rotate(0,447.5,403.5)"/><rect x="442" y="409" width="11" height="11" transform="rotate(0,447.5,414.5)"/><path d="M 442 420v 11h 11v -5.5a 5.5 5.5, 0, 0, 0, -5.5 -5.5" transform="rotate(180,447.5,425.5)"/><path d="M 442 442v 11h 5.5a 5.5 5.5, 0, 0, 0, 0 -11" transform="rotate(180,447.5,447.5)"/><path d="M 453 112v 11h 5.5a 5.5 5.5, 0, 0, 0, 0 -11" transform="rotate(-90,458.5,117.5)"/><rect x="453" y="123" width="11" height="11" transform="rotate(0,458.5,128.5)"/><path d="M 453 156v 11h 5.5a 5.5 5.5, 0, 0, 0, 0 -11" transform="rotate(180,458.5,161.5)"/><path d="M 453 178v 11h 11v -5.5a 5.5 5.5, 0, 0, 0, -5.5 -5.5" transform="rotate(-90,458.5,183.5)"/><rect x="453" y="189" width="11" height="11" transform="rotate(0,458.5,194.5)"/><path d="M 453 211v 11h 5.5a 5.5 5.5, 0, 0, 0, 0 -11" transform="rotate(0,458.5,216.5)"/><path d="M 453 244v 11h 5.5a 5.5 5.5, 0, 0, 0, 0 -11" transform="rotate(180,458.5,249.5)"/><path d="M 453 277v 11h 5.5a 5.5 5.5, 0, 0, 0, 0 -11" transform="rotate(180,458.5,282.5)"/><path d="M 453 321v 11h 5.5a 5.5 5.5, 0, 0, 0, 0 -11" transform="rotate(0,458.5,326.5)"/><path d="M 453 365v 11h 5.5a 5.5 5.5, 0, 0, 0, 0 -11" transform="rotate(180,458.5,370.5)"/><rect x="453" y="398" width="11" height="11" transform="rotate(0,458.5,403.5)"/><rect x="453" y="420" width="11" height="11" transform="rotate(0,458.5,425.5)"/><rect x="453" y="442" width="11" height="11" transform="rotate(0,458.5,447.5)"/><circle cx="458.5" cy="469.5" r="5.5" transform="rotate(0,458.5,469.5)"/><path d="M 464 123v 11h 5.5a 5.5 5.5, 0, 0, 0, 0 -11" transform="rotate(0,469.5,128.5)"/><path d="M 464 156v 11h 11v -5.5a 5.5 5.5, 0, 0, 0, -5.5 -5.5" transform="rotate(0,469.5,161.5)"/><rect x="464" y="167" width="11" height="11" transform="rotate(0,469.5,172.5)"/><rect x="464" y="178" width="11" height="11" transform="rotate(0,469.5,183.5)"/><path d="M 464 189v 11h 11v -5.5a 5.5 5.5, 0, 0, 0, -5.5 -5.5" transform="rotate(90,469.5,194.5)"/><path d="M 464 244v 11h 5.5a 5.5 5.5, 0, 0, 0, 0 -11" transform="rotate(0,469.5,249.5)"/><path d="M 464 277v 11h 11v -5.5a 5.5 5.5, 0, 0, 0, -5.5 -5.5" transform="rotate(0,469.5,282.5)"/><rect x="464" y="288" width="11" height="11" transform="rotate(0,469.5,293.5)"/><rect x="464" y="299" width="11" height="11" transform="rotate(0,469.5,304.5)"/><path d="M 464 310v 11h 5.5a 5.5 5.5, 0, 0, 0, 0 -11" transform="rotate(90,469.5,315.5)"/><path d="M 464 332v 11h 5.5a 5.5 5.5, 0, 0, 0, 0 -11" transform="rotate(-90,469.5,337.5)"/><path d="M 464 343v 11h 5.5a 5.5 5.5, 0, 0, 0, 0 -11" transform="rotate(90,469.5,348.5)"/><path d="M 464 365v 11h 5.5a 5.5 5.5, 0, 0, 0, 0 -11" transform="rotate(0,469.5,370.5)"/><path d="M 464 398v 11h 11v -5.5a 5.5 5.5, 0, 0, 0, -5.5 -5.5" transform="rotate(0,469.5,403.5)"/><rect x="464" y="409" width="11" height="11" transform="rotate(0,469.5,414.5)"/><rect x="464" y="420" width="11" height="11" transform="rotate(0,469.5,425.5)"/><rect x="464" y="431" width="11" height="11" transform="rotate(0,469.5,436.5)"/><path d="M 464 442v 11h 11v -5.5a 5.5 5.5, 0, 0, 0, -5.5 -5.5" transform="rotate(90,469.5,447.5)"/></clipPath><clipPath id="clip-path-corners-square-color-0-0"><path clip-rule="evenodd" d="M 24 24v 77h 77v -77zM 35 35h 55v 55h -55z" transform="rotate(0,62.5,62.5)"/></clipPath><clipPath id="clip-path-corners-dot-color-0-0"><rect x="46" y="46" width="33" height="33" transform="rotate(0,62.5,62.5)"/></clipPath><clipPath id="clip-path-corners-square-color-1-0"><path clip-rule="evenodd" d="M 398 24v 77h 77v -77zM 409 35h 55v 55h -55z" transform="rotate(90,436.5,62.5)"/></clipPath><clipPath id="clip-path-corners-dot-color-1-0"><rect x="420" y="46" width="33" height="33" transform="rotate(90,436.5,62.5)"/></clipPath><clipPath id="clip-path-corners-square-color-0-1"><path clip-rule="evenodd" d="M 24 398v 77h 77v -77zM 35 409h 55v 55h -55z" transform="rotate(-90,62.5,436.5)"/></clipPath><clipPath id="clip-path-corners-dot-color-0-1"><rect x="46" y="420" width="33" height="33" transform="rotate(-90,62.5,436.5)"/></clipPath></defs><rect x="0" y="0" height="500" width="500" clip-path="url('#clip-path-background-color')" fill="#fff"/><rect x="0" y="0" height="500" width="500" clip-path="url('#clip-path-dot-color')" fill="#000000"/><rect x="24" y="24" height="77" width="77" clip-path="url('#clip-path-corners-square-color-0-0')" fill="#000000"/><rect x="46" y="46" height="33" width="33" clip-path="url('#clip-path-corners-dot-color-0-0')" fill="#000000"/><rect x="398" y="24" height="77" width="77" clip-path="url('#clip-path-corners-square-color-1-0')" fill="#000000"/><rect x="420" y="46" height="33" width="33" clip-path="url('#clip-path-corners-dot-color-1-0')" fill="#000000"/><rect x="24" y="398" height="77" width="77" clip-path="url('#clip-path-corners-square-color-0-1')" fill="#000000"/><rect x="46" y="420" height="33" width="33" clip-path="url('#clip-path-corners-dot-color-0-1')" fill="#000000"/></svg>